{"glyphs":{"0":{"ha":857,"x_min":66,"x_max":791,"o":"m 429 -16 q 235 48 317 -16 q 110 228 154 111 q 66 505 66 344 q 110 782 66 665 q 236 963 155 899 q 429 1026 317 1026 q 622 963 541 1026 q 747 782 703 899 q 791 505 791 665 q 748 228 791 344 q 622 48 704 111 q 429 -16 541 -16 m 429 94 q 560 143 505 94 q 645 284 615 193 q 674 505 674 376 q 645 726 674 633 q 560 867 615 818 q 429 917 505 917 q 297 867 352 917 q 213 726 242 818 q 183 505 183 633 q 213 284 183 376 q 297 143 242 193 q 429 94 352 94 z "},"1":{"ha":517,"x_min":40,"x_max":412,"o":"m 412 1010 l 412 0 l 292 0 l 292 886 l 290 886 l 40 716 l 40 844 l 285 1010 l 412 1010 z "},"2":{"ha":794,"x_min":68,"x_max":728,"o":"m 68 0 l 68 100 l 422 437 q 525 541 485 496 q 583 629 564 586 q 602 722 602 671 q 577 826 602 782 q 507 893 552 869 q 399 917 461 917 q 285 889 332 917 q 213 811 238 862 q 188 692 188 761 l 72 692 q 113 866 72 791 q 228 984 154 941 q 399 1026 302 1026 q 565 987 493 1026 q 678 881 637 949 q 719 726 719 813 q 696 607 719 663 q 625 491 673 551 q 498 358 576 431 l 236 113 l 236 110 l 728 110 l 728 0 l 68 0 z "},"3":{"ha":838,"x_min":69,"x_max":772,"o":"m 422 -16 q 240 25 319 -16 q 116 137 161 65 q 69 304 71 210 l 195 304 q 223 190 195 237 q 301 118 250 143 q 420 93 351 93 q 540 116 488 93 q 621 182 592 140 q 650 283 650 225 q 620 377 650 337 q 534 440 589 418 q 404 463 479 463 l 323 463 l 323 572 l 404 572 q 516 593 468 572 q 591 651 564 614 q 618 739 618 688 q 593 834 618 794 q 523 896 568 874 q 416 918 478 918 q 309 895 355 918 q 237 828 263 871 q 210 725 211 785 l 91 725 q 134 882 92 814 q 250 988 176 950 q 418 1026 323 1026 q 584 989 511 1026 q 698 889 656 952 q 739 745 739 826 q 691 607 739 667 q 560 523 644 548 l 560 519 q 672 475 625 509 q 746 393 720 442 q 772 283 772 343 q 726 128 772 195 q 602 22 680 60 q 422 -16 523 -16 z "},"4":{"ha":867,"x_min":45,"x_max":821,"o":"m 45 235 l 45 337 l 520 1010 l 595 1010 l 595 868 l 550 868 l 184 348 l 184 345 l 821 345 l 821 235 l 45 235 m 553 0 l 553 266 l 553 313 l 553 1010 l 671 1010 l 671 0 l 553 0 z "},"5":{"ha":806,"x_min":62,"x_max":740,"o":"m 403 -14 q 232 25 307 -14 q 111 132 156 64 q 62 285 65 199 l 184 285 q 219 188 189 231 q 296 121 248 145 q 403 96 343 96 q 516 126 467 96 q 593 209 565 156 q 621 329 621 261 q 593 449 621 397 q 518 532 566 502 q 408 562 471 562 q 275 532 332 562 q 193 448 218 503 l 75 451 l 115 1010 l 686 1010 l 686 901 l 224 901 l 198 581 l 200 581 q 301 649 245 627 q 425 672 357 672 q 552 647 494 672 q 652 576 610 622 q 717 468 694 530 q 740 330 740 405 q 697 152 740 229 q 579 31 655 75 q 403 -14 503 -14 z "},"6":{"ha":822,"x_min":66,"x_max":756,"o":"m 418 -16 q 274 14 338 -16 q 163 104 210 44 q 91 253 116 163 q 66 463 66 343 q 89 696 66 592 q 157 873 111 800 q 272 987 203 947 q 434 1026 341 1026 q 588 992 522 1026 q 696 899 655 959 q 748 758 738 838 l 627 758 q 565 873 612 829 q 440 916 517 916 q 298 867 355 916 q 212 731 241 818 q 184 528 184 644 l 186 528 q 249 597 210 568 q 337 643 288 627 q 439 659 385 659 q 601 615 530 659 q 714 496 673 572 q 756 323 756 420 q 713 149 756 225 q 595 28 671 72 q 418 -16 519 -16 m 418 94 q 529 124 479 94 q 608 208 578 155 q 637 323 637 260 q 609 438 637 387 q 532 519 581 489 q 422 549 483 549 q 336 532 376 549 q 265 483 296 514 q 218 410 235 451 q 201 322 201 369 q 230 208 201 260 q 308 125 258 156 q 418 94 357 94 z "},"7":{"ha":732,"x_min":41,"x_max":690,"o":"m 111 0 l 565 899 l 565 901 l 41 901 l 41 1010 l 690 1010 l 690 894 l 241 0 l 111 0 z "},"8":{"ha":820,"x_min":66,"x_max":754,"o":"m 410 -16 q 232 21 309 -16 q 110 122 154 58 q 66 269 66 186 q 94 391 66 336 q 170 483 122 447 q 279 528 218 519 l 279 528 q 152 606 201 543 q 102 755 102 668 q 142 895 102 833 q 252 991 182 956 q 410 1026 321 1026 q 567 991 498 1026 q 676 895 636 956 q 716 755 716 833 q 667 606 716 669 q 541 528 617 543 l 541 528 q 649 483 601 519 q 726 391 697 446 q 754 269 754 335 q 710 122 754 186 q 588 21 665 58 q 410 -16 511 -16 m 410 94 q 527 116 477 94 q 604 179 576 138 q 631 274 631 220 q 603 375 631 331 q 524 444 574 419 q 410 469 474 469 q 295 444 345 469 q 216 375 244 419 q 187 274 187 331 q 215 179 187 220 q 292 116 242 138 q 410 94 342 94 m 410 574 q 507 595 465 574 q 572 656 549 617 q 596 747 596 696 q 573 837 596 798 q 508 897 550 875 q 410 918 466 918 q 311 897 353 918 q 245 837 269 875 q 222 747 222 798 q 245 657 222 696 q 312 596 269 618 q 410 574 355 574 z "},"9":{"ha":822,"x_min":66,"x_max":756,"o":"m 387 -16 q 231 18 299 -16 q 122 112 163 52 q 70 254 80 173 l 191 254 q 254 138 205 182 q 380 94 302 94 q 522 143 465 94 q 608 280 579 193 q 637 482 637 368 l 634 482 q 572 415 610 443 q 486 372 534 387 q 383 357 437 357 q 221 400 294 357 q 107 518 149 443 q 66 689 66 593 q 109 864 66 787 q 228 984 152 941 q 405 1026 304 1027 q 549 996 484 1026 q 660 906 613 966 q 731 757 706 847 q 756 547 756 667 q 733 315 756 418 q 664 137 710 211 q 549 24 618 63 q 387 -16 479 -16 m 400 466 q 487 484 446 466 q 557 532 527 501 q 605 604 588 563 q 622 691 622 644 q 593 805 622 753 q 514 886 564 856 q 404 917 465 917 q 294 887 343 917 q 215 805 244 857 q 186 689 186 753 q 214 575 186 626 q 291 495 242 525 q 400 466 340 466 z "},"\u0000":{"ha":181,"x_min":0,"x_max":0,"o":""},"A":{"ha":919,"x_min":18,"x_max":901,"o":"m 18 0 l 390 1010 l 531 1010 l 901 0 l 769 0 l 556 607 q 510 745 536 666 q 444 951 484 824 l 477 951 q 411 744 437 823 q 364 607 385 665 l 148 0 l 18 0 m 209 283 l 209 393 l 709 393 l 709 283 l 209 283 z "},"Ä":{"ha":919,"x_min":18,"x_max":901,"o":"m 18 0 l 390 1010 l 531 1010 l 901 0 l 769 0 l 556 607 q 510 745 536 666 q 444 951 484 824 l 477 951 q 411 744 437 823 q 364 607 385 665 l 148 0 l 18 0 m 209 283 l 209 393 l 709 393 l 709 283 l 209 283 m 604 1147 q 547 1170 570 1147 q 524 1225 524 1193 q 547 1282 524 1259 q 604 1305 570 1305 q 659 1282 636 1305 q 682 1225 682 1259 q 659 1170 682 1193 q 604 1147 636 1147 m 319 1147 q 263 1170 287 1147 q 240 1225 240 1193 q 263 1282 240 1259 q 319 1305 287 1305 q 375 1282 352 1305 q 398 1225 398 1259 q 375 1170 398 1193 q 319 1147 352 1147 z "},"Ã":{"ha":919,"x_min":18,"x_max":901,"o":"m 18 0 l 390 1010 l 531 1010 l 901 0 l 769 0 l 556 607 q 510 745 536 666 q 444 951 484 824 l 477 951 q 411 744 437 823 q 364 607 385 665 l 148 0 l 18 0 m 209 283 l 209 393 l 709 393 l 709 283 l 209 283 m 549 1147 q 501 1155 525 1147 q 456 1174 477 1163 q 416 1194 434 1185 q 385 1202 398 1202 q 360 1185 368 1202 q 351 1149 352 1168 l 267 1149 q 295 1249 269 1209 q 374 1288 321 1288 q 422 1279 400 1288 q 465 1259 445 1271 q 502 1239 484 1248 q 537 1231 520 1231 q 563 1244 554 1231 q 574 1285 571 1257 l 656 1285 q 626 1185 654 1223 q 549 1147 599 1147 z "},"À":{"ha":919,"x_min":18,"x_max":901,"o":"m 18 0 l 390 1010 l 531 1010 l 901 0 l 769 0 l 556 607 q 510 745 536 666 q 444 951 484 824 l 477 951 q 411 744 437 823 q 364 607 385 665 l 148 0 l 18 0 m 209 283 l 209 393 l 709 393 l 709 283 l 209 283 m 414 1104 l 284 1305 l 416 1305 l 511 1104 l 414 1104 z "},"Á":{"ha":919,"x_min":18,"x_max":901,"o":"m 18 0 l 390 1010 l 531 1010 l 901 0 l 769 0 l 556 607 q 510 745 536 666 q 444 951 484 824 l 477 951 q 411 744 437 823 q 364 607 385 665 l 148 0 l 18 0 m 209 283 l 209 393 l 709 393 l 709 283 l 209 283 m 410 1104 l 505 1305 l 637 1305 l 507 1104 l 410 1104 z "},"Â":{"ha":919,"x_min":18,"x_max":901,"o":"m 18 0 l 390 1010 l 531 1010 l 901 0 l 769 0 l 556 607 q 510 745 536 666 q 444 951 484 824 l 477 951 q 411 744 437 823 q 364 607 385 665 l 148 0 l 18 0 m 209 283 l 209 393 l 709 393 l 709 283 l 209 283 m 363 1120 l 247 1120 l 247 1121 l 404 1305 l 517 1305 l 675 1121 l 675 1120 l 557 1120 l 460 1238 l 363 1120 z "},"Å":{"ha":919,"x_min":18,"x_max":901,"o":"m 18 0 l 390 1010 l 531 1010 l 901 0 l 769 0 l 556 607 q 510 745 536 666 q 444 951 484 824 l 477 951 q 411 744 437 823 q 364 607 385 665 l 148 0 l 18 0 m 209 283 l 209 393 l 709 393 l 709 283 l 209 283 m 461 1065 q 377 1087 414 1065 q 316 1145 339 1109 q 294 1226 294 1182 q 316 1306 294 1270 q 376 1364 338 1343 q 461 1386 414 1386 q 545 1364 507 1386 q 606 1306 583 1343 q 628 1225 628 1270 q 606 1145 628 1181 q 545 1087 583 1109 q 461 1065 507 1065 m 461 1148 q 516 1171 494 1148 q 539 1226 539 1194 q 516 1281 539 1259 q 461 1303 494 1303 q 406 1281 429 1303 q 383 1226 383 1259 q 406 1171 383 1194 q 461 1148 429 1148 z "},"Ǻ":{"ha":919,"x_min":18,"x_max":901,"o":"m 18 0 l 390 1010 l 531 1010 l 901 0 l 769 0 l 556 607 q 510 745 536 666 q 444 951 484 824 l 477 951 q 411 744 437 823 q 364 607 385 665 l 148 0 l 18 0 m 209 283 l 209 393 l 709 393 l 709 283 l 209 283 m 414 1424 l 513 1546 l 637 1546 l 509 1424 l 414 1424 m 461 1065 q 377 1087 414 1065 q 316 1145 339 1109 q 294 1226 294 1182 q 316 1306 294 1270 q 376 1364 338 1343 q 461 1386 414 1386 q 545 1364 507 1386 q 606 1306 583 1343 q 628 1225 628 1270 q 606 1145 628 1181 q 545 1087 583 1109 q 461 1065 507 1065 m 461 1148 q 516 1171 494 1148 q 539 1226 539 1194 q 516 1281 539 1259 q 461 1303 494 1303 q 406 1281 429 1303 q 383 1226 383 1259 q 406 1171 383 1194 q 461 1148 429 1148 z "},"":{"ha":919,"x_min":18,"x_max":911,"o":"m 18 0 l 390 1010 l 531 1010 l 901 0 l 769 0 l 556 607 q 510 745 536 666 q 444 951 484 824 l 477 951 q 411 744 437 823 q 364 607 385 665 l 148 0 l 18 0 m 209 283 l 209 393 l 709 393 l 709 283 l 209 283 m 461 1065 q 377 1087 414 1065 q 316 1145 339 1109 q 294 1226 294 1182 q 316 1306 294 1270 q 376 1364 338 1343 q 461 1386 414 1386 q 545 1364 507 1386 q 606 1306 583 1343 q 628 1225 628 1270 q 606 1145 628 1181 q 545 1087 583 1109 q 461 1065 507 1065 m 461 1148 q 516 1171 494 1148 q 539 1226 539 1194 q 516 1281 539 1259 q 461 1303 494 1303 q 406 1281 429 1303 q 383 1226 383 1259 q 406 1171 383 1194 q 461 1148 429 1148 m 821 -286 q 719 -254 758 -286 q 680 -158 680 -221 q 710 -62 680 -103 q 788 20 739 -22 l 901 0 q 821 -78 846 -49 q 797 -138 797 -108 q 811 -174 797 -161 q 855 -186 825 -186 q 879 -185 867 -186 q 902 -182 892 -184 l 911 -279 q 868 -284 891 -281 q 821 -286 846 -286 z "},"Ā":{"ha":919,"x_min":18,"x_max":901,"o":"m 18 0 l 390 1010 l 531 1010 l 901 0 l 769 0 l 556 607 q 510 745 536 666 q 444 951 484 824 l 477 951 q 411 744 437 823 q 364 607 385 665 l 148 0 l 18 0 m 209 283 l 209 393 l 709 393 l 709 283 l 209 283 m 648 1257 l 648 1161 l 273 1161 l 273 1257 l 648 1257 z "},"Ă":{"ha":919,"x_min":18,"x_max":901,"o":"m 18 0 l 390 1010 l 531 1010 l 901 0 l 769 0 l 556 607 q 510 745 536 666 q 444 951 484 824 l 477 951 q 411 744 437 823 q 364 607 385 665 l 148 0 l 18 0 m 209 283 l 209 393 l 709 393 l 709 283 l 209 283 m 460 1115 q 362 1140 406 1115 q 293 1209 319 1166 q 267 1305 267 1253 l 354 1305 q 384 1229 354 1259 q 461 1200 414 1200 q 537 1229 507 1200 q 568 1305 568 1259 l 655 1305 q 629 1210 655 1253 q 559 1141 604 1166 q 460 1115 515 1115 z "},"Ą":{"ha":919,"x_min":18,"x_max":911,"o":"m 18 0 l 390 1010 l 531 1010 l 901 0 l 769 0 l 556 607 q 510 745 536 666 q 444 951 484 824 l 477 951 q 411 744 437 823 q 364 607 385 665 l 148 0 l 18 0 m 209 283 l 209 393 l 709 393 l 709 283 l 209 283 m 821 -286 q 719 -254 758 -286 q 680 -158 680 -221 q 710 -62 680 -103 q 788 20 739 -22 l 901 0 q 821 -78 846 -49 q 797 -138 797 -108 q 811 -174 797 -161 q 855 -186 825 -186 q 879 -185 867 -186 q 902 -182 892 -184 l 911 -279 q 868 -284 891 -281 q 821 -286 846 -286 z "},"Ǎ":{"ha":919,"x_min":18,"x_max":901,"o":"m 18 0 l 390 1010 l 531 1010 l 901 0 l 769 0 l 556 607 q 510 745 536 666 q 444 951 484 824 l 477 951 q 411 744 437 823 q 364 607 385 665 l 148 0 l 18 0 m 209 283 l 209 393 l 709 393 l 709 283 l 209 283 m 363 1305 l 460 1186 l 557 1305 l 675 1305 l 675 1303 l 517 1120 l 404 1120 l 247 1303 l 247 1305 l 363 1305 z "},"Ǟ":{"ha":919,"x_min":18,"x_max":901,"o":"m 18 0 l 390 1010 l 531 1010 l 901 0 l 769 0 l 556 607 q 510 745 536 666 q 444 951 484 824 l 477 951 q 411 744 437 823 q 364 607 385 665 l 148 0 l 18 0 m 209 283 l 209 393 l 709 393 l 709 283 l 209 283 m 600 1116 q 543 1139 566 1116 q 520 1195 520 1162 q 543 1251 520 1227 q 600 1274 566 1274 q 655 1251 632 1274 q 678 1195 678 1228 q 655 1139 678 1162 q 600 1116 632 1116 m 315 1116 q 259 1139 283 1116 q 236 1195 236 1162 q 259 1251 236 1227 q 315 1274 283 1274 q 371 1251 348 1274 q 394 1195 394 1228 q 371 1139 394 1162 q 315 1116 348 1116 m 648 1443 l 648 1357 l 273 1357 l 273 1443 l 648 1443 z "},"Ǡ":{"ha":919,"x_min":18,"x_max":901,"o":"m 18 0 l 390 1010 l 531 1010 l 901 0 l 769 0 l 556 607 q 510 745 536 666 q 444 951 484 824 l 477 951 q 411 744 437 823 q 364 607 385 665 l 148 0 l 18 0 m 209 283 l 209 393 l 709 393 l 709 283 l 209 283 m 461 1116 q 405 1139 428 1116 q 381 1195 381 1162 q 405 1251 381 1228 q 460 1274 428 1274 q 518 1251 494 1274 q 541 1195 541 1228 q 518 1139 541 1162 q 461 1116 494 1116 m 648 1443 l 648 1357 l 273 1357 l 273 1443 l 648 1443 z "},"Ȁ":{"ha":919,"x_min":18,"x_max":901,"o":"m 18 0 l 390 1010 l 531 1010 l 901 0 l 769 0 l 556 607 q 510 745 536 666 q 444 951 484 824 l 477 951 q 411 744 437 823 q 364 607 385 665 l 148 0 l 18 0 m 209 283 l 209 393 l 709 393 l 709 283 l 209 283 m 514 1104 l 398 1305 l 530 1305 l 611 1104 l 514 1104 m 312 1104 l 165 1305 l 297 1305 l 411 1104 l 312 1104 z "},"Ȃ":{"ha":919,"x_min":18,"x_max":901,"o":"m 18 0 l 390 1010 l 531 1010 l 901 0 l 769 0 l 556 607 q 510 745 536 666 q 444 951 484 824 l 477 951 q 411 744 437 823 q 364 607 385 665 l 148 0 l 18 0 m 209 283 l 209 393 l 709 393 l 709 283 l 209 283 m 460 1308 q 563 1283 519 1308 q 632 1215 607 1258 q 657 1120 657 1173 l 570 1120 q 538 1194 570 1165 q 460 1223 507 1223 q 383 1194 414 1223 q 352 1120 352 1165 l 264 1120 q 290 1215 264 1173 q 359 1283 315 1258 q 460 1308 404 1308 z "},"Ȧ":{"ha":919,"x_min":18,"x_max":901,"o":"m 18 0 l 390 1010 l 531 1010 l 901 0 l 769 0 l 556 607 q 510 745 536 666 q 444 951 484 824 l 477 951 q 411 744 437 823 q 364 607 385 665 l 148 0 l 18 0 m 209 283 l 209 393 l 709 393 l 709 283 l 209 283 m 461 1147 q 405 1170 428 1147 q 381 1225 381 1193 q 405 1282 381 1259 q 460 1305 428 1305 q 518 1282 494 1305 q 541 1225 541 1259 q 518 1170 541 1193 q 461 1147 494 1147 z "},"Ḁ":{"ha":919,"x_min":18,"x_max":901,"o":"m 18 0 l 390 1010 l 531 1010 l 901 0 l 769 0 l 556 607 q 510 745 536 666 q 444 951 484 824 l 477 951 q 411 744 437 823 q 364 607 385 665 l 148 0 l 18 0 m 209 283 l 209 393 l 709 393 l 709 283 l 209 283 m 461 -372 q 377 -351 415 -372 q 318 -294 340 -330 q 296 -215 296 -258 q 318 -137 296 -172 q 377 -80 340 -101 q 461 -59 415 -59 q 544 -80 507 -59 q 604 -137 582 -101 q 626 -215 626 -172 q 604 -294 626 -258 q 544 -351 582 -330 q 461 -372 507 -372 m 460 -292 q 515 -269 493 -292 q 538 -215 538 -247 q 515 -161 538 -184 q 460 -139 493 -139 q 407 -161 429 -139 q 384 -215 384 -184 q 407 -269 384 -247 q 460 -292 429 -292 z "},"Ạ":{"ha":919,"x_min":18,"x_max":901,"o":"m 18 0 l 390 1010 l 531 1010 l 901 0 l 769 0 l 556 607 q 510 745 536 666 q 444 951 484 824 l 477 951 q 411 744 437 823 q 364 607 385 665 l 148 0 l 18 0 m 209 283 l 209 393 l 709 393 l 709 283 l 209 283 m 461 -294 q 405 -271 428 -294 q 381 -216 381 -248 q 405 -159 381 -182 q 460 -136 428 -136 q 518 -159 494 -136 q 541 -216 541 -182 q 518 -271 541 -248 q 461 -294 494 -294 z "},"Ả":{"ha":919,"x_min":18,"x_max":901,"o":"m 18 0 l 390 1010 l 531 1010 l 901 0 l 769 0 l 556 607 q 510 745 536 666 q 444 951 484 824 l 477 951 q 411 744 437 823 q 364 607 385 665 l 148 0 l 18 0 m 209 283 l 209 393 l 709 393 l 709 283 l 209 283 m 503 1104 l 412 1104 l 461 1200 q 465 1220 469 1213 q 446 1227 461 1227 l 353 1227 l 353 1305 l 446 1305 q 513 1295 486 1305 q 552 1265 540 1284 q 562 1220 564 1246 q 541 1166 559 1195 l 503 1104 z "},"Ấ":{"ha":919,"x_min":18,"x_max":901,"o":"m 18 0 l 390 1010 l 531 1010 l 901 0 l 769 0 l 556 607 q 510 745 536 666 q 444 951 484 824 l 477 951 q 411 744 437 823 q 364 607 385 665 l 148 0 l 18 0 m 209 283 l 209 393 l 709 393 l 709 283 l 209 283 m 364 1101 l 248 1101 l 248 1103 l 405 1288 l 518 1288 l 676 1103 l 676 1101 l 558 1101 l 462 1221 l 364 1101 m 550 1314 l 645 1500 l 777 1500 l 647 1314 l 550 1314 z "},"Ầ":{"ha":919,"x_min":18,"x_max":901,"o":"m 18 0 l 390 1010 l 531 1010 l 901 0 l 769 0 l 556 607 q 510 745 536 666 q 444 951 484 824 l 477 951 q 411 744 437 823 q 364 607 385 665 l 148 0 l 18 0 m 209 283 l 209 393 l 709 393 l 709 283 l 209 283 m 364 1101 l 248 1101 l 248 1103 l 405 1288 l 518 1288 l 676 1103 l 676 1101 l 558 1101 l 462 1221 l 364 1101 m 589 1314 l 459 1500 l 591 1500 l 686 1314 l 589 1314 z "},"Ẩ":{"ha":919,"x_min":18,"x_max":901,"o":"m 18 0 l 390 1010 l 531 1010 l 901 0 l 769 0 l 556 607 q 510 745 536 666 q 444 951 484 824 l 477 951 q 411 744 437 823 q 364 607 385 665 l 148 0 l 18 0 m 209 283 l 209 393 l 709 393 l 709 283 l 209 283 m 364 1101 l 248 1101 l 248 1103 l 405 1288 l 518 1288 l 676 1103 l 676 1101 l 558 1101 l 462 1221 l 364 1101 m 640 1314 l 549 1314 l 592 1394 q 595 1415 600 1408 q 576 1422 591 1422 l 483 1422 l 483 1500 l 576 1500 q 661 1481 631 1500 q 694 1431 690 1463 q 671 1360 697 1399 l 640 1314 z "},"Ẫ":{"ha":919,"x_min":18,"x_max":901,"o":"m 18 0 l 390 1010 l 531 1010 l 901 0 l 769 0 l 556 607 q 510 745 536 666 q 444 951 484 824 l 477 951 q 411 744 437 823 q 364 607 385 665 l 148 0 l 18 0 m 209 283 l 209 393 l 709 393 l 709 283 l 209 283 m 364 1101 l 248 1101 l 248 1103 l 405 1288 l 518 1288 l 676 1103 l 676 1101 l 558 1101 l 462 1221 l 364 1101 m 550 1339 q 502 1348 526 1339 q 456 1367 477 1356 q 417 1387 435 1378 q 386 1395 399 1395 q 360 1378 369 1395 q 351 1341 352 1361 l 267 1341 q 295 1441 269 1402 q 374 1480 321 1480 q 423 1472 401 1480 q 465 1452 446 1463 q 503 1432 485 1440 q 538 1423 521 1423 q 563 1436 555 1423 q 575 1478 572 1449 l 656 1478 q 627 1377 654 1415 q 550 1339 599 1339 z "},"Ậ":{"ha":919,"x_min":18,"x_max":901,"o":"m 18 0 l 390 1010 l 531 1010 l 901 0 l 769 0 l 556 607 q 510 745 536 666 q 444 951 484 824 l 477 951 q 411 744 437 823 q 364 607 385 665 l 148 0 l 18 0 m 209 283 l 209 393 l 709 393 l 709 283 l 209 283 m 363 1120 l 247 1120 l 247 1121 l 404 1305 l 517 1305 l 675 1121 l 675 1120 l 557 1120 l 460 1238 l 363 1120 m 461 -294 q 405 -271 428 -294 q 381 -216 381 -248 q 405 -159 381 -182 q 460 -136 428 -136 q 518 -159 494 -136 q 541 -216 541 -182 q 518 -271 541 -248 q 461 -294 494 -294 z "},"Ắ":{"ha":919,"x_min":18,"x_max":901,"o":"m 18 0 l 390 1010 l 531 1010 l 901 0 l 769 0 l 556 607 q 510 745 536 666 q 444 951 484 824 l 477 951 q 411 744 437 823 q 364 607 385 665 l 148 0 l 18 0 m 209 283 l 209 393 l 709 393 l 709 283 l 209 283 m 461 1097 q 363 1123 407 1097 q 293 1192 319 1148 q 267 1288 267 1235 l 355 1288 q 385 1212 355 1241 q 462 1182 415 1182 q 538 1212 508 1182 q 568 1288 568 1241 l 656 1288 q 630 1191 656 1234 q 560 1123 604 1148 q 461 1097 516 1097 m 409 1314 l 504 1499 l 637 1499 l 506 1314 l 409 1314 z "},"Ằ":{"ha":919,"x_min":18,"x_max":901,"o":"m 18 0 l 390 1010 l 531 1010 l 901 0 l 769 0 l 556 607 q 510 745 536 666 q 444 951 484 824 l 477 951 q 411 744 437 823 q 364 607 385 665 l 148 0 l 18 0 m 209 283 l 209 393 l 709 393 l 709 283 l 209 283 m 460 1097 q 361 1123 406 1097 q 292 1191 317 1148 q 266 1288 266 1234 l 353 1288 q 384 1212 353 1241 q 460 1182 414 1182 q 537 1212 507 1182 q 567 1288 567 1241 l 654 1288 q 628 1191 654 1234 q 558 1123 602 1148 q 460 1097 515 1097 m 513 1314 l 416 1314 l 285 1499 l 418 1499 l 513 1314 z "},"Ẳ":{"ha":919,"x_min":18,"x_max":901,"o":"m 18 0 l 390 1010 l 531 1010 l 901 0 l 769 0 l 556 607 q 510 745 536 666 q 444 951 484 824 l 477 951 q 411 744 437 823 q 364 607 385 665 l 148 0 l 18 0 m 209 283 l 209 393 l 709 393 l 709 283 l 209 283 m 461 1097 q 363 1123 407 1097 q 293 1192 319 1148 q 267 1288 267 1235 l 355 1288 q 385 1212 355 1241 q 462 1182 415 1182 q 538 1212 508 1182 q 568 1288 568 1241 l 656 1288 q 630 1191 656 1234 q 560 1123 604 1148 q 461 1097 516 1097 m 507 1314 l 417 1314 l 459 1394 q 463 1415 467 1408 q 444 1422 459 1422 l 351 1422 l 351 1500 l 444 1500 q 528 1481 498 1500 q 561 1431 557 1463 q 538 1360 565 1399 l 507 1314 z "},"Ẵ":{"ha":919,"x_min":18,"x_max":901,"o":"m 18 0 l 390 1010 l 531 1010 l 901 0 l 769 0 l 556 607 q 510 745 536 666 q 444 951 484 824 l 477 951 q 411 744 437 823 q 364 607 385 665 l 148 0 l 18 0 m 209 283 l 209 393 l 709 393 l 709 283 l 209 283 m 460 1098 q 362 1123 406 1098 q 293 1192 319 1149 q 267 1288 267 1235 l 354 1288 q 384 1212 354 1241 q 460 1182 414 1182 q 537 1212 507 1182 q 567 1288 567 1241 l 654 1288 q 628 1192 654 1235 q 558 1123 602 1149 q 460 1098 515 1098 m 552 1339 q 504 1348 528 1339 q 458 1367 480 1356 q 419 1386 437 1378 q 388 1394 401 1394 q 362 1377 371 1394 q 353 1341 354 1360 l 269 1341 q 297 1441 271 1402 q 376 1480 323 1480 q 425 1472 403 1480 q 467 1452 448 1463 q 505 1432 487 1440 q 540 1423 523 1423 q 565 1436 557 1423 q 577 1478 574 1449 l 659 1478 q 629 1377 656 1415 q 552 1339 602 1339 z "},"Ặ":{"ha":919,"x_min":18,"x_max":901,"o":"m 18 0 l 390 1010 l 531 1010 l 901 0 l 769 0 l 556 607 q 510 745 536 666 q 444 951 484 824 l 477 951 q 411 744 437 823 q 364 607 385 665 l 148 0 l 18 0 m 209 283 l 209 393 l 709 393 l 709 283 l 209 283 m 460 1115 q 362 1140 406 1115 q 293 1209 319 1166 q 267 1305 267 1253 l 354 1305 q 384 1229 354 1259 q 461 1200 414 1200 q 537 1229 507 1200 q 568 1305 568 1259 l 655 1305 q 629 1210 655 1253 q 559 1141 604 1166 q 460 1115 515 1115 m 461 -294 q 405 -271 428 -294 q 381 -216 381 -248 q 405 -159 381 -182 q 460 -136 428 -136 q 518 -159 494 -136 q 541 -216 541 -182 q 518 -271 541 -248 q 461 -294 494 -294 z "},"Α":{"ha":919,"x_min":18,"x_max":901,"o":"m 18 0 l 390 1010 l 531 1010 l 901 0 l 769 0 l 556 607 q 510 745 536 666 q 444 951 484 824 l 477 951 q 411 744 437 823 q 364 607 385 665 l 148 0 l 18 0 m 209 283 l 209 393 l 709 393 l 709 283 l 209 283 z "},"Ά":{"ha":919,"x_min":18,"x_max":901,"o":"m 18 0 l 390 1010 l 531 1010 l 901 0 l 769 0 l 556 607 q 510 745 536 666 q 444 951 484 824 l 477 951 q 411 744 437 823 q 364 607 385 665 l 148 0 l 18 0 m 209 283 l 209 393 l 709 393 l 709 283 l 209 283 m 116 809 l 142 1010 l 260 1010 l 198 809 l 116 809 z "},"Ἀ":{"ha":941,"x_min":41,"x_max":923,"o":"m 41 0 l 413 1010 l 554 1010 l 924 0 l 792 0 l 579 607 q 533 745 559 666 q 467 951 507 824 l 500 951 q 434 744 460 823 q 387 607 408 665 l 171 0 l 41 0 m 232 283 l 232 393 l 732 393 l 732 283 l 232 283 m 121 810 l 114 810 l 114 863 l 121 863 q 173 874 155 863 q 191 907 191 886 q 173 936 191 926 q 121 945 155 945 l 100 945 l 100 1022 l 121 1022 q 240 995 197 1022 q 282 918 282 967 q 240 840 282 869 q 121 810 197 810 z "},"Ἁ":{"ha":941,"x_min":41,"x_max":923,"o":"m 41 0 l 413 1010 l 554 1010 l 924 0 l 792 0 l 579 607 q 533 745 559 666 q 467 951 507 824 l 500 951 q 434 744 460 823 q 387 607 408 665 l 171 0 l 41 0 m 232 283 l 232 393 l 732 393 l 732 283 l 232 283 m 247 801 q 129 831 172 801 q 86 909 86 861 q 129 986 86 958 q 247 1013 172 1013 l 268 1013 l 268 937 l 247 937 q 196 927 214 937 q 178 899 178 917 q 196 865 178 877 q 247 854 214 854 l 254 854 l 254 801 l 247 801 z "},"Ἂ":{"ha":1067,"x_min":41,"x_max":1048,"o":"m 167 0 l 538 1010 l 680 1010 l 1049 0 l 918 0 l 705 607 q 658 745 684 666 q 592 951 632 824 l 625 951 q 560 744 586 823 q 513 607 534 665 l 296 0 l 167 0 m 357 283 l 357 393 l 858 393 l 858 283 l 357 283 m 62 801 l 55 801 l 55 854 l 62 854 q 114 865 96 854 q 132 899 132 877 q 114 927 132 917 q 62 937 96 937 l 41 937 l 41 1013 l 62 1013 q 181 986 138 1013 q 223 909 223 958 q 181 831 223 861 q 62 801 138 801 m 387 803 l 306 803 l 245 1010 l 361 1010 l 387 803 z "},"Ἃ":{"ha":1074,"x_min":41,"x_max":1056,"o":"m 174 0 l 545 1010 l 686 1010 l 1056 0 l 924 0 l 711 607 q 665 745 691 666 q 599 951 639 824 l 632 951 q 567 744 593 823 q 519 607 541 665 l 303 0 l 174 0 m 364 283 l 364 393 l 865 393 l 865 283 l 364 283 m 202 801 q 84 831 127 801 q 41 909 41 861 q 84 986 41 958 q 202 1013 127 1013 l 223 1013 l 223 937 l 202 937 q 151 927 169 937 q 133 899 133 917 q 151 865 133 877 q 202 854 169 854 l 210 854 l 210 801 l 202 801 m 406 803 l 326 803 l 264 1010 l 380 1010 l 406 803 z "},"Ἄ":{"ha":1076,"x_min":41,"x_max":1057,"o":"m 175 0 l 547 1010 l 688 1010 l 1057 0 l 926 0 l 713 607 q 666 745 692 666 q 600 951 640 824 l 633 951 q 568 744 594 823 q 521 607 542 665 l 304 0 l 175 0 m 366 283 l 366 393 l 866 393 l 866 283 l 366 283 m 62 801 l 55 801 l 55 854 l 62 854 q 114 865 96 854 q 132 899 132 877 q 114 927 132 917 q 62 937 96 937 l 41 937 l 41 1013 l 62 1013 q 181 986 138 1013 q 223 909 223 958 q 181 831 223 861 q 62 801 138 801 m 285 803 l 311 1010 l 427 1010 l 366 803 l 285 803 z "},"Ἅ":{"ha":1081,"x_min":41,"x_max":1063,"o":"m 180 0 l 552 1010 l 693 1010 l 1063 0 l 931 0 l 718 607 q 672 745 698 666 q 606 951 646 824 l 639 951 q 573 744 600 823 q 526 607 547 665 l 310 0 l 180 0 m 371 283 l 371 393 l 871 393 l 871 283 l 371 283 m 202 801 q 84 831 127 801 q 41 909 41 861 q 84 986 41 958 q 202 1013 127 1013 l 223 1013 l 223 937 l 202 937 q 151 927 169 937 q 133 899 133 917 q 151 865 133 877 q 202 854 169 854 l 210 854 l 210 801 l 202 801 m 284 803 l 309 1010 l 425 1010 l 365 803 l 284 803 z "},"Ἆ":{"ha":993,"x_min":41,"x_max":975,"o":"m 93 0 l 465 1010 l 606 1010 l 975 0 l 844 0 l 631 607 q 584 745 610 666 q 518 951 558 824 l 551 951 q 486 744 512 823 q 439 607 460 665 l 222 0 l 93 0 m 283 283 l 283 393 l 784 393 l 784 283 l 283 283 m 166 806 l 159 806 l 159 859 l 166 859 q 217 871 199 859 q 235 903 235 882 q 217 932 235 922 q 166 942 199 942 l 145 942 l 145 1019 l 166 1019 q 284 991 242 1019 q 327 915 327 964 q 284 836 327 866 q 166 806 242 806 m 324 1071 q 276 1079 300 1071 q 231 1098 252 1087 q 191 1118 209 1109 q 161 1126 173 1126 q 135 1109 143 1126 q 125 1073 127 1092 l 41 1073 q 70 1173 43 1133 q 149 1212 96 1212 q 197 1203 175 1212 q 239 1183 220 1195 q 277 1163 259 1172 q 312 1155 295 1155 q 337 1167 329 1155 q 349 1209 346 1180 l 431 1209 q 401 1109 429 1147 q 324 1071 374 1071 z "},"Ἇ":{"ha":1002,"x_min":41,"x_max":983,"o":"m 101 0 l 473 1010 l 614 1010 l 983 0 l 852 0 l 639 607 q 592 745 618 666 q 526 951 566 824 l 559 951 q 494 744 520 823 q 447 607 468 665 l 231 0 l 101 0 m 292 283 l 292 393 l 792 393 l 792 283 l 292 283 m 306 800 q 188 829 231 800 q 145 908 145 859 q 188 984 145 957 q 306 1012 231 1012 l 327 1012 l 327 935 l 306 935 q 255 925 273 935 q 237 897 237 916 q 255 864 237 876 q 306 852 273 852 l 313 852 l 313 800 l 306 800 m 324 1064 q 276 1072 300 1064 q 231 1092 252 1080 q 191 1111 209 1103 q 161 1119 173 1119 q 135 1102 143 1119 q 125 1066 127 1085 l 41 1066 q 70 1166 43 1126 q 149 1205 96 1205 q 197 1197 175 1205 q 239 1177 220 1188 q 277 1157 259 1165 q 312 1148 295 1148 q 337 1161 329 1148 q 349 1202 346 1173 l 431 1202 q 401 1102 429 1140 q 324 1064 374 1064 z "},"Ᾰ":{"ha":919,"x_min":18,"x_max":901,"o":"m 18 0 l 390 1010 l 531 1010 l 901 0 l 769 0 l 556 607 q 510 745 536 666 q 444 951 484 824 l 477 951 q 411 744 437 823 q 364 607 385 665 l 148 0 l 18 0 m 209 283 l 209 393 l 709 393 l 709 283 l 209 283 m 460 1115 q 362 1140 406 1115 q 293 1209 319 1166 q 267 1305 267 1253 l 354 1305 q 384 1229 354 1259 q 461 1200 414 1200 q 537 1229 507 1200 q 568 1305 568 1259 l 655 1305 q 629 1210 655 1253 q 559 1141 604 1166 q 460 1115 515 1115 z "},"Ᾱ":{"ha":919,"x_min":18,"x_max":901,"o":"m 18 0 l 390 1010 l 531 1010 l 901 0 l 769 0 l 556 607 q 510 745 536 666 q 444 951 484 824 l 477 951 q 411 744 437 823 q 364 607 385 665 l 148 0 l 18 0 m 209 283 l 209 393 l 709 393 l 709 283 l 209 283 m 648 1257 l 648 1161 l 273 1161 l 273 1257 l 648 1257 z "},"Ὰ":{"ha":919,"x_min":9,"x_max":901,"o":"m 18 0 l 390 1010 l 531 1010 l 901 0 l 769 0 l 556 607 q 510 745 536 666 q 444 951 484 824 l 477 951 q 411 744 437 823 q 364 607 385 665 l 148 0 l 18 0 m 209 283 l 209 393 l 709 393 l 709 283 l 209 283 m 154 819 l 72 819 l 9 1021 l 128 1021 l 154 819 z "},"Ⱥ":{"ha":919,"x_min":18,"x_max":901,"o":"m 759 1138 l 309 -129 l 196 -129 l 646 1138 l 759 1138 m 18 0 l 390 1010 l 531 1010 l 901 0 l 769 0 l 556 607 q 510 745 536 666 q 444 951 484 824 l 477 951 q 411 744 437 823 q 364 607 385 665 l 148 0 l 18 0 m 209 283 l 209 393 l 709 393 l 709 283 l 209 283 z "},"Ά":{"ha":941,"x_min":41,"x_max":923,"o":"m 41 0 l 413 1010 l 554 1010 l 924 0 l 792 0 l 579 607 q 533 745 559 666 q 467 951 507 824 l 500 951 q 434 744 460 823 q 387 607 408 665 l 171 0 l 41 0 m 232 283 l 232 393 l 732 393 l 732 283 l 232 283 m 139 809 l 165 1010 l 283 1010 l 221 809 l 139 809 z "},"А":{"ha":919,"x_min":18,"x_max":901,"o":"m 18 0 l 390 1010 l 531 1010 l 901 0 l 769 0 l 556 607 q 510 745 536 666 q 444 951 484 824 l 477 951 q 411 744 437 823 q 364 607 385 665 l 148 0 l 18 0 m 209 283 l 209 393 l 709 393 l 709 283 l 209 283 z "},"Ӑ":{"ha":919,"x_min":18,"x_max":901,"o":"m 18 0 l 390 1010 l 531 1010 l 901 0 l 769 0 l 556 607 q 510 745 536 666 q 444 951 484 824 l 477 951 q 411 744 437 823 q 364 607 385 665 l 148 0 l 18 0 m 209 283 l 209 393 l 709 393 l 709 283 l 209 283 m 460 1115 q 362 1140 406 1115 q 293 1209 319 1166 q 267 1305 267 1253 l 354 1305 q 384 1229 354 1259 q 461 1200 414 1200 q 537 1229 507 1200 q 568 1305 568 1259 l 655 1305 q 629 1210 655 1253 q 559 1141 604 1166 q 460 1115 515 1115 z "},"Ӓ":{"ha":919,"x_min":18,"x_max":901,"o":"m 18 0 l 390 1010 l 531 1010 l 901 0 l 769 0 l 556 607 q 510 745 536 666 q 444 951 484 824 l 477 951 q 411 744 437 823 q 364 607 385 665 l 148 0 l 18 0 m 209 283 l 209 393 l 709 393 l 709 283 l 209 283 m 604 1147 q 547 1170 570 1147 q 524 1225 524 1193 q 547 1282 524 1259 q 604 1305 570 1305 q 659 1282 636 1305 q 682 1225 682 1259 q 659 1170 682 1193 q 604 1147 636 1147 m 319 1147 q 263 1170 287 1147 q 240 1225 240 1193 q 263 1282 240 1259 q 319 1305 287 1305 q 375 1282 352 1305 q 398 1225 398 1259 q 375 1170 398 1193 q 319 1147 352 1147 z "},"ᾈ":{"ha":941,"x_min":41,"x_max":923,"o":"m 41 0 l 413 1010 l 554 1010 l 924 0 l 792 0 l 579 607 q 533 745 559 666 q 467 951 507 824 l 500 951 q 434 744 460 823 q 387 607 408 665 l 171 0 l 41 0 m 232 283 l 232 393 l 732 393 l 732 283 l 232 283 m 553 -335 q 463 -300 497 -335 q 429 -209 429 -266 l 429 -80 l 538 -80 l 538 -199 q 547 -236 538 -225 q 577 -248 556 -248 q 594 -248 586 -248 q 611 -247 602 -248 l 611 -333 q 582 -335 597 -334 q 553 -335 568 -335 m 121 810 l 114 810 l 114 863 l 121 863 q 173 874 155 863 q 191 907 191 886 q 173 936 191 926 q 121 945 155 945 l 100 945 l 100 1022 l 121 1022 q 240 995 197 1022 q 282 918 282 967 q 240 840 282 869 q 121 810 197 810 z "},"ᾉ":{"ha":941,"x_min":41,"x_max":923,"o":"m 41 0 l 413 1010 l 554 1010 l 924 0 l 792 0 l 579 607 q 533 745 559 666 q 467 951 507 824 l 500 951 q 434 744 460 823 q 387 607 408 665 l 171 0 l 41 0 m 232 283 l 232 393 l 732 393 l 732 283 l 232 283 m 553 -335 q 463 -300 497 -335 q 429 -209 429 -266 l 429 -80 l 538 -80 l 538 -199 q 547 -236 538 -225 q 577 -248 556 -248 q 594 -248 586 -248 q 611 -247 602 -248 l 611 -333 q 582 -335 597 -334 q 553 -335 568 -335 m 247 801 q 129 831 172 801 q 86 909 86 861 q 129 986 86 958 q 247 1013 172 1013 l 268 1013 l 268 937 l 247 937 q 196 927 214 937 q 178 899 178 917 q 196 865 178 877 q 247 854 214 854 l 254 854 l 254 801 l 247 801 z "},"ᾊ":{"ha":1067,"x_min":41,"x_max":1048,"o":"m 167 0 l 538 1010 l 680 1010 l 1049 0 l 918 0 l 705 607 q 658 745 684 666 q 592 951 632 824 l 625 951 q 560 744 586 823 q 513 607 534 665 l 296 0 l 167 0 m 357 283 l 357 393 l 858 393 l 858 283 l 357 283 m 678 -335 q 588 -300 623 -335 q 554 -209 554 -266 l 554 -80 l 663 -80 l 663 -199 q 672 -236 663 -225 q 703 -248 682 -248 q 720 -248 711 -248 q 736 -247 728 -248 l 736 -333 q 708 -335 722 -334 q 678 -335 693 -335 m 62 801 l 55 801 l 55 854 l 62 854 q 114 865 96 854 q 132 899 132 877 q 114 927 132 917 q 62 937 96 937 l 41 937 l 41 1013 l 62 1013 q 181 986 138 1013 q 223 909 223 958 q 181 831 223 861 q 62 801 138 801 m 387 803 l 306 803 l 245 1010 l 361 1010 l 387 803 z "},"ᾋ":{"ha":1074,"x_min":41,"x_max":1056,"o":"m 174 0 l 545 1010 l 686 1010 l 1056 0 l 924 0 l 711 607 q 665 745 691 666 q 599 951 639 824 l 632 951 q 567 744 593 823 q 519 607 541 665 l 303 0 l 174 0 m 364 283 l 364 393 l 865 393 l 865 283 l 364 283 m 686 -335 q 596 -300 630 -335 q 562 -209 562 -266 l 562 -80 l 671 -80 l 671 -199 q 680 -236 671 -225 q 710 -248 689 -248 q 727 -248 719 -248 q 744 -247 735 -248 l 744 -333 q 715 -335 730 -334 q 686 -335 701 -335 m 202 801 q 84 831 127 801 q 41 909 41 861 q 84 986 41 958 q 202 1013 127 1013 l 223 1013 l 223 937 l 202 937 q 151 927 169 937 q 133 899 133 917 q 151 865 133 877 q 202 854 169 854 l 210 854 l 210 801 l 202 801 m 406 803 l 326 803 l 264 1010 l 380 1010 l 406 803 z "},"ᾌ":{"ha":1076,"x_min":41,"x_max":1057,"o":"m 175 0 l 547 1010 l 688 1010 l 1057 0 l 926 0 l 713 607 q 666 745 692 666 q 600 951 640 824 l 633 951 q 568 744 594 823 q 521 607 542 665 l 304 0 l 175 0 m 366 283 l 366 393 l 866 393 l 866 283 l 366 283 m 62 801 l 55 801 l 55 854 l 62 854 q 114 865 96 854 q 132 899 132 877 q 114 927 132 917 q 62 937 96 937 l 41 937 l 41 1013 l 62 1013 q 181 986 138 1013 q 223 909 223 958 q 181 831 223 861 q 62 801 138 801 m 285 803 l 311 1010 l 427 1010 l 366 803 l 285 803 m 686 -335 q 596 -300 631 -335 q 562 -209 562 -266 l 562 -80 l 671 -80 l 671 -199 q 681 -236 671 -225 q 711 -248 690 -248 q 728 -248 720 -248 q 745 -247 736 -248 l 745 -333 q 716 -335 730 -334 q 686 -335 701 -335 z "},"ᾍ":{"ha":1081,"x_min":41,"x_max":1063,"o":"m 180 0 l 552 1010 l 693 1010 l 1063 0 l 931 0 l 718 607 q 672 745 698 666 q 606 951 646 824 l 639 951 q 573 744 600 823 q 526 607 547 665 l 310 0 l 180 0 m 371 283 l 371 393 l 871 393 l 871 283 l 371 283 m 692 -335 q 602 -300 636 -335 q 568 -209 568 -266 l 568 -80 l 677 -80 l 677 -199 q 686 -236 677 -225 q 716 -248 695 -248 q 733 -248 725 -248 q 750 -247 741 -248 l 750 -333 q 721 -335 736 -334 q 692 -335 707 -335 m 202 801 q 84 831 127 801 q 41 909 41 861 q 84 986 41 958 q 202 1013 127 1013 l 223 1013 l 223 937 l 202 937 q 151 927 169 937 q 133 899 133 917 q 151 865 133 877 q 202 854 169 854 l 210 854 l 210 801 l 202 801 m 284 803 l 309 1010 l 425 1010 l 365 803 l 284 803 z "},"ᾎ":{"ha":993,"x_min":41,"x_max":975,"o":"m 93 0 l 465 1010 l 606 1010 l 975 0 l 844 0 l 631 607 q 584 745 610 666 q 518 951 558 824 l 551 951 q 486 744 512 823 q 439 607 460 665 l 222 0 l 93 0 m 283 283 l 283 393 l 784 393 l 784 283 l 283 283 m 166 806 l 159 806 l 159 859 l 166 859 q 217 871 199 859 q 235 903 235 882 q 217 932 235 922 q 166 942 199 942 l 145 942 l 145 1019 l 166 1019 q 284 991 242 1019 q 327 915 327 964 q 284 836 327 866 q 166 806 242 806 m 324 1071 q 276 1079 300 1071 q 231 1098 252 1087 q 191 1118 209 1109 q 161 1126 173 1126 q 135 1109 143 1126 q 125 1073 127 1092 l 41 1073 q 70 1173 43 1133 q 149 1212 96 1212 q 197 1203 175 1212 q 239 1183 220 1195 q 277 1163 259 1172 q 312 1155 295 1155 q 337 1167 329 1155 q 349 1209 346 1180 l 431 1209 q 401 1109 429 1147 q 324 1071 374 1071 m 604 -335 q 514 -300 549 -335 q 480 -209 480 -266 l 480 -80 l 589 -80 l 589 -199 q 598 -236 589 -225 q 629 -248 608 -248 q 646 -248 637 -248 q 663 -247 654 -248 l 663 -333 q 634 -335 648 -334 q 604 -335 619 -335 z "},"ᾏ":{"ha":1002,"x_min":41,"x_max":983,"o":"m 101 0 l 473 1010 l 614 1010 l 983 0 l 852 0 l 639 607 q 592 745 618 666 q 526 951 566 824 l 559 951 q 494 744 520 823 q 447 607 468 665 l 231 0 l 101 0 m 292 283 l 292 393 l 792 393 l 792 283 l 292 283 m 612 -335 q 523 -300 557 -335 q 488 -209 488 -266 l 488 -80 l 597 -80 l 597 -199 q 607 -236 597 -225 q 637 -248 616 -248 q 654 -248 646 -248 q 671 -247 662 -248 l 671 -333 q 642 -335 656 -334 q 612 -335 627 -335 m 306 800 q 188 829 231 800 q 145 908 145 859 q 188 984 145 957 q 306 1012 231 1012 l 327 1012 l 327 935 l 306 935 q 255 925 273 935 q 237 897 237 916 q 255 864 237 876 q 306 852 273 852 l 313 852 l 313 800 l 306 800 m 324 1064 q 276 1072 300 1064 q 231 1092 252 1080 q 191 1111 209 1103 q 161 1119 173 1119 q 135 1102 143 1119 q 125 1066 127 1085 l 41 1066 q 70 1166 43 1126 q 149 1205 96 1205 q 197 1197 175 1205 q 239 1177 220 1188 q 277 1157 259 1165 q 312 1148 295 1148 q 337 1161 329 1148 q 349 1202 346 1173 l 431 1202 q 401 1102 429 1140 q 324 1064 374 1064 z "},"ᾼ":{"ha":919,"x_min":18,"x_max":901,"o":"m 18 0 l 390 1010 l 531 1010 l 901 0 l 769 0 l 556 607 q 510 745 536 666 q 444 951 484 824 l 477 951 q 411 744 437 823 q 364 607 385 665 l 148 0 l 18 0 m 209 283 l 209 393 l 709 393 l 709 283 l 209 283 m 530 -335 q 440 -300 474 -335 q 406 -209 406 -266 l 406 -80 l 515 -80 l 515 -199 q 524 -236 515 -225 q 554 -248 533 -248 q 571 -248 563 -248 q 588 -247 579 -248 l 588 -333 q 559 -335 574 -334 q 530 -335 545 -335 z "},"Λ":{"ha":919,"x_min":18,"x_max":901,"o":"m 18 0 l 390 1010 l 531 1010 l 901 0 l 769 0 l 556 607 q 510 745 536 666 q 444 951 484 824 l 477 951 q 411 744 437 823 q 364 607 385 665 l 148 0 l 18 0 z "},"Æ":{"ha":1352,"x_min":18,"x_max":1295,"o":"m 18 0 l 482 1010 l 1293 1010 l 1293 901 l 769 901 l 769 564 l 1255 564 l 1255 454 l 769 454 l 769 110 l 1295 110 l 1295 0 l 646 0 l 646 907 l 559 907 l 150 0 l 18 0 m 245 299 l 245 407 l 708 407 l 708 299 l 245 299 z "},"Ǣ":{"ha":1352,"x_min":18,"x_max":1295,"o":"m 18 0 l 482 1010 l 1293 1010 l 1293 901 l 769 901 l 769 564 l 1255 564 l 1255 454 l 769 454 l 769 110 l 1295 110 l 1295 0 l 646 0 l 646 907 l 559 907 l 150 0 l 18 0 m 245 299 l 245 407 l 708 407 l 708 299 l 245 299 m 1079 1257 l 1079 1161 l 705 1161 l 705 1257 l 1079 1257 z "},"Ǽ":{"ha":1352,"x_min":18,"x_max":1295,"o":"m 18 0 l 482 1010 l 1293 1010 l 1293 901 l 769 901 l 769 564 l 1255 564 l 1255 454 l 769 454 l 769 110 l 1295 110 l 1295 0 l 646 0 l 646 907 l 559 907 l 150 0 l 18 0 m 245 299 l 245 407 l 708 407 l 708 299 l 245 299 m 841 1104 l 936 1305 l 1068 1305 l 938 1104 l 841 1104 z "},"Ӕ":{"ha":1352,"x_min":18,"x_max":1295,"o":"m 18 0 l 482 1010 l 1293 1010 l 1293 901 l 769 901 l 769 564 l 1255 564 l 1255 454 l 769 454 l 769 110 l 1295 110 l 1295 0 l 646 0 l 646 907 l 559 907 l 150 0 l 18 0 m 245 299 l 245 407 l 708 407 l 708 299 l 245 299 z "},"B":{"ha":891,"x_min":105,"x_max":831,"o":"m 105 0 l 105 1010 l 469 1010 q 643 977 571 1010 q 753 883 715 943 q 791 742 791 823 q 770 640 791 683 q 713 569 750 597 q 627 525 676 541 l 627 522 q 728 485 682 514 q 803 405 775 456 q 831 280 831 355 q 793 133 831 197 q 675 35 754 70 q 475 0 596 0 l 105 0 m 229 110 l 475 110 q 649 153 590 110 q 707 277 707 197 q 681 373 707 332 q 604 437 654 414 q 481 460 553 460 l 229 460 l 229 110 m 229 567 l 471 567 q 576 588 532 567 q 645 646 621 608 q 669 736 669 684 q 618 856 669 810 q 471 901 567 901 l 229 901 l 229 567 z "},"Ḃ":{"ha":891,"x_min":105,"x_max":831,"o":"m 105 0 l 105 1010 l 469 1010 q 643 977 571 1010 q 753 883 715 943 q 791 742 791 823 q 770 640 791 683 q 713 569 750 597 q 627 525 676 541 l 627 522 q 728 485 682 514 q 803 405 775 456 q 831 280 831 355 q 793 133 831 197 q 675 35 754 70 q 475 0 596 0 l 105 0 m 229 110 l 475 110 q 649 153 590 110 q 707 277 707 197 q 681 373 707 332 q 604 437 654 414 q 481 460 553 460 l 229 460 l 229 110 m 229 567 l 471 567 q 576 588 532 567 q 645 646 621 608 q 669 736 669 684 q 618 856 669 810 q 471 901 567 901 l 229 901 l 229 567 m 429 1147 q 372 1170 395 1147 q 349 1225 349 1193 q 372 1282 349 1259 q 428 1305 395 1305 q 485 1282 462 1305 q 509 1225 509 1259 q 485 1170 509 1193 q 429 1147 462 1147 z "},"Ḅ":{"ha":891,"x_min":105,"x_max":831,"o":"m 105 0 l 105 1010 l 469 1010 q 643 977 571 1010 q 753 883 715 943 q 791 742 791 823 q 770 640 791 683 q 713 569 750 597 q 627 525 676 541 l 627 522 q 728 485 682 514 q 803 405 775 456 q 831 280 831 355 q 793 133 831 197 q 675 35 754 70 q 475 0 596 0 l 105 0 m 229 110 l 475 110 q 649 153 590 110 q 707 277 707 197 q 681 373 707 332 q 604 437 654 414 q 481 460 553 460 l 229 460 l 229 110 m 229 567 l 471 567 q 576 588 532 567 q 645 646 621 608 q 669 736 669 684 q 618 856 669 810 q 471 901 567 901 l 229 901 l 229 567 m 434 -294 q 377 -271 401 -294 q 354 -216 354 -248 q 377 -159 354 -182 q 433 -136 401 -136 q 491 -159 467 -136 q 514 -216 514 -182 q 491 -271 514 -248 q 434 -294 467 -294 z "},"Ḇ":{"ha":891,"x_min":105,"x_max":831,"o":"m 105 0 l 105 1010 l 469 1010 q 643 977 571 1010 q 753 883 715 943 q 791 742 791 823 q 770 640 791 683 q 713 569 750 597 q 627 525 676 541 l 627 522 q 728 485 682 514 q 803 405 775 456 q 831 280 831 355 q 793 133 831 197 q 675 35 754 70 q 475 0 596 0 l 105 0 m 229 110 l 475 110 q 649 153 590 110 q 707 277 707 197 q 681 373 707 332 q 604 437 654 414 q 481 460 553 460 l 229 460 l 229 110 m 229 567 l 471 567 q 576 588 532 567 q 645 646 621 608 q 669 736 669 684 q 618 856 669 810 q 471 901 567 901 l 229 901 l 229 567 m 621 -151 l 621 -246 l 246 -246 l 246 -151 l 621 -151 z "},"Ƀ":{"ha":907,"x_min":2,"x_max":848,"o":"m 121 0 l 121 1010 l 484 1010 q 659 977 587 1010 q 769 883 731 943 q 806 742 806 823 q 786 640 806 683 q 729 569 766 597 q 642 525 692 541 l 642 522 q 744 485 697 514 q 819 405 791 456 q 847 280 847 355 q 808 133 847 197 q 691 35 770 70 q 491 0 612 0 l 121 0 m 244 110 l 490 110 q 664 153 606 110 q 723 277 723 197 q 696 373 723 332 q 620 437 670 414 q 497 460 569 460 l 244 460 l 244 110 m 244 567 l 486 567 q 592 588 547 567 q 661 646 637 608 q 685 736 685 684 q 634 856 685 810 q 487 901 583 901 l 244 901 l 244 567 m 2 236 l 2 334 l 420 334 l 420 236 l 2 236 z "},"Ɓ":{"ha":1081,"x_min":33,"x_max":1021,"o":"m 33 722 l 33 830 q 81 966 33 921 q 229 1010 130 1010 l 295 1010 l 295 901 l 229 901 q 165 883 184 901 q 146 827 146 866 l 146 722 l 33 722 m 295 0 l 295 1010 l 659 1010 q 833 977 761 1010 q 943 883 905 943 q 981 742 981 823 q 960 640 981 683 q 903 569 940 597 q 817 525 866 541 l 817 522 q 918 485 871 514 q 993 405 965 456 q 1021 280 1021 355 q 983 133 1021 197 q 865 35 944 70 q 665 0 786 0 l 295 0 m 418 110 l 665 110 q 839 153 780 110 q 897 277 897 197 q 871 373 897 332 q 794 437 844 414 q 671 460 743 460 l 418 460 l 418 110 m 418 567 l 661 567 q 766 588 722 567 q 835 646 811 608 q 859 736 859 684 q 808 856 859 810 q 661 901 757 901 l 418 901 l 418 567 z "},"В":{"ha":891,"x_min":105,"x_max":831,"o":"m 105 0 l 105 1010 l 469 1010 q 643 977 571 1010 q 753 883 715 943 q 791 742 791 823 q 770 640 791 683 q 713 569 750 597 q 627 525 676 541 l 627 522 q 728 485 682 514 q 803 405 775 456 q 831 280 831 355 q 793 133 831 197 q 675 35 754 70 q 475 0 596 0 l 105 0 m 229 110 l 475 110 q 649 153 590 110 q 707 277 707 197 q 681 373 707 332 q 604 437 654 414 q 481 460 553 460 l 229 460 l 229 110 m 229 567 l 471 567 q 576 588 532 567 q 645 646 621 608 q 669 736 669 684 q 618 856 669 810 q 471 901 567 901 l 229 901 l 229 567 z "},"Β":{"ha":891,"x_min":105,"x_max":831,"o":"m 105 0 l 105 1010 l 469 1010 q 643 977 571 1010 q 753 883 715 943 q 791 742 791 823 q 770 640 791 683 q 713 569 750 597 q 627 525 676 541 l 627 522 q 728 485 682 514 q 803 405 775 456 q 831 280 831 355 q 793 133 831 197 q 675 35 754 70 q 475 0 596 0 l 105 0 m 229 110 l 475 110 q 649 153 590 110 q 707 277 707 197 q 681 373 707 332 q 604 437 654 414 q 481 460 553 460 l 229 460 l 229 110 m 229 567 l 471 567 q 576 588 532 567 q 645 646 621 608 q 669 736 669 684 q 618 856 669 810 q 471 901 567 901 l 229 901 l 229 567 z "},"C":{"ha":1006,"x_min":66,"x_max":943,"o":"m 529 -16 q 287 50 391 -16 q 124 233 183 116 q 66 505 66 351 q 124 777 66 659 q 287 960 182 895 q 529 1026 391 1026 q 677 1003 608 1026 q 801 935 746 979 q 892 827 856 890 q 943 686 929 764 l 818 686 q 779 782 806 740 q 715 853 753 824 q 630 896 677 882 q 529 911 583 911 q 350 860 426 911 q 231 719 273 810 q 189 505 189 627 q 231 292 189 382 q 350 150 273 201 q 529 100 426 100 q 630 114 583 100 q 715 157 677 129 q 779 228 753 186 q 818 324 806 270 l 943 324 q 893 183 930 245 q 801 76 857 120 q 677 8 746 31 q 529 -16 608 -16 z "},"Ƈ":{"ha":1006,"x_min":66,"x_max":1092,"o":"m 829 686 l 829 968 q 879 1095 829 1052 q 1023 1138 928 1138 q 1062 1138 1046 1138 q 1092 1137 1078 1137 l 1092 1036 q 1060 1037 1081 1036 q 1030 1037 1040 1037 q 963 1021 983 1037 q 943 968 943 1004 l 943 686 l 829 686 m 529 -16 q 287 50 391 -16 q 124 233 183 116 q 66 505 66 351 q 124 777 66 659 q 287 960 182 895 q 529 1026 391 1026 q 677 1003 608 1026 q 801 935 746 979 q 892 827 856 890 q 943 686 929 764 l 818 686 q 779 782 806 740 q 715 853 753 824 q 630 896 677 882 q 529 911 583 911 q 350 860 426 911 q 231 719 273 810 q 189 505 189 627 q 231 292 189 382 q 350 150 273 201 q 529 100 426 100 q 630 114 583 100 q 715 157 677 129 q 779 228 753 186 q 818 324 806 270 l 943 324 q 893 183 930 245 q 801 76 857 120 q 677 8 746 31 q 529 -16 608 -16 z "},"Ç":{"ha":1006,"x_min":66,"x_max":943,"o":"m 529 -16 q 287 50 391 -16 q 124 233 183 116 q 66 505 66 351 q 124 777 66 659 q 287 960 182 895 q 529 1026 391 1026 q 677 1003 608 1026 q 801 935 746 979 q 892 827 856 890 q 943 686 929 764 l 818 686 q 779 782 806 740 q 715 853 753 824 q 630 896 677 882 q 529 911 583 911 q 350 860 426 911 q 231 719 273 810 q 189 505 189 627 q 231 292 189 382 q 350 150 273 201 q 529 100 426 100 q 630 114 583 100 q 715 157 677 129 q 779 228 753 186 q 818 324 806 270 l 943 324 q 893 183 930 245 q 801 76 857 120 q 677 8 746 31 q 529 -16 608 -16 m 442 -285 l 442 -214 l 522 -214 q 573 -203 557 -214 q 589 -170 589 -193 q 573 -136 589 -146 q 522 -125 557 -125 l 467 -125 l 487 31 l 551 31 l 551 -1 l 551 -60 q 644 -91 610 -62 q 678 -170 678 -120 q 636 -257 678 -229 q 522 -285 595 -285 l 442 -285 z "},"Ć":{"ha":1006,"x_min":66,"x_max":943,"o":"m 529 -16 q 287 50 391 -16 q 124 233 183 116 q 66 505 66 351 q 124 777 66 659 q 287 960 182 895 q 529 1026 391 1026 q 677 1003 608 1026 q 801 935 746 979 q 892 827 856 890 q 943 686 929 764 l 818 686 q 779 782 806 740 q 715 853 753 824 q 630 896 677 882 q 529 911 583 911 q 350 860 426 911 q 231 719 273 810 q 189 505 189 627 q 231 292 189 382 q 350 150 273 201 q 529 100 426 100 q 630 114 583 100 q 715 157 677 129 q 779 228 753 186 q 818 324 806 270 l 943 324 q 893 183 930 245 q 801 76 857 120 q 677 8 746 31 q 529 -16 608 -16 m 467 1104 l 562 1305 l 694 1305 l 564 1104 l 467 1104 z "},"Ĉ":{"ha":1006,"x_min":66,"x_max":943,"o":"m 529 -16 q 287 50 391 -16 q 124 233 183 116 q 66 505 66 351 q 124 777 66 659 q 287 960 182 895 q 529 1026 391 1026 q 677 1003 608 1026 q 801 935 746 979 q 892 827 856 890 q 943 686 929 764 l 818 686 q 779 782 806 740 q 715 853 753 824 q 630 896 677 882 q 529 911 583 911 q 350 860 426 911 q 231 719 273 810 q 189 505 189 627 q 231 292 189 382 q 350 150 273 201 q 529 100 426 100 q 630 114 583 100 q 715 157 677 129 q 779 228 753 186 q 818 324 806 270 l 943 324 q 893 183 930 245 q 801 76 857 120 q 677 8 746 31 q 529 -16 608 -16 m 420 1120 l 304 1120 l 304 1121 l 460 1305 l 574 1305 l 732 1121 l 732 1120 l 614 1120 l 517 1238 l 420 1120 z "},"Ċ":{"ha":1006,"x_min":66,"x_max":943,"o":"m 529 -16 q 287 50 391 -16 q 124 233 183 116 q 66 505 66 351 q 124 777 66 659 q 287 960 182 895 q 529 1026 391 1026 q 677 1003 608 1026 q 801 935 746 979 q 892 827 856 890 q 943 686 929 764 l 818 686 q 779 782 806 740 q 715 853 753 824 q 630 896 677 882 q 529 911 583 911 q 350 860 426 911 q 231 719 273 810 q 189 505 189 627 q 231 292 189 382 q 350 150 273 201 q 529 100 426 100 q 630 114 583 100 q 715 157 677 129 q 779 228 753 186 q 818 324 806 270 l 943 324 q 893 183 930 245 q 801 76 857 120 q 677 8 746 31 q 529 -16 608 -16 m 518 1147 q 461 1170 485 1147 q 438 1225 438 1193 q 461 1282 438 1259 q 517 1305 485 1305 q 575 1282 551 1305 q 598 1225 598 1259 q 575 1170 598 1193 q 518 1147 551 1147 z "},"Č":{"ha":1006,"x_min":66,"x_max":943,"o":"m 529 -16 q 287 50 391 -16 q 124 233 183 116 q 66 505 66 351 q 124 777 66 659 q 287 960 182 895 q 529 1026 391 1026 q 677 1003 608 1026 q 801 935 746 979 q 892 827 856 890 q 943 686 929 764 l 818 686 q 779 782 806 740 q 715 853 753 824 q 630 896 677 882 q 529 911 583 911 q 350 860 426 911 q 231 719 273 810 q 189 505 189 627 q 231 292 189 382 q 350 150 273 201 q 529 100 426 100 q 630 114 583 100 q 715 157 677 129 q 779 228 753 186 q 818 324 806 270 l 943 324 q 893 183 930 245 q 801 76 857 120 q 677 8 746 31 q 529 -16 608 -16 m 420 1305 l 517 1186 l 614 1305 l 732 1305 l 732 1303 l 574 1120 l 460 1120 l 304 1303 l 304 1305 l 420 1305 z "},"Ḉ":{"ha":1006,"x_min":66,"x_max":943,"o":"m 529 -16 q 287 50 391 -16 q 124 233 183 116 q 66 505 66 351 q 124 777 66 659 q 287 960 182 895 q 529 1026 391 1026 q 677 1003 608 1026 q 801 935 746 979 q 892 827 856 890 q 943 686 929 764 l 818 686 q 779 782 806 740 q 715 853 753 824 q 630 896 677 882 q 529 911 583 911 q 350 860 426 911 q 231 719 273 810 q 189 505 189 627 q 231 292 189 382 q 350 150 273 201 q 529 100 426 100 q 630 114 583 100 q 715 157 677 129 q 779 228 753 186 q 818 324 806 270 l 943 324 q 893 183 930 245 q 801 76 857 120 q 677 8 746 31 q 529 -16 608 -16 m 442 -285 l 442 -214 l 522 -214 q 573 -203 557 -214 q 589 -170 589 -193 q 573 -136 589 -146 q 522 -125 557 -125 l 467 -125 l 487 31 l 551 31 l 551 -1 l 551 -60 q 644 -91 610 -62 q 678 -170 678 -120 q 636 -257 678 -229 q 522 -285 595 -285 l 442 -285 m 467 1104 l 562 1305 l 694 1305 l 564 1104 l 467 1104 z "},"Ȼ":{"ha":1006,"x_min":66,"x_max":943,"o":"m 212 -129 l 661 1138 l 774 1138 l 325 -129 l 212 -129 m 529 -16 q 287 50 391 -16 q 124 233 183 116 q 66 505 66 351 q 124 777 66 659 q 287 960 182 895 q 529 1026 391 1026 q 677 1003 608 1026 q 801 935 746 979 q 892 827 856 890 q 943 686 929 764 l 818 686 q 779 782 806 740 q 715 853 753 824 q 630 896 677 882 q 529 911 583 911 q 350 860 426 911 q 231 719 273 810 q 189 505 189 627 q 231 292 189 382 q 350 150 273 201 q 529 100 426 100 q 630 114 583 100 q 715 157 677 129 q 779 228 753 186 q 818 324 806 270 l 943 324 q 893 183 930 245 q 801 76 857 120 q 677 8 746 31 q 529 -16 608 -16 z "},"Ɔ":{"ha":1006,"x_min":62,"x_max":940,"o":"m 477 1026 q 719 960 614 1026 q 881 777 823 895 q 940 506 940 660 q 882 234 940 352 q 719 50 823 116 q 477 -16 614 -16 q 329 8 398 -16 q 204 76 260 31 q 113 183 149 121 q 62 325 77 246 l 188 325 q 226 229 200 271 q 290 158 252 186 q 376 114 328 129 q 477 100 423 100 q 656 150 580 100 q 775 292 732 201 q 817 506 817 383 q 775 719 817 628 q 656 861 732 810 q 477 911 580 911 q 376 896 423 911 q 291 853 329 882 q 227 783 253 825 q 187 686 200 741 l 62 686 q 113 828 76 765 q 204 935 149 890 q 329 1003 259 979 q 477 1026 398 1026 z "},"Ϲ":{"ha":1006,"x_min":66,"x_max":943,"o":"m 529 -16 q 287 50 391 -16 q 124 233 183 116 q 66 505 66 351 q 124 777 66 659 q 287 960 182 895 q 529 1026 391 1026 q 677 1003 608 1026 q 801 935 746 979 q 892 827 856 890 q 943 686 929 764 l 818 686 q 779 782 806 740 q 715 853 753 824 q 630 896 677 882 q 529 911 583 911 q 350 860 426 911 q 231 719 273 810 q 189 505 189 627 q 231 292 189 382 q 350 150 273 201 q 529 100 426 100 q 630 114 583 100 q 715 157 677 129 q 779 228 753 186 q 818 324 806 270 l 943 324 q 893 183 930 245 q 801 76 857 120 q 677 8 746 31 q 529 -16 608 -16 z "},"D":{"ha":968,"x_min":105,"x_max":902,"o":"m 418 0 l 175 0 l 175 110 l 410 110 q 616 158 534 110 q 739 295 699 205 q 779 507 779 384 q 740 718 779 629 q 621 853 700 806 q 423 901 541 901 l 170 901 l 170 1010 l 431 1010 q 684 950 578 1010 q 846 777 789 890 q 902 507 902 664 q 845 236 902 349 q 680 61 788 122 q 418 0 572 0 m 229 1010 l 229 0 l 105 0 l 105 1010 l 229 1010 z "},"Ɗ":{"ha":1158,"x_min":33,"x_max":1092,"o":"m 33 722 l 33 830 q 81 966 33 921 q 229 1010 130 1010 l 295 1010 l 295 901 l 229 901 q 165 883 184 901 q 146 827 146 866 l 146 722 l 33 722 m 608 0 l 365 0 l 365 110 l 600 110 q 807 158 725 110 q 929 295 888 205 q 969 507 969 384 q 929 718 969 629 q 810 853 890 806 q 613 901 731 901 l 359 901 l 359 1010 l 621 1010 q 874 950 768 1010 q 1036 777 979 890 q 1092 507 1092 664 q 1035 236 1092 349 q 870 61 978 122 q 608 0 762 0 m 418 1010 l 418 0 l 295 0 l 295 1010 l 418 1010 z "},"Ď":{"ha":968,"x_min":105,"x_max":902,"o":"m 418 0 l 175 0 l 175 110 l 410 110 q 616 158 534 110 q 739 295 699 205 q 779 507 779 384 q 740 718 779 629 q 621 853 700 806 q 423 901 541 901 l 170 901 l 170 1010 l 431 1010 q 684 950 578 1010 q 846 777 789 890 q 902 507 902 664 q 845 236 902 349 q 680 61 788 122 q 418 0 572 0 m 229 1010 l 229 0 l 105 0 l 105 1010 l 229 1010 m 304 1305 l 401 1186 l 498 1305 l 616 1305 l 616 1303 l 458 1120 l 345 1120 l 188 1303 l 188 1305 l 304 1305 z "},"Ḋ":{"ha":968,"x_min":105,"x_max":902,"o":"m 418 0 l 175 0 l 175 110 l 410 110 q 616 158 534 110 q 739 295 699 205 q 779 507 779 384 q 740 718 779 629 q 621 853 700 806 q 423 901 541 901 l 170 901 l 170 1010 l 431 1010 q 684 950 578 1010 q 846 777 789 890 q 902 507 902 664 q 845 236 902 349 q 680 61 788 122 q 418 0 572 0 m 229 1010 l 229 0 l 105 0 l 105 1010 l 229 1010 m 401 1147 q 345 1170 368 1147 q 321 1225 321 1193 q 345 1282 321 1259 q 401 1305 368 1305 q 458 1282 435 1305 q 481 1225 481 1259 q 458 1170 481 1193 q 401 1147 435 1147 z "},"Ḍ":{"ha":968,"x_min":105,"x_max":902,"o":"m 418 0 l 175 0 l 175 110 l 410 110 q 616 158 534 110 q 739 295 699 205 q 779 507 779 384 q 740 718 779 629 q 621 853 700 806 q 423 901 541 901 l 170 901 l 170 1010 l 431 1010 q 684 950 578 1010 q 846 777 789 890 q 902 507 902 664 q 845 236 902 349 q 680 61 788 122 q 418 0 572 0 m 229 1010 l 229 0 l 105 0 l 105 1010 l 229 1010 m 406 -294 q 350 -271 373 -294 q 326 -216 326 -248 q 350 -159 326 -182 q 406 -136 373 -136 q 463 -159 439 -136 q 486 -216 486 -182 q 463 -271 486 -248 q 406 -294 439 -294 z "},"Ḏ":{"ha":968,"x_min":105,"x_max":902,"o":"m 418 0 l 175 0 l 175 110 l 410 110 q 616 158 534 110 q 739 295 699 205 q 779 507 779 384 q 740 718 779 629 q 621 853 700 806 q 423 901 541 901 l 170 901 l 170 1010 l 431 1010 q 684 950 578 1010 q 846 777 789 890 q 902 507 902 664 q 845 236 902 349 q 680 61 788 122 q 418 0 572 0 m 229 1010 l 229 0 l 105 0 l 105 1010 l 229 1010 m 593 -151 l 593 -246 l 218 -246 l 218 -151 l 593 -151 z "},"Ḑ":{"ha":968,"x_min":105,"x_max":902,"o":"m 418 0 l 175 0 l 175 110 l 410 110 q 616 158 534 110 q 739 295 699 205 q 779 507 779 384 q 740 718 779 629 q 621 853 700 806 q 423 901 541 901 l 170 901 l 170 1010 l 431 1010 q 684 950 578 1010 q 846 777 789 890 q 902 507 902 664 q 845 236 902 349 q 680 61 788 122 q 418 0 572 0 m 229 1010 l 229 0 l 105 0 l 105 1010 l 229 1010 m 290 -335 l 344 -80 l 465 -80 l 380 -335 l 290 -335 z "},"Ḓ":{"ha":968,"x_min":105,"x_max":902,"o":"m 418 0 l 175 0 l 175 110 l 410 110 q 616 158 534 110 q 739 295 699 205 q 779 507 779 384 q 740 718 779 629 q 621 853 700 806 q 423 901 541 901 l 170 901 l 170 1010 l 431 1010 q 684 950 578 1010 q 846 777 789 890 q 902 507 902 664 q 845 236 902 349 q 680 61 788 122 q 418 0 572 0 m 229 1010 l 229 0 l 105 0 l 105 1010 l 229 1010 m 309 -309 l 193 -309 l 193 -307 l 350 -123 l 463 -123 l 621 -307 l 621 -309 l 503 -309 l 407 -190 l 309 -309 z "},"Ɖ":{"ha":1008,"x_min":15,"x_max":942,"o":"m 458 0 l 216 0 l 216 110 l 450 110 q 657 158 575 110 q 780 295 739 205 q 820 507 820 384 q 780 718 820 629 q 661 853 741 806 q 464 901 582 901 l 210 901 l 210 1010 l 472 1010 q 725 950 619 1010 q 886 777 830 890 q 943 507 943 664 q 886 236 943 349 q 721 61 829 122 q 458 0 613 0 m 269 1010 l 269 0 l 146 0 l 146 1010 l 269 1010 m 15 452 l 15 559 l 532 559 l 532 452 l 15 452 z "},"ǲ":{"ha":1655,"x_min":105,"x_max":1586,"o":"m 418 0 l 175 0 l 175 110 l 410 110 q 616 158 534 110 q 739 295 699 205 q 779 507 779 384 q 740 718 779 629 q 621 853 700 806 q 423 901 541 901 l 170 901 l 170 1010 l 431 1010 q 684 950 578 1010 q 846 777 789 890 q 902 507 902 664 q 845 236 902 349 q 680 61 788 122 q 418 0 572 0 m 229 1010 l 229 0 l 105 0 l 105 1010 l 229 1010 m 1036 0 l 1036 89 l 1436 616 l 1436 620 l 1040 620 l 1040 726 l 1581 726 l 1581 632 l 1188 109 l 1188 105 l 1586 105 l 1586 0 l 1036 0 z "},"ǅ":{"ha":1655,"x_min":105,"x_max":1586,"o":"m 418 0 l 175 0 l 175 110 l 410 110 q 616 158 534 110 q 739 295 699 205 q 779 507 779 384 q 740 718 779 629 q 621 853 700 806 q 423 901 541 901 l 170 901 l 170 1010 l 431 1010 q 684 950 578 1010 q 846 777 789 890 q 902 507 902 664 q 845 236 902 349 q 680 61 788 122 q 418 0 572 0 m 229 1010 l 229 0 l 105 0 l 105 1010 l 229 1010 m 1036 0 l 1036 89 l 1436 616 l 1436 620 l 1040 620 l 1040 726 l 1581 726 l 1581 632 l 1188 109 l 1188 105 l 1586 105 l 1586 0 l 1036 0 m 1211 1021 l 1308 901 l 1404 1021 l 1522 1021 l 1522 1019 l 1364 835 l 1251 835 l 1095 1019 l 1095 1021 l 1211 1021 z "},"E":{"ha":812,"x_min":105,"x_max":755,"o":"m 105 0 l 105 1010 l 753 1010 l 753 901 l 229 901 l 229 570 l 715 570 l 715 461 l 229 461 l 229 110 l 755 110 l 755 0 l 105 0 z "},"È":{"ha":812,"x_min":105,"x_max":755,"o":"m 105 0 l 105 1010 l 753 1010 l 753 901 l 229 901 l 229 570 l 715 570 l 715 461 l 229 461 l 229 110 l 755 110 l 755 0 l 105 0 m 383 1104 l 253 1305 l 385 1305 l 480 1104 l 383 1104 z "},"É":{"ha":812,"x_min":105,"x_max":755,"o":"m 105 0 l 105 1010 l 753 1010 l 753 901 l 229 901 l 229 570 l 715 570 l 715 461 l 229 461 l 229 110 l 755 110 l 755 0 l 105 0 m 378 1104 l 473 1305 l 606 1305 l 475 1104 l 378 1104 z "},"Ê":{"ha":812,"x_min":105,"x_max":755,"o":"m 105 0 l 105 1010 l 753 1010 l 753 901 l 229 901 l 229 570 l 715 570 l 715 461 l 229 461 l 229 110 l 755 110 l 755 0 l 105 0 m 332 1120 l 216 1120 l 216 1121 l 372 1305 l 486 1305 l 644 1121 l 644 1120 l 526 1120 l 429 1238 l 332 1120 z "},"Ë":{"ha":812,"x_min":105,"x_max":755,"o":"m 105 0 l 105 1010 l 753 1010 l 753 901 l 229 901 l 229 570 l 715 570 l 715 461 l 229 461 l 229 110 l 755 110 l 755 0 l 105 0 m 572 1147 q 516 1170 539 1147 q 493 1225 493 1193 q 516 1282 493 1259 q 572 1305 539 1305 q 628 1282 605 1305 q 651 1225 651 1259 q 628 1170 651 1193 q 572 1147 605 1147 m 288 1147 q 232 1170 256 1147 q 209 1225 209 1193 q 232 1282 209 1259 q 288 1305 256 1305 q 344 1282 321 1305 q 367 1225 367 1259 q 344 1170 367 1193 q 288 1147 321 1147 z "},"Ē":{"ha":812,"x_min":105,"x_max":755,"o":"m 105 0 l 105 1010 l 753 1010 l 753 901 l 229 901 l 229 570 l 715 570 l 715 461 l 229 461 l 229 110 l 755 110 l 755 0 l 105 0 m 616 1257 l 616 1161 l 242 1161 l 242 1257 l 616 1257 z "},"Ĕ":{"ha":812,"x_min":105,"x_max":755,"o":"m 105 0 l 105 1010 l 753 1010 l 753 901 l 229 901 l 229 570 l 715 570 l 715 461 l 229 461 l 229 110 l 755 110 l 755 0 l 105 0 m 429 1115 q 331 1140 375 1115 q 261 1209 288 1166 q 235 1305 235 1253 l 323 1305 q 353 1229 323 1259 q 430 1200 383 1200 q 506 1229 476 1200 q 536 1305 536 1259 l 624 1305 q 598 1210 624 1253 q 528 1141 572 1166 q 429 1115 484 1115 z "},"Ė":{"ha":812,"x_min":105,"x_max":755,"o":"m 105 0 l 105 1010 l 753 1010 l 753 901 l 229 901 l 229 570 l 715 570 l 715 461 l 229 461 l 229 110 l 755 110 l 755 0 l 105 0 m 430 1147 q 373 1170 397 1147 q 350 1225 350 1193 q 373 1282 350 1259 q 429 1305 397 1305 q 487 1282 463 1305 q 510 1225 510 1259 q 487 1170 510 1193 q 430 1147 463 1147 z "},"Ę":{"ha":812,"x_min":105,"x_max":764,"o":"m 105 0 l 105 1010 l 753 1010 l 753 901 l 229 901 l 229 570 l 715 570 l 715 461 l 229 461 l 229 110 l 755 110 l 755 0 l 105 0 m 675 -286 q 573 -254 612 -286 q 534 -158 534 -221 q 568 -58 534 -103 q 677 33 601 -12 l 755 0 q 675 -78 700 -48 q 650 -138 650 -108 q 664 -174 650 -161 q 709 -186 678 -186 q 733 -185 721 -186 q 755 -182 746 -184 l 765 -279 q 722 -284 745 -281 q 675 -286 700 -286 z "},"Ě":{"ha":812,"x_min":105,"x_max":755,"o":"m 105 0 l 105 1010 l 753 1010 l 753 901 l 229 901 l 229 570 l 715 570 l 715 461 l 229 461 l 229 110 l 755 110 l 755 0 l 105 0 m 332 1305 l 429 1186 l 526 1305 l 644 1305 l 644 1303 l 486 1120 l 372 1120 l 216 1303 l 216 1305 l 332 1305 z "},"Ȅ":{"ha":812,"x_min":105,"x_max":755,"o":"m 105 0 l 105 1010 l 753 1010 l 753 901 l 229 901 l 229 570 l 715 570 l 715 461 l 229 461 l 229 110 l 755 110 l 755 0 l 105 0 m 483 1104 l 367 1305 l 499 1305 l 580 1104 l 483 1104 m 281 1104 l 134 1305 l 266 1305 l 380 1104 l 281 1104 z "},"Ȇ":{"ha":812,"x_min":105,"x_max":755,"o":"m 105 0 l 105 1010 l 753 1010 l 753 901 l 229 901 l 229 570 l 715 570 l 715 461 l 229 461 l 229 110 l 755 110 l 755 0 l 105 0 m 429 1308 q 532 1283 488 1308 q 601 1215 576 1258 q 626 1120 626 1173 l 538 1120 q 507 1194 538 1165 q 429 1223 476 1223 q 352 1194 382 1223 q 321 1120 321 1165 l 233 1120 q 258 1215 233 1173 q 328 1283 283 1258 q 429 1308 372 1308 z "},"Ȩ":{"ha":812,"x_min":105,"x_max":755,"o":"m 105 0 l 105 1010 l 753 1010 l 753 901 l 229 901 l 229 570 l 715 570 l 715 461 l 229 461 l 229 110 l 755 110 l 755 0 l 105 0 m 360 -283 l 360 -213 l 440 -213 q 491 -202 475 -213 q 507 -168 507 -191 q 491 -134 507 -145 q 440 -123 475 -123 l 385 -123 l 405 33 l 469 33 l 469 0 l 469 -58 q 562 -90 528 -61 q 596 -168 596 -119 q 554 -256 596 -228 q 440 -283 513 -283 l 360 -283 z "},"Ḕ":{"ha":812,"x_min":105,"x_max":755,"o":"m 105 0 l 105 1010 l 753 1010 l 753 901 l 229 901 l 229 570 l 715 570 l 715 461 l 229 461 l 229 110 l 755 110 l 755 0 l 105 0 m 617 1242 l 617 1147 l 243 1147 l 243 1242 l 617 1242 m 385 1330 l 254 1516 l 387 1516 l 481 1330 l 385 1330 z "},"Ḗ":{"ha":812,"x_min":105,"x_max":755,"o":"m 105 0 l 105 1010 l 753 1010 l 753 901 l 229 901 l 229 570 l 715 570 l 715 461 l 229 461 l 229 110 l 755 110 l 755 0 l 105 0 m 617 1242 l 617 1147 l 243 1147 l 243 1242 l 617 1242 m 381 1330 l 476 1516 l 608 1516 l 478 1330 l 381 1330 z "},"Ḙ":{"ha":812,"x_min":105,"x_max":755,"o":"m 105 0 l 105 1010 l 753 1010 l 753 901 l 229 901 l 229 570 l 715 570 l 715 461 l 229 461 l 229 110 l 755 110 l 755 0 l 105 0 m 333 -309 l 217 -309 l 217 -307 l 374 -123 l 487 -123 l 645 -307 l 645 -309 l 527 -309 l 431 -190 l 333 -309 z "},"Ḛ":{"ha":812,"x_min":105,"x_max":755,"o":"m 105 0 l 105 1010 l 753 1010 l 753 901 l 229 901 l 229 570 l 715 570 l 715 461 l 229 461 l 229 110 l 755 110 l 755 0 l 105 0 m 519 -286 q 471 -277 494 -286 q 425 -258 447 -269 q 386 -239 404 -247 q 355 -231 368 -231 q 330 -248 338 -231 q 320 -283 321 -264 l 236 -283 q 264 -184 238 -223 q 344 -144 290 -144 q 392 -153 370 -144 q 434 -173 414 -161 q 472 -193 454 -184 q 507 -201 490 -201 q 532 -189 524 -201 q 544 -147 541 -176 l 625 -147 q 596 -248 623 -210 q 519 -286 568 -286 z "},"Ḝ":{"ha":812,"x_min":105,"x_max":755,"o":"m 105 0 l 105 1010 l 753 1010 l 753 901 l 229 901 l 229 570 l 715 570 l 715 461 l 229 461 l 229 110 l 755 110 l 755 0 l 105 0 m 360 -283 l 360 -213 l 440 -213 q 491 -202 475 -213 q 507 -168 507 -191 q 491 -134 507 -145 q 440 -123 475 -123 l 385 -123 l 405 33 l 469 33 l 469 0 l 469 -58 q 562 -90 528 -61 q 596 -168 596 -119 q 554 -256 596 -228 q 440 -283 513 -283 l 360 -283 m 429 1115 q 331 1140 375 1115 q 261 1209 288 1166 q 235 1305 235 1253 l 323 1305 q 353 1229 323 1259 q 430 1200 383 1200 q 506 1229 476 1200 q 536 1305 536 1259 l 624 1305 q 598 1210 624 1253 q 528 1141 572 1166 q 429 1115 484 1115 z "},"Ẹ":{"ha":812,"x_min":105,"x_max":755,"o":"m 105 0 l 105 1010 l 753 1010 l 753 901 l 229 901 l 229 570 l 715 570 l 715 461 l 229 461 l 229 110 l 755 110 l 755 0 l 105 0 m 430 -294 q 373 -271 397 -294 q 350 -216 350 -248 q 373 -159 350 -182 q 429 -136 397 -136 q 487 -159 463 -136 q 510 -216 510 -182 q 487 -271 510 -248 q 430 -294 463 -294 z "},"Ẻ":{"ha":812,"x_min":105,"x_max":755,"o":"m 105 0 l 105 1010 l 753 1010 l 753 901 l 229 901 l 229 570 l 715 570 l 715 461 l 229 461 l 229 110 l 755 110 l 755 0 l 105 0 m 471 1104 l 381 1104 l 430 1200 q 434 1220 437 1213 q 415 1227 430 1227 l 321 1227 l 321 1305 l 415 1305 q 482 1295 455 1305 q 521 1265 509 1284 q 530 1220 533 1246 q 509 1166 528 1195 l 471 1104 z "},"Ẽ":{"ha":812,"x_min":105,"x_max":755,"o":"m 105 0 l 105 1010 l 753 1010 l 753 901 l 229 901 l 229 570 l 715 570 l 715 461 l 229 461 l 229 110 l 755 110 l 755 0 l 105 0 m 518 1147 q 470 1155 494 1147 q 425 1174 446 1163 q 385 1194 403 1185 q 354 1202 367 1202 q 329 1185 337 1202 q 319 1149 321 1168 l 235 1149 q 263 1249 237 1209 q 343 1288 290 1288 q 391 1279 369 1288 q 433 1259 414 1271 q 471 1239 453 1248 q 506 1231 489 1231 q 531 1244 523 1231 q 543 1285 540 1257 l 625 1285 q 595 1185 623 1223 q 518 1147 568 1147 z "},"Ế":{"ha":812,"x_min":105,"x_max":755,"o":"m 105 0 l 105 1010 l 753 1010 l 753 901 l 229 901 l 229 570 l 715 570 l 715 461 l 229 461 l 229 110 l 755 110 l 755 0 l 105 0 m 333 1101 l 217 1101 l 217 1103 l 374 1288 l 487 1288 l 645 1103 l 645 1101 l 527 1101 l 431 1221 l 333 1101 m 519 1314 l 614 1500 l 746 1500 l 616 1314 l 519 1314 z "},"Ề":{"ha":812,"x_min":105,"x_max":755,"o":"m 105 0 l 105 1010 l 753 1010 l 753 901 l 229 901 l 229 570 l 715 570 l 715 461 l 229 461 l 229 110 l 755 110 l 755 0 l 105 0 m 333 1101 l 217 1101 l 217 1103 l 374 1288 l 487 1288 l 645 1103 l 645 1101 l 527 1101 l 431 1221 l 333 1101 m 558 1314 l 428 1500 l 560 1500 l 655 1314 l 558 1314 z "},"Ể":{"ha":812,"x_min":105,"x_max":755,"o":"m 105 0 l 105 1010 l 753 1010 l 753 901 l 229 901 l 229 570 l 715 570 l 715 461 l 229 461 l 229 110 l 755 110 l 755 0 l 105 0 m 333 1101 l 217 1101 l 217 1103 l 374 1288 l 487 1288 l 645 1103 l 645 1101 l 527 1101 l 431 1221 l 333 1101 m 608 1314 l 518 1314 l 561 1394 q 564 1415 568 1408 q 545 1422 560 1422 l 452 1422 l 452 1500 l 545 1500 q 629 1481 600 1500 q 663 1431 659 1463 q 640 1360 666 1399 l 608 1314 z "},"Ễ":{"ha":812,"x_min":105,"x_max":755,"o":"m 105 0 l 105 1010 l 753 1010 l 753 901 l 229 901 l 229 570 l 715 570 l 715 461 l 229 461 l 229 110 l 755 110 l 755 0 l 105 0 m 333 1101 l 217 1101 l 217 1103 l 374 1288 l 487 1288 l 645 1103 l 645 1101 l 527 1101 l 431 1221 l 333 1101 m 519 1339 q 470 1348 494 1339 q 425 1367 446 1356 q 386 1387 404 1378 q 355 1395 368 1395 q 329 1378 338 1395 q 319 1341 321 1361 l 236 1341 q 263 1441 237 1402 q 343 1480 290 1480 q 392 1472 370 1480 q 434 1452 414 1463 q 472 1432 454 1440 q 507 1423 490 1423 q 532 1436 524 1423 q 544 1478 541 1449 l 625 1478 q 595 1377 623 1415 q 519 1339 568 1339 z "},"Ệ":{"ha":812,"x_min":105,"x_max":755,"o":"m 105 0 l 105 1010 l 753 1010 l 753 901 l 229 901 l 229 570 l 715 570 l 715 461 l 229 461 l 229 110 l 755 110 l 755 0 l 105 0 m 332 1120 l 216 1120 l 216 1121 l 372 1305 l 486 1305 l 644 1121 l 644 1120 l 526 1120 l 429 1238 l 332 1120 m 430 -294 q 373 -271 397 -294 q 350 -216 350 -248 q 373 -159 350 -182 q 429 -136 397 -136 q 487 -159 463 -136 q 510 -216 510 -182 q 487 -271 510 -248 q 430 -294 463 -294 z "},"Ɇ":{"ha":812,"x_min":105,"x_max":755,"o":"m 201 -129 l 568 1138 l 679 1138 l 314 -129 l 201 -129 m 105 0 l 105 1010 l 753 1010 l 753 901 l 229 901 l 229 570 l 715 570 l 715 461 l 229 461 l 229 110 l 755 110 l 755 0 l 105 0 z "},"Ǝ":{"ha":812,"x_min":57,"x_max":707,"o":"m 707 1010 l 707 0 l 58 0 l 58 110 l 583 110 l 583 440 l 96 440 l 96 549 l 583 549 l 583 901 l 57 901 l 57 1010 l 707 1010 z "},"Ε":{"ha":812,"x_min":105,"x_max":755,"o":"m 105 0 l 105 1010 l 753 1010 l 753 901 l 229 901 l 229 570 l 715 570 l 715 461 l 229 461 l 229 110 l 755 110 l 755 0 l 105 0 z "},"Έ":{"ha":969,"x_min":41,"x_max":912,"o":"m 262 0 l 262 1010 l 911 1010 l 911 901 l 386 901 l 386 570 l 873 570 l 873 461 l 386 461 l 386 110 l 912 110 l 912 0 l 262 0 m 41 809 l 67 1010 l 186 1010 l 123 809 l 41 809 z "},"Ἐ":{"ha":1008,"x_min":41,"x_max":951,"o":"m 301 0 l 301 1010 l 949 1010 l 949 901 l 425 901 l 425 570 l 911 570 l 911 461 l 425 461 l 425 110 l 951 110 l 951 0 l 301 0 m 62 810 l 55 810 l 55 863 l 62 863 q 114 874 96 863 q 132 907 132 886 q 114 936 132 926 q 62 945 96 945 l 41 945 l 41 1022 l 62 1022 q 181 995 138 1022 q 223 918 223 967 q 181 840 223 869 q 62 810 138 810 z "},"Ἑ":{"ha":1021,"x_min":41,"x_max":964,"o":"m 315 0 l 315 1010 l 964 1010 l 964 901 l 439 901 l 439 570 l 926 570 l 926 461 l 439 461 l 439 110 l 965 110 l 965 0 l 315 0 m 202 801 q 84 831 127 801 q 41 909 41 861 q 84 986 41 958 q 202 1013 127 1013 l 223 1013 l 223 937 l 202 937 q 151 927 169 937 q 133 899 133 917 q 151 865 133 877 q 202 854 169 854 l 210 854 l 210 801 l 202 801 z "},"Ἒ":{"ha":1192,"x_min":41,"x_max":1135,"o":"m 486 0 l 486 1010 l 1134 1010 l 1134 901 l 609 901 l 609 570 l 1096 570 l 1096 461 l 609 461 l 609 110 l 1135 110 l 1135 0 l 486 0 m 62 801 l 55 801 l 55 854 l 62 854 q 114 865 96 854 q 132 899 132 877 q 114 927 132 917 q 62 937 96 937 l 41 937 l 41 1013 l 62 1013 q 181 986 138 1013 q 223 909 223 958 q 181 831 223 861 q 62 801 138 801 m 387 803 l 306 803 l 245 1010 l 361 1010 l 387 803 z "},"Ἓ":{"ha":1200,"x_min":41,"x_max":1142,"o":"m 493 0 l 493 1010 l 1141 1010 l 1141 901 l 616 901 l 616 570 l 1103 570 l 1103 461 l 616 461 l 616 110 l 1143 110 l 1143 0 l 493 0 m 202 801 q 84 831 127 801 q 41 909 41 861 q 84 986 41 958 q 202 1013 127 1013 l 223 1013 l 223 937 l 202 937 q 151 927 169 937 q 133 899 133 917 q 151 865 133 877 q 202 854 169 854 l 210 854 l 210 801 l 202 801 m 406 803 l 326 803 l 264 1010 l 380 1010 l 406 803 z "},"Ἔ":{"ha":1200,"x_min":41,"x_max":1143,"o":"m 494 0 l 494 1010 l 1143 1010 l 1143 901 l 618 901 l 618 570 l 1105 570 l 1105 461 l 618 461 l 618 110 l 1144 110 l 1144 0 l 494 0 m 62 801 l 55 801 l 55 854 l 62 854 q 114 865 96 854 q 132 899 132 877 q 114 927 132 917 q 62 937 96 937 l 41 937 l 41 1013 l 62 1013 q 181 986 138 1013 q 223 909 223 958 q 181 831 223 861 q 62 801 138 801 m 285 803 l 311 1010 l 427 1010 l 366 803 l 285 803 z "},"Ἕ":{"ha":1206,"x_min":41,"x_max":1149,"o":"m 500 0 l 500 1010 l 1148 1010 l 1148 901 l 623 901 l 623 570 l 1110 570 l 1110 461 l 623 461 l 623 110 l 1149 110 l 1149 0 l 500 0 m 202 801 q 84 831 127 801 q 41 909 41 861 q 84 986 41 958 q 202 1013 127 1013 l 223 1013 l 223 937 l 202 937 q 151 927 169 937 q 133 899 133 917 q 151 865 133 877 q 202 854 169 854 l 210 854 l 210 801 l 202 801 m 284 803 l 309 1010 l 425 1010 l 365 803 l 284 803 z "},"Ὲ":{"ha":1008,"x_min":-27,"x_max":950,"o":"m 301 0 l 301 1010 l 949 1010 l 949 901 l 425 901 l 425 570 l 911 570 l 911 461 l 425 461 l 425 110 l 951 110 l 951 0 l 301 0 m 117 819 l 35 819 l -27 1021 l 92 1021 l 117 819 z "},"Έ":{"ha":969,"x_min":41,"x_max":912,"o":"m 262 0 l 262 1010 l 911 1010 l 911 901 l 386 901 l 386 570 l 873 570 l 873 461 l 386 461 l 386 110 l 912 110 l 912 0 l 262 0 m 41 809 l 67 1010 l 186 1010 l 123 809 l 41 809 z "},"Е":{"ha":812,"x_min":105,"x_max":755,"o":"m 105 0 l 105 1010 l 753 1010 l 753 901 l 229 901 l 229 570 l 715 570 l 715 461 l 229 461 l 229 110 l 755 110 l 755 0 l 105 0 z "},"Ѐ":{"ha":812,"x_min":105,"x_max":755,"o":"m 105 0 l 105 1010 l 753 1010 l 753 901 l 229 901 l 229 570 l 715 570 l 715 461 l 229 461 l 229 110 l 755 110 l 755 0 l 105 0 m 383 1104 l 253 1305 l 385 1305 l 480 1104 l 383 1104 z "},"Ё":{"ha":812,"x_min":105,"x_max":755,"o":"m 105 0 l 105 1010 l 753 1010 l 753 901 l 229 901 l 229 570 l 715 570 l 715 461 l 229 461 l 229 110 l 755 110 l 755 0 l 105 0 m 572 1147 q 516 1170 539 1147 q 493 1225 493 1193 q 516 1282 493 1259 q 572 1305 539 1305 q 628 1282 605 1305 q 651 1225 651 1259 q 628 1170 651 1193 q 572 1147 605 1147 m 288 1147 q 232 1170 256 1147 q 209 1225 209 1193 q 232 1282 209 1259 q 288 1305 256 1305 q 344 1282 321 1305 q 367 1225 367 1259 q 344 1170 367 1193 q 288 1147 321 1147 z "},"Ӗ":{"ha":812,"x_min":105,"x_max":755,"o":"m 105 0 l 105 1010 l 753 1010 l 753 901 l 229 901 l 229 570 l 715 570 l 715 461 l 229 461 l 229 110 l 755 110 l 755 0 l 105 0 m 429 1115 q 331 1140 375 1115 q 261 1209 288 1166 q 235 1305 235 1253 l 323 1305 q 353 1229 323 1259 q 430 1200 383 1200 q 506 1229 476 1200 q 536 1305 536 1259 l 624 1305 q 598 1210 624 1253 q 528 1141 572 1166 q 429 1115 484 1115 z "},"F":{"ha":781,"x_min":105,"x_max":735,"o":"m 105 0 l 105 1010 l 735 1010 l 735 901 l 229 901 l 229 567 l 693 567 l 693 457 l 229 457 l 229 0 l 105 0 z "},"Ƒ":{"ha":781,"x_min":-39,"x_max":735,"o":"m -39 -283 l -39 -177 q -7 -178 -28 -178 q 23 -178 14 -178 q 87 -162 69 -178 q 105 -110 105 -146 l 105 87 l 229 87 l 229 -115 q 179 -241 229 -198 q 35 -285 130 -285 q -6 -284 12 -285 q -39 -283 -25 -284 m 105 0 l 105 1010 l 735 1010 l 735 901 l 229 901 l 229 567 l 693 567 l 693 457 l 229 457 l 229 0 l 105 0 z "},"Ḟ":{"ha":781,"x_min":105,"x_max":735,"o":"m 105 0 l 105 1010 l 735 1010 l 735 901 l 229 901 l 229 567 l 693 567 l 693 457 l 229 457 l 229 0 l 105 0 m 420 1147 q 364 1170 387 1147 q 340 1225 340 1193 q 364 1282 340 1259 q 420 1305 387 1305 q 477 1282 454 1305 q 500 1225 500 1259 q 477 1170 500 1193 q 420 1147 454 1147 z "},"Ⅎ":{"ha":781,"x_min":45,"x_max":675,"o":"m 675 1010 l 675 0 l 45 0 l 45 110 l 552 110 l 552 444 l 87 444 l 87 553 l 552 553 l 552 1010 l 675 1010 z "},"G":{"ha":1019,"x_min":66,"x_max":949,"o":"m 526 -16 q 288 50 391 -16 q 125 234 184 116 q 66 505 66 351 q 125 777 66 659 q 287 960 184 895 q 524 1026 391 1026 q 674 1001 604 1026 q 800 931 745 977 q 893 823 856 886 q 943 686 930 761 l 817 686 q 779 778 805 736 q 713 849 752 819 q 627 895 675 879 q 524 911 579 911 q 350 860 426 911 q 231 719 274 810 q 189 505 189 627 q 231 292 189 382 q 350 150 274 201 q 526 100 427 100 q 679 137 610 100 q 787 242 747 175 q 827 399 827 310 l 867 397 l 564 397 l 564 506 l 949 506 l 949 396 q 893 184 949 277 q 742 38 838 91 q 526 -16 646 -16 z "},"Ǥ":{"ha":1019,"x_min":66,"x_max":998,"o":"m 526 -16 q 288 50 391 -16 q 125 234 184 116 q 66 505 66 351 q 125 777 66 659 q 287 960 184 895 q 524 1026 391 1026 q 674 1001 604 1026 q 800 931 745 977 q 893 823 856 886 q 943 686 930 761 l 817 686 q 779 778 805 736 q 713 849 752 819 q 627 895 675 879 q 524 911 579 911 q 350 860 426 911 q 231 719 274 810 q 189 505 189 627 q 231 292 189 382 q 350 150 274 201 q 526 100 427 100 q 679 137 610 100 q 787 242 747 175 q 827 399 827 310 l 867 397 l 564 397 l 564 506 l 949 506 l 949 396 q 893 184 949 277 q 742 38 838 91 q 526 -16 646 -16 m 564 218 l 564 315 l 998 315 l 998 218 l 564 218 z "},"Ɠ":{"ha":1019,"x_min":66,"x_max":1091,"o":"m 829 686 l 829 968 q 879 1095 829 1052 q 1023 1138 928 1138 q 1062 1138 1046 1138 q 1091 1137 1078 1137 l 1091 1036 q 1060 1036 1080 1036 q 1029 1036 1040 1036 q 963 1020 983 1036 q 943 968 943 1004 l 943 686 l 829 686 m 526 -16 q 288 50 391 -16 q 125 234 184 116 q 66 505 66 351 q 125 777 66 659 q 287 960 184 895 q 524 1026 391 1026 q 674 1001 604 1026 q 800 931 745 977 q 893 823 856 886 q 943 686 930 761 l 817 686 q 779 778 805 736 q 713 849 752 819 q 627 895 675 879 q 524 911 579 911 q 350 860 426 911 q 231 719 274 810 q 189 505 189 627 q 231 292 189 382 q 350 150 274 201 q 526 100 427 100 q 679 137 610 100 q 787 242 747 175 q 827 399 827 310 l 867 397 l 564 397 l 564 506 l 949 506 l 949 396 q 893 184 949 277 q 742 38 838 91 q 526 -16 646 -16 z "},"Ĝ":{"ha":1019,"x_min":66,"x_max":949,"o":"m 526 -16 q 288 50 391 -16 q 125 234 184 116 q 66 505 66 351 q 125 777 66 659 q 287 960 184 895 q 524 1026 391 1026 q 674 1001 604 1026 q 800 931 745 977 q 893 823 856 886 q 943 686 930 761 l 817 686 q 779 778 805 736 q 713 849 752 819 q 627 895 675 879 q 524 911 579 911 q 350 860 426 911 q 231 719 274 810 q 189 505 189 627 q 231 292 189 382 q 350 150 274 201 q 526 100 427 100 q 679 137 610 100 q 787 242 747 175 q 827 399 827 310 l 867 397 l 564 397 l 564 506 l 949 506 l 949 396 q 893 184 949 277 q 742 38 838 91 q 526 -16 646 -16 m 419 1120 l 303 1120 l 303 1121 l 460 1305 l 573 1305 l 731 1121 l 731 1120 l 613 1120 l 517 1238 l 419 1120 z "},"Ğ":{"ha":1019,"x_min":66,"x_max":949,"o":"m 526 -16 q 288 50 391 -16 q 125 234 184 116 q 66 505 66 351 q 125 777 66 659 q 287 960 184 895 q 524 1026 391 1026 q 674 1001 604 1026 q 800 931 745 977 q 893 823 856 886 q 943 686 930 761 l 817 686 q 779 778 805 736 q 713 849 752 819 q 627 895 675 879 q 524 911 579 911 q 350 860 426 911 q 231 719 274 810 q 189 505 189 627 q 231 292 189 382 q 350 150 274 201 q 526 100 427 100 q 679 137 610 100 q 787 242 747 175 q 827 399 827 310 l 867 397 l 564 397 l 564 506 l 949 506 l 949 396 q 893 184 949 277 q 742 38 838 91 q 526 -16 646 -16 m 517 1115 q 419 1140 463 1115 q 349 1209 375 1166 q 323 1305 323 1253 l 410 1305 q 440 1229 410 1259 q 517 1200 471 1200 q 594 1229 564 1200 q 624 1305 624 1259 l 711 1305 q 686 1210 711 1253 q 616 1141 660 1166 q 517 1115 572 1115 z "},"Ġ":{"ha":1019,"x_min":66,"x_max":949,"o":"m 526 -16 q 288 50 391 -16 q 125 234 184 116 q 66 505 66 351 q 125 777 66 659 q 287 960 184 895 q 524 1026 391 1026 q 674 1001 604 1026 q 800 931 745 977 q 893 823 856 886 q 943 686 930 761 l 817 686 q 779 778 805 736 q 713 849 752 819 q 627 895 675 879 q 524 911 579 911 q 350 860 426 911 q 231 719 274 810 q 189 505 189 627 q 231 292 189 382 q 350 150 274 201 q 526 100 427 100 q 679 137 610 100 q 787 242 747 175 q 827 399 827 310 l 867 397 l 564 397 l 564 506 l 949 506 l 949 396 q 893 184 949 277 q 742 38 838 91 q 526 -16 646 -16 m 517 1147 q 460 1170 484 1147 q 437 1225 437 1193 q 460 1282 437 1259 q 516 1305 484 1305 q 573 1282 550 1305 q 597 1225 597 1259 q 573 1170 597 1193 q 517 1147 550 1147 z "},"Ģ":{"ha":1019,"x_min":66,"x_max":949,"o":"m 526 -16 q 288 50 391 -16 q 125 234 184 116 q 66 505 66 351 q 125 777 66 659 q 287 960 184 895 q 524 1026 391 1026 q 674 1001 604 1026 q 800 931 745 977 q 893 823 856 886 q 943 686 930 761 l 817 686 q 779 778 805 736 q 713 849 752 819 q 627 895 675 879 q 524 911 579 911 q 350 860 426 911 q 231 719 274 810 q 189 505 189 627 q 231 292 189 382 q 350 150 274 201 q 526 100 427 100 q 679 137 610 100 q 787 242 747 175 q 827 399 827 310 l 867 397 l 564 397 l 564 506 l 949 506 l 949 396 q 893 184 949 277 q 742 38 838 91 q 526 -16 646 -16 m 400 -335 l 454 -80 l 575 -80 l 490 -335 l 400 -335 z "},"Ǧ":{"ha":1019,"x_min":66,"x_max":949,"o":"m 526 -16 q 288 50 391 -16 q 125 234 184 116 q 66 505 66 351 q 125 777 66 659 q 287 960 184 895 q 524 1026 391 1026 q 674 1001 604 1026 q 800 931 745 977 q 893 823 856 886 q 943 686 930 761 l 817 686 q 779 778 805 736 q 713 849 752 819 q 627 895 675 879 q 524 911 579 911 q 350 860 426 911 q 231 719 274 810 q 189 505 189 627 q 231 292 189 382 q 350 150 274 201 q 526 100 427 100 q 679 137 610 100 q 787 242 747 175 q 827 399 827 310 l 867 397 l 564 397 l 564 506 l 949 506 l 949 396 q 893 184 949 277 q 742 38 838 91 q 526 -16 646 -16 m 419 1305 l 517 1186 l 613 1305 l 731 1305 l 731 1303 l 573 1120 l 460 1120 l 303 1303 l 303 1305 l 419 1305 z "},"Ǵ":{"ha":1019,"x_min":66,"x_max":949,"o":"m 526 -16 q 288 50 391 -16 q 125 234 184 116 q 66 505 66 351 q 125 777 66 659 q 287 960 184 895 q 524 1026 391 1026 q 674 1001 604 1026 q 800 931 745 977 q 893 823 856 886 q 943 686 930 761 l 817 686 q 779 778 805 736 q 713 849 752 819 q 627 895 675 879 q 524 911 579 911 q 350 860 426 911 q 231 719 274 810 q 189 505 189 627 q 231 292 189 382 q 350 150 274 201 q 526 100 427 100 q 679 137 610 100 q 787 242 747 175 q 827 399 827 310 l 867 397 l 564 397 l 564 506 l 949 506 l 949 396 q 893 184 949 277 q 742 38 838 91 q 526 -16 646 -16 m 466 1104 l 561 1305 l 693 1305 l 563 1104 l 466 1104 z "},"Ḡ":{"ha":1019,"x_min":66,"x_max":949,"o":"m 526 -16 q 288 50 391 -16 q 125 234 184 116 q 66 505 66 351 q 125 777 66 659 q 287 960 184 895 q 524 1026 391 1026 q 674 1001 604 1026 q 800 931 745 977 q 893 823 856 886 q 943 686 930 761 l 817 686 q 779 778 805 736 q 713 849 752 819 q 627 895 675 879 q 524 911 579 911 q 350 860 426 911 q 231 719 274 810 q 189 505 189 627 q 231 292 189 382 q 350 150 274 201 q 526 100 427 100 q 679 137 610 100 q 787 242 747 175 q 827 399 827 310 l 867 397 l 564 397 l 564 506 l 949 506 l 949 396 q 893 184 949 277 q 742 38 838 91 q 526 -16 646 -16 m 704 1257 l 704 1161 l 330 1161 l 330 1257 l 704 1257 z "},"":{"ha":1036,"x_min":66,"x_max":950,"o":"m 523 -16 q 287 50 390 -16 q 125 234 184 116 q 66 505 66 351 q 125 777 66 659 q 287 960 184 895 q 524 1026 391 1026 q 674 1001 604 1026 q 800 931 745 977 q 893 823 856 886 q 943 686 930 761 l 817 686 q 779 778 805 736 q 713 849 752 819 q 627 895 675 879 q 524 911 579 911 q 350 860 426 911 q 231 719 274 810 q 189 505 189 627 q 231 292 189 382 q 350 150 274 201 q 526 100 427 100 q 681 138 612 100 q 790 246 749 176 q 831 414 831 317 l 888 414 l 888 334 q 865 206 888 269 q 796 94 842 144 q 682 14 750 44 q 523 -16 614 -16 m 852 0 l 831 203 l 831 397 l 564 397 l 564 506 l 950 506 l 950 0 l 852 0 z "},"":{"ha":1036,"x_min":66,"x_max":998,"o":"m 523 -16 q 287 50 390 -16 q 125 234 184 116 q 66 505 66 351 q 125 777 66 659 q 287 960 184 895 q 524 1026 391 1026 q 674 1001 604 1026 q 800 931 745 977 q 893 823 856 886 q 943 686 930 761 l 817 686 q 779 778 805 736 q 713 849 752 819 q 627 895 675 879 q 524 911 579 911 q 350 860 426 911 q 231 719 274 810 q 189 505 189 627 q 231 292 189 382 q 350 150 274 201 q 526 100 427 100 q 681 138 612 100 q 790 246 749 176 q 831 414 831 317 l 888 414 l 888 334 q 865 206 888 269 q 796 94 842 144 q 682 14 750 44 q 523 -16 614 -16 m 852 0 l 831 203 l 831 397 l 564 397 l 564 506 l 950 506 l 950 0 l 852 0 m 564 218 l 564 315 l 998 315 l 998 218 l 564 218 z "},"":{"ha":1036,"x_min":66,"x_max":1091,"o":"m 829 686 l 829 968 q 879 1095 829 1052 q 1023 1138 928 1138 q 1062 1138 1046 1138 q 1091 1137 1078 1137 l 1091 1036 q 1060 1036 1080 1036 q 1029 1036 1040 1036 q 963 1020 983 1036 q 943 968 943 1004 l 943 686 l 829 686 m 523 -16 q 287 50 390 -16 q 125 234 184 116 q 66 505 66 351 q 125 777 66 659 q 287 960 184 895 q 524 1026 391 1026 q 674 1001 604 1026 q 800 931 745 977 q 893 823 856 886 q 943 686 930 761 l 817 686 q 779 778 805 736 q 713 849 752 819 q 627 895 675 879 q 524 911 579 911 q 350 860 426 911 q 231 719 274 810 q 189 505 189 627 q 231 292 189 382 q 350 150 274 201 q 526 100 427 100 q 681 138 612 100 q 790 246 749 176 q 831 414 831 317 l 888 414 l 888 334 q 865 206 888 269 q 796 94 842 144 q 682 14 750 44 q 523 -16 614 -16 m 852 0 l 831 203 l 831 397 l 564 397 l 564 506 l 950 506 l 950 0 l 852 0 z "},"":{"ha":1036,"x_min":66,"x_max":950,"o":"m 523 -16 q 287 50 390 -16 q 125 234 184 116 q 66 505 66 351 q 125 777 66 659 q 287 960 184 895 q 524 1026 391 1026 q 674 1001 604 1026 q 800 931 745 977 q 893 823 856 886 q 943 686 930 761 l 817 686 q 779 778 805 736 q 713 849 752 819 q 627 895 675 879 q 524 911 579 911 q 350 860 426 911 q 231 719 274 810 q 189 505 189 627 q 231 292 189 382 q 350 150 274 201 q 526 100 427 100 q 681 138 612 100 q 790 246 749 176 q 831 414 831 317 l 888 414 l 888 334 q 865 206 888 269 q 796 94 842 144 q 682 14 750 44 q 523 -16 614 -16 m 852 0 l 831 203 l 831 397 l 564 397 l 564 506 l 950 506 l 950 0 l 852 0 m 420 1120 l 304 1120 l 304 1121 l 461 1305 l 574 1305 l 732 1121 l 732 1120 l 614 1120 l 518 1238 l 420 1120 z "},"":{"ha":1036,"x_min":66,"x_max":950,"o":"m 523 -16 q 287 50 390 -16 q 125 234 184 116 q 66 505 66 351 q 125 777 66 659 q 287 960 184 895 q 524 1026 391 1026 q 674 1001 604 1026 q 800 931 745 977 q 893 823 856 886 q 943 686 930 761 l 817 686 q 779 778 805 736 q 713 849 752 819 q 627 895 675 879 q 524 911 579 911 q 350 860 426 911 q 231 719 274 810 q 189 505 189 627 q 231 292 189 382 q 350 150 274 201 q 526 100 427 100 q 681 138 612 100 q 790 246 749 176 q 831 414 831 317 l 888 414 l 888 334 q 865 206 888 269 q 796 94 842 144 q 682 14 750 44 q 523 -16 614 -16 m 852 0 l 831 203 l 831 397 l 564 397 l 564 506 l 950 506 l 950 0 l 852 0 m 517 1115 q 419 1140 463 1115 q 350 1209 376 1166 q 323 1305 323 1253 l 411 1305 q 441 1229 411 1259 q 518 1200 471 1200 q 594 1229 564 1200 q 625 1305 625 1259 l 712 1305 q 686 1210 712 1253 q 616 1141 661 1166 q 517 1115 572 1115 z "},"":{"ha":1036,"x_min":66,"x_max":950,"o":"m 523 -16 q 287 50 390 -16 q 125 234 184 116 q 66 505 66 351 q 125 777 66 659 q 287 960 184 895 q 524 1026 391 1026 q 674 1001 604 1026 q 800 931 745 977 q 893 823 856 886 q 943 686 930 761 l 817 686 q 779 778 805 736 q 713 849 752 819 q 627 895 675 879 q 524 911 579 911 q 350 860 426 911 q 231 719 274 810 q 189 505 189 627 q 231 292 189 382 q 350 150 274 201 q 526 100 427 100 q 681 138 612 100 q 790 246 749 176 q 831 414 831 317 l 888 414 l 888 334 q 865 206 888 269 q 796 94 842 144 q 682 14 750 44 q 523 -16 614 -16 m 852 0 l 831 203 l 831 397 l 564 397 l 564 506 l 950 506 l 950 0 l 852 0 m 518 1147 q 461 1170 485 1147 q 438 1225 438 1193 q 461 1282 438 1259 q 517 1305 485 1305 q 575 1282 551 1305 q 598 1225 598 1259 q 575 1170 598 1193 q 518 1147 551 1147 z "},"":{"ha":1036,"x_min":66,"x_max":950,"o":"m 523 -16 q 287 50 390 -16 q 125 234 184 116 q 66 505 66 351 q 125 777 66 659 q 287 960 184 895 q 524 1026 391 1026 q 674 1001 604 1026 q 800 931 745 977 q 893 823 856 886 q 943 686 930 761 l 817 686 q 779 778 805 736 q 713 849 752 819 q 627 895 675 879 q 524 911 579 911 q 350 860 426 911 q 231 719 274 810 q 189 505 189 627 q 231 292 189 382 q 350 150 274 201 q 526 100 427 100 q 681 138 612 100 q 790 246 749 176 q 831 414 831 317 l 888 414 l 888 334 q 865 206 888 269 q 796 94 842 144 q 682 14 750 44 q 523 -16 614 -16 m 852 0 l 831 203 l 831 397 l 564 397 l 564 506 l 950 506 l 950 0 l 852 0 m 401 -335 l 456 -80 l 576 -80 l 492 -335 l 401 -335 z "},"":{"ha":1036,"x_min":66,"x_max":950,"o":"m 523 -16 q 287 50 390 -16 q 125 234 184 116 q 66 505 66 351 q 125 777 66 659 q 287 960 184 895 q 524 1026 391 1026 q 674 1001 604 1026 q 800 931 745 977 q 893 823 856 886 q 943 686 930 761 l 817 686 q 779 778 805 736 q 713 849 752 819 q 627 895 675 879 q 524 911 579 911 q 350 860 426 911 q 231 719 274 810 q 189 505 189 627 q 231 292 189 382 q 350 150 274 201 q 526 100 427 100 q 681 138 612 100 q 790 246 749 176 q 831 414 831 317 l 888 414 l 888 334 q 865 206 888 269 q 796 94 842 144 q 682 14 750 44 q 523 -16 614 -16 m 852 0 l 831 203 l 831 397 l 564 397 l 564 506 l 950 506 l 950 0 l 852 0 m 420 1305 l 518 1186 l 614 1305 l 732 1305 l 732 1303 l 574 1120 l 461 1120 l 304 1303 l 304 1305 l 420 1305 z "},"":{"ha":1036,"x_min":66,"x_max":950,"o":"m 523 -16 q 287 50 390 -16 q 125 234 184 116 q 66 505 66 351 q 125 777 66 659 q 287 960 184 895 q 524 1026 391 1026 q 674 1001 604 1026 q 800 931 745 977 q 893 823 856 886 q 943 686 930 761 l 817 686 q 779 778 805 736 q 713 849 752 819 q 627 895 675 879 q 524 911 579 911 q 350 860 426 911 q 231 719 274 810 q 189 505 189 627 q 231 292 189 382 q 350 150 274 201 q 526 100 427 100 q 681 138 612 100 q 790 246 749 176 q 831 414 831 317 l 888 414 l 888 334 q 865 206 888 269 q 796 94 842 144 q 682 14 750 44 q 523 -16 614 -16 m 852 0 l 831 203 l 831 397 l 564 397 l 564 506 l 950 506 l 950 0 l 852 0 m 467 1104 l 562 1305 l 694 1305 l 564 1104 l 467 1104 z "},"":{"ha":1036,"x_min":66,"x_max":950,"o":"m 523 -16 q 287 50 390 -16 q 125 234 184 116 q 66 505 66 351 q 125 777 66 659 q 287 960 184 895 q 524 1026 391 1026 q 674 1001 604 1026 q 800 931 745 977 q 893 823 856 886 q 943 686 930 761 l 817 686 q 779 778 805 736 q 713 849 752 819 q 627 895 675 879 q 524 911 579 911 q 350 860 426 911 q 231 719 274 810 q 189 505 189 627 q 231 292 189 382 q 350 150 274 201 q 526 100 427 100 q 681 138 612 100 q 790 246 749 176 q 831 414 831 317 l 888 414 l 888 334 q 865 206 888 269 q 796 94 842 144 q 682 14 750 44 q 523 -16 614 -16 m 852 0 l 831 203 l 831 397 l 564 397 l 564 506 l 950 506 l 950 0 l 852 0 m 705 1257 l 705 1161 l 331 1161 l 331 1257 l 705 1257 z "},"H":{"ha":994,"x_min":105,"x_max":889,"o":"m 105 0 l 105 1010 l 229 1010 l 229 572 l 766 572 l 766 1010 l 889 1010 l 889 0 l 766 0 l 766 463 l 229 463 l 229 0 l 105 0 z "},"Ḩ":{"ha":994,"x_min":92,"x_max":889,"o":"m 105 0 l 105 1010 l 229 1010 l 229 572 l 766 572 l 766 1010 l 889 1010 l 889 0 l 766 0 l 766 463 l 229 463 l 229 0 l 105 0 m 92 -283 l 92 -213 l 172 -213 q 222 -202 206 -213 q 238 -168 238 -191 q 222 -134 238 -145 q 172 -123 206 -123 l 116 -123 l 136 33 l 200 33 l 200 0 l 200 -58 q 294 -90 260 -61 q 328 -168 328 -119 q 286 -256 328 -228 q 172 -283 244 -283 l 92 -283 z "},"Ĥ":{"ha":994,"x_min":105,"x_max":889,"o":"m 105 0 l 105 1010 l 229 1010 l 229 572 l 766 572 l 766 1010 l 889 1010 l 889 0 l 766 0 l 766 463 l 229 463 l 229 0 l 105 0 m 399 1120 l 283 1120 l 283 1121 l 440 1305 l 553 1305 l 711 1121 l 711 1120 l 593 1120 l 497 1238 l 399 1120 z "},"Ȟ":{"ha":994,"x_min":105,"x_max":889,"o":"m 105 0 l 105 1010 l 229 1010 l 229 572 l 766 572 l 766 1010 l 889 1010 l 889 0 l 766 0 l 766 463 l 229 463 l 229 0 l 105 0 m 399 1305 l 497 1186 l 593 1305 l 711 1305 l 711 1303 l 553 1120 l 440 1120 l 283 1303 l 283 1305 l 399 1305 z "},"Ḣ":{"ha":994,"x_min":105,"x_max":889,"o":"m 105 0 l 105 1010 l 229 1010 l 229 572 l 766 572 l 766 1010 l 889 1010 l 889 0 l 766 0 l 766 463 l 229 463 l 229 0 l 105 0 m 497 1147 q 440 1170 464 1147 q 417 1225 417 1193 q 440 1282 417 1259 q 496 1305 464 1305 q 554 1282 530 1305 q 577 1225 577 1259 q 554 1170 577 1193 q 497 1147 530 1147 z "},"Ḥ":{"ha":994,"x_min":105,"x_max":889,"o":"m 105 0 l 105 1010 l 229 1010 l 229 572 l 766 572 l 766 1010 l 889 1010 l 889 0 l 766 0 l 766 463 l 229 463 l 229 0 l 105 0 m 498 -294 q 441 -271 465 -294 q 418 -216 418 -248 q 441 -159 418 -182 q 497 -136 465 -136 q 554 -159 531 -136 q 578 -216 578 -182 q 554 -271 578 -248 q 498 -294 531 -294 z "},"Ḧ":{"ha":994,"x_min":105,"x_max":889,"o":"m 105 0 l 105 1010 l 229 1010 l 229 572 l 766 572 l 766 1010 l 889 1010 l 889 0 l 766 0 l 766 463 l 229 463 l 229 0 l 105 0 m 640 1147 q 583 1170 606 1147 q 560 1225 560 1193 q 583 1282 560 1259 q 640 1305 606 1305 q 695 1282 672 1305 q 718 1225 718 1259 q 695 1170 718 1193 q 640 1147 672 1147 m 355 1147 q 299 1170 323 1147 q 276 1225 276 1193 q 299 1282 276 1259 q 355 1305 323 1305 q 411 1282 388 1305 q 434 1225 434 1259 q 411 1170 434 1193 q 355 1147 388 1147 z "},"Ḫ":{"ha":994,"x_min":105,"x_max":889,"o":"m 105 0 l 105 1010 l 229 1010 l 229 572 l 766 572 l 766 1010 l 889 1010 l 889 0 l 766 0 l 766 463 l 229 463 l 229 0 l 105 0 m 497 -311 q 399 -286 443 -311 q 329 -217 355 -260 q 303 -121 303 -174 l 391 -121 q 421 -197 391 -168 q 498 -227 451 -227 q 574 -197 544 -227 q 604 -121 604 -168 l 692 -121 q 666 -217 692 -174 q 596 -286 640 -260 q 497 -311 552 -311 z "},"Ħ":{"ha":1027,"x_min":41,"x_max":987,"o":"m 987 798 l 987 694 l 41 694 l 41 798 l 987 798 m 123 0 l 123 1010 l 246 1010 l 246 572 l 783 572 l 783 1010 l 906 1010 l 906 0 l 783 0 l 783 463 l 246 463 l 246 0 l 123 0 z "},"Ӈ":{"ha":994,"x_min":105,"x_max":889,"o":"m 622 -283 l 622 -177 q 653 -178 633 -178 q 684 -178 673 -178 q 748 -162 730 -178 q 766 -110 766 -146 l 766 87 l 889 87 l 889 -115 q 840 -241 889 -198 q 695 -285 790 -285 q 654 -284 673 -285 q 622 -283 635 -284 m 105 0 l 105 1010 l 229 1010 l 229 572 l 766 572 l 766 1010 l 889 1010 l 889 0 l 766 0 l 766 463 l 229 463 l 229 0 l 105 0 z "},"Ң":{"ha":1009,"x_min":105,"x_max":983,"o":"m 105 0 l 105 1010 l 229 1010 l 229 572 l 766 572 l 766 1010 l 889 1010 l 889 0 l 766 0 l 766 463 l 229 463 l 229 0 l 105 0 m 865 -217 l 865 0 l 815 0 l 815 109 l 983 109 l 982 -217 l 865 -217 z "},"Ӊ":{"ha":994,"x_min":105,"x_max":1021,"o":"m 105 0 l 105 1010 l 229 1010 l 229 572 l 766 572 l 766 1010 l 889 1010 l 889 0 l 766 0 l 766 463 l 229 463 l 229 0 l 105 0 m 806 -217 l 871 0 l 827 0 l 827 109 l 1020 109 l 923 -217 l 806 -217 z "},"Ҥ":{"ha":1326,"x_min":105,"x_max":1285,"o":"m 1285 1010 l 1285 902 l 855 902 l 768 1010 l 1285 1010 m 105 0 l 105 1010 l 229 1010 l 229 572 l 766 572 l 766 1010 l 889 1010 l 889 0 l 766 0 l 766 463 l 229 463 l 229 0 l 105 0 z "},"Ƕ":{"ha":1464,"x_min":105,"x_max":1374,"o":"m 1071 -14 q 909 22 978 -14 q 803 123 841 57 q 766 282 766 190 l 766 460 l 229 460 l 229 0 l 105 0 l 105 1010 l 229 1010 l 229 570 l 766 570 l 766 1010 l 889 1010 l 889 287 q 910 182 889 224 q 971 117 930 139 q 1071 95 1012 95 q 1171 117 1130 95 q 1234 182 1213 139 q 1256 287 1256 224 l 1256 725 l 1374 725 l 1374 282 q 1337 123 1374 190 q 1231 22 1299 57 q 1071 -14 1163 -14 z "},"Η":{"ha":994,"x_min":105,"x_max":889,"o":"m 105 0 l 105 1010 l 229 1010 l 229 572 l 766 572 l 766 1010 l 889 1010 l 889 0 l 766 0 l 766 463 l 229 463 l 229 0 l 105 0 z "},"Ή":{"ha":1152,"x_min":41,"x_max":1046,"o":"m 262 0 l 262 1010 l 386 1010 l 386 572 l 923 572 l 923 1010 l 1046 1010 l 1046 0 l 923 0 l 923 463 l 386 463 l 386 0 l 262 0 m 41 809 l 67 1010 l 186 1010 l 123 809 l 41 809 z "},"Ἠ":{"ha":1190,"x_min":41,"x_max":1085,"o":"m 301 0 l 301 1010 l 425 1010 l 425 572 l 962 572 l 962 1010 l 1085 1010 l 1085 0 l 962 0 l 962 463 l 425 463 l 425 0 l 301 0 m 62 810 l 55 810 l 55 863 l 62 863 q 114 874 96 863 q 132 907 132 886 q 114 936 132 926 q 62 945 96 945 l 41 945 l 41 1022 l 62 1022 q 181 995 138 1022 q 223 918 223 967 q 181 840 223 869 q 62 810 138 810 z "},"Ἡ":{"ha":1204,"x_min":41,"x_max":1099,"o":"m 315 0 l 315 1010 l 439 1010 l 439 572 l 976 572 l 976 1010 l 1099 1010 l 1099 0 l 976 0 l 976 463 l 439 463 l 439 0 l 315 0 m 202 801 q 84 831 127 801 q 41 909 41 861 q 84 986 41 958 q 202 1013 127 1013 l 223 1013 l 223 937 l 202 937 q 151 927 169 937 q 133 899 133 917 q 151 865 133 877 q 202 854 169 854 l 210 854 l 210 801 l 202 801 z "},"Ἢ":{"ha":1375,"x_min":41,"x_max":1270,"o":"m 486 0 l 486 1010 l 609 1010 l 609 572 l 1146 572 l 1146 1010 l 1270 1010 l 1270 0 l 1146 0 l 1146 463 l 609 463 l 609 0 l 486 0 m 62 801 l 55 801 l 55 854 l 62 854 q 114 865 96 854 q 132 899 132 877 q 114 927 132 917 q 62 937 96 937 l 41 937 l 41 1013 l 62 1013 q 181 986 138 1013 q 223 909 223 958 q 181 831 223 861 q 62 801 138 801 m 387 803 l 306 803 l 245 1010 l 361 1010 l 387 803 z "},"Ἣ":{"ha":1382,"x_min":41,"x_max":1277,"o":"m 493 0 l 493 1010 l 616 1010 l 616 572 l 1154 572 l 1154 1010 l 1277 1010 l 1277 0 l 1154 0 l 1154 463 l 616 463 l 616 0 l 493 0 m 202 801 q 84 831 127 801 q 41 909 41 861 q 84 986 41 958 q 202 1013 127 1013 l 223 1013 l 223 937 l 202 937 q 151 927 169 937 q 133 899 133 917 q 151 865 133 877 q 202 854 169 854 l 210 854 l 210 801 l 202 801 m 406 803 l 326 803 l 264 1010 l 380 1010 l 406 803 z "},"Ἤ":{"ha":1383,"x_min":41,"x_max":1278,"o":"m 494 0 l 494 1010 l 618 1010 l 618 572 l 1155 572 l 1155 1010 l 1278 1010 l 1278 0 l 1155 0 l 1155 463 l 618 463 l 618 0 l 494 0 m 62 801 l 55 801 l 55 854 l 62 854 q 114 865 96 854 q 132 899 132 877 q 114 927 132 917 q 62 937 96 937 l 41 937 l 41 1013 l 62 1013 q 181 986 138 1013 q 223 909 223 958 q 181 831 223 861 q 62 801 138 801 m 285 803 l 311 1010 l 427 1010 l 366 803 l 285 803 z "},"Ἥ":{"ha":1389,"x_min":41,"x_max":1284,"o":"m 500 0 l 500 1010 l 623 1010 l 623 572 l 1160 572 l 1160 1010 l 1284 1010 l 1284 0 l 1160 0 l 1160 463 l 623 463 l 623 0 l 500 0 m 202 801 q 84 831 127 801 q 41 909 41 861 q 84 986 41 958 q 202 1013 127 1013 l 223 1013 l 223 937 l 202 937 q 151 927 169 937 q 133 899 133 917 q 151 865 133 877 q 202 854 169 854 l 210 854 l 210 801 l 202 801 m 284 803 l 309 1010 l 425 1010 l 365 803 l 284 803 z "},"Ἦ":{"ha":1301,"x_min":41,"x_max":1196,"o":"m 412 0 l 412 1010 l 535 1010 l 535 572 l 1072 572 l 1072 1010 l 1196 1010 l 1196 0 l 1072 0 l 1072 463 l 535 463 l 535 0 l 412 0 m 166 806 l 159 806 l 159 859 l 166 859 q 217 871 199 859 q 235 903 235 882 q 217 932 235 922 q 166 942 199 942 l 145 942 l 145 1019 l 166 1019 q 284 991 242 1019 q 327 915 327 964 q 284 836 327 866 q 166 806 242 806 m 324 1071 q 276 1079 300 1071 q 231 1098 252 1087 q 191 1118 209 1109 q 161 1126 173 1126 q 135 1109 143 1126 q 125 1073 127 1092 l 41 1073 q 70 1173 43 1133 q 149 1212 96 1212 q 197 1203 175 1212 q 239 1183 220 1195 q 277 1163 259 1172 q 312 1155 295 1155 q 337 1167 329 1155 q 349 1209 346 1180 l 431 1209 q 401 1109 429 1147 q 324 1071 374 1071 z "},"Ἧ":{"ha":1310,"x_min":41,"x_max":1204,"o":"m 420 0 l 420 1010 l 544 1010 l 544 572 l 1081 572 l 1081 1010 l 1204 1010 l 1204 0 l 1081 0 l 1081 463 l 544 463 l 544 0 l 420 0 m 306 800 q 188 829 231 800 q 145 908 145 859 q 188 984 145 957 q 306 1012 231 1012 l 327 1012 l 327 935 l 306 935 q 255 925 273 935 q 237 897 237 916 q 255 864 237 876 q 306 852 273 852 l 313 852 l 313 800 l 306 800 m 324 1064 q 276 1072 300 1064 q 231 1092 252 1080 q 191 1111 209 1103 q 161 1119 173 1119 q 135 1102 143 1119 q 125 1066 127 1085 l 41 1066 q 70 1166 43 1126 q 149 1205 96 1205 q 197 1197 175 1205 q 239 1177 220 1188 q 277 1157 259 1165 q 312 1148 295 1148 q 337 1161 329 1148 q 349 1202 346 1173 l 431 1202 q 401 1102 429 1140 q 324 1064 374 1064 z "},"Ὴ":{"ha":1190,"x_min":-27,"x_max":1085,"o":"m 301 0 l 301 1010 l 425 1010 l 425 572 l 962 572 l 962 1010 l 1085 1010 l 1085 0 l 962 0 l 962 463 l 425 463 l 425 0 l 301 0 m 117 819 l 35 819 l -27 1021 l 92 1021 l 117 819 z "},"Ή":{"ha":1152,"x_min":41,"x_max":1046,"o":"m 262 0 l 262 1010 l 386 1010 l 386 572 l 923 572 l 923 1010 l 1046 1010 l 1046 0 l 923 0 l 923 463 l 386 463 l 386 0 l 262 0 m 41 809 l 67 1010 l 186 1010 l 123 809 l 41 809 z "},"Н":{"ha":994,"x_min":105,"x_max":889,"o":"m 105 0 l 105 1010 l 229 1010 l 229 572 l 766 572 l 766 1010 l 889 1010 l 889 0 l 766 0 l 766 463 l 229 463 l 229 0 l 105 0 z "},"ᾘ":{"ha":1190,"x_min":41,"x_max":1085,"o":"m 301 0 l 301 1010 l 425 1010 l 425 572 l 962 572 l 962 1010 l 1085 1010 l 1085 0 l 962 0 l 962 463 l 425 463 l 425 0 l 301 0 m 762 -335 q 672 -300 707 -335 q 638 -209 638 -266 l 638 -80 l 747 -80 l 747 -199 q 756 -236 747 -225 q 787 -248 766 -248 q 804 -248 795 -248 q 821 -247 812 -248 l 821 -333 q 792 -335 806 -334 q 762 -335 777 -335 m 62 810 l 55 810 l 55 863 l 62 863 q 114 874 96 863 q 132 907 132 886 q 114 936 132 926 q 62 945 96 945 l 41 945 l 41 1022 l 62 1022 q 181 995 138 1022 q 223 918 223 967 q 181 840 223 869 q 62 810 138 810 z "},"ᾙ":{"ha":1204,"x_min":41,"x_max":1099,"o":"m 315 0 l 315 1010 l 439 1010 l 439 572 l 976 572 l 976 1010 l 1099 1010 l 1099 0 l 976 0 l 976 463 l 439 463 l 439 0 l 315 0 m 776 -335 q 686 -300 720 -335 q 652 -209 652 -266 l 652 -80 l 761 -80 l 761 -199 q 770 -236 761 -225 q 800 -248 779 -248 q 817 -248 809 -248 q 834 -247 825 -248 l 834 -333 q 805 -335 820 -334 q 776 -335 791 -335 m 202 801 q 84 831 127 801 q 41 909 41 861 q 84 986 41 958 q 202 1013 127 1013 l 223 1013 l 223 937 l 202 937 q 151 927 169 937 q 133 899 133 917 q 151 865 133 877 q 202 854 169 854 l 210 854 l 210 801 l 202 801 z "},"ᾚ":{"ha":1375,"x_min":41,"x_max":1270,"o":"m 486 0 l 486 1010 l 609 1010 l 609 572 l 1146 572 l 1146 1010 l 1270 1010 l 1270 0 l 1146 0 l 1146 463 l 609 463 l 609 0 l 486 0 m 947 -335 q 857 -300 891 -335 q 823 -209 823 -266 l 823 -80 l 932 -80 l 932 -199 q 941 -236 932 -225 q 971 -248 950 -248 q 988 -248 980 -248 q 1005 -247 996 -248 l 1005 -333 q 976 -335 991 -334 q 947 -335 962 -335 m 62 801 l 55 801 l 55 854 l 62 854 q 114 865 96 854 q 132 899 132 877 q 114 927 132 917 q 62 937 96 937 l 41 937 l 41 1013 l 62 1013 q 181 986 138 1013 q 223 909 223 958 q 181 831 223 861 q 62 801 138 801 m 387 803 l 306 803 l 245 1010 l 361 1010 l 387 803 z "},"ᾛ":{"ha":1382,"x_min":41,"x_max":1277,"o":"m 493 0 l 493 1010 l 616 1010 l 616 572 l 1154 572 l 1154 1010 l 1277 1010 l 1277 0 l 1154 0 l 1154 463 l 616 463 l 616 0 l 493 0 m 954 -335 q 864 -300 898 -335 q 829 -209 829 -266 l 829 -80 l 939 -80 l 939 -199 q 948 -236 939 -225 q 978 -248 957 -248 q 995 -248 987 -248 q 1012 -247 1003 -248 l 1012 -333 q 983 -335 998 -334 q 954 -335 968 -335 m 202 801 q 84 831 127 801 q 41 909 41 861 q 84 986 41 958 q 202 1013 127 1013 l 223 1013 l 223 937 l 202 937 q 151 927 169 937 q 133 899 133 917 q 151 865 133 877 q 202 854 169 854 l 210 854 l 210 801 l 202 801 m 406 803 l 326 803 l 264 1010 l 380 1010 l 406 803 z "},"ᾜ":{"ha":1383,"x_min":41,"x_max":1278,"o":"m 494 0 l 494 1010 l 618 1010 l 618 572 l 1155 572 l 1155 1010 l 1278 1010 l 1278 0 l 1155 0 l 1155 463 l 618 463 l 618 0 l 494 0 m 955 -335 q 865 -300 899 -335 q 831 -209 831 -266 l 831 -80 l 940 -80 l 940 -199 q 949 -236 940 -225 q 979 -248 958 -248 q 996 -248 988 -248 q 1013 -247 1004 -248 l 1013 -333 q 984 -335 999 -334 q 955 -335 970 -335 m 62 801 l 55 801 l 55 854 l 62 854 q 114 865 96 854 q 132 899 132 877 q 114 927 132 917 q 62 937 96 937 l 41 937 l 41 1013 l 62 1013 q 181 986 138 1013 q 223 909 223 958 q 181 831 223 861 q 62 801 138 801 m 285 803 l 311 1010 l 427 1010 l 366 803 l 285 803 z "},"ᾝ":{"ha":1389,"x_min":41,"x_max":1284,"o":"m 500 0 l 500 1010 l 623 1010 l 623 572 l 1160 572 l 1160 1010 l 1284 1010 l 1284 0 l 1160 0 l 1160 463 l 623 463 l 623 0 l 500 0 m 960 -335 q 870 -300 905 -335 q 836 -209 836 -266 l 836 -80 l 945 -80 l 945 -199 q 955 -236 945 -225 q 985 -248 964 -248 q 1002 -248 994 -248 q 1019 -247 1010 -248 l 1019 -333 q 990 -335 1004 -334 q 960 -335 975 -335 m 202 801 q 84 831 127 801 q 41 909 41 861 q 84 986 41 958 q 202 1013 127 1013 l 223 1013 l 223 937 l 202 937 q 151 927 169 937 q 133 899 133 917 q 151 865 133 877 q 202 854 169 854 l 210 854 l 210 801 l 202 801 m 284 803 l 309 1010 l 425 1010 l 365 803 l 284 803 z "},"ᾞ":{"ha":1301,"x_min":41,"x_max":1196,"o":"m 412 0 l 412 1010 l 535 1010 l 535 572 l 1072 572 l 1072 1010 l 1196 1010 l 1196 0 l 1072 0 l 1072 463 l 535 463 l 535 0 l 412 0 m 873 -335 q 783 -300 817 -335 q 749 -209 749 -266 l 749 -80 l 858 -80 l 858 -199 q 867 -236 858 -225 q 897 -248 876 -248 q 914 -248 906 -248 q 931 -247 922 -248 l 931 -333 q 902 -335 917 -334 q 873 -335 888 -335 m 166 806 l 159 806 l 159 859 l 166 859 q 217 871 199 859 q 235 903 235 882 q 217 932 235 922 q 166 942 199 942 l 145 942 l 145 1019 l 166 1019 q 284 991 242 1019 q 327 915 327 964 q 284 836 327 866 q 166 806 242 806 m 324 1071 q 276 1079 300 1071 q 231 1098 252 1087 q 191 1118 209 1109 q 161 1126 173 1126 q 135 1109 143 1126 q 125 1073 127 1092 l 41 1073 q 70 1173 43 1133 q 149 1212 96 1212 q 197 1203 175 1212 q 239 1183 220 1195 q 277 1163 259 1172 q 312 1155 295 1155 q 337 1167 329 1155 q 349 1209 346 1180 l 431 1209 q 401 1109 429 1147 q 324 1071 374 1071 z "},"ᾟ":{"ha":1310,"x_min":41,"x_max":1204,"o":"m 420 0 l 420 1010 l 544 1010 l 544 572 l 1081 572 l 1081 1010 l 1204 1010 l 1204 0 l 1081 0 l 1081 463 l 544 463 l 544 0 l 420 0 m 881 -335 q 791 -300 825 -335 q 757 -209 757 -266 l 757 -80 l 866 -80 l 866 -199 q 875 -236 866 -225 q 905 -248 884 -248 q 922 -248 914 -248 q 939 -247 930 -248 l 939 -333 q 910 -335 925 -334 q 881 -335 896 -335 m 306 800 q 188 829 231 800 q 145 908 145 859 q 188 984 145 957 q 306 1012 231 1012 l 327 1012 l 327 935 l 306 935 q 255 925 273 935 q 237 897 237 916 q 255 864 237 876 q 306 852 273 852 l 313 852 l 313 800 l 306 800 m 324 1064 q 276 1072 300 1064 q 231 1092 252 1080 q 191 1111 209 1103 q 161 1119 173 1119 q 135 1102 143 1119 q 125 1066 127 1085 l 41 1066 q 70 1166 43 1126 q 149 1205 96 1205 q 197 1197 175 1205 q 239 1177 220 1188 q 277 1157 259 1165 q 312 1148 295 1148 q 337 1161 329 1148 q 349 1202 346 1173 l 431 1202 q 401 1102 429 1140 q 324 1064 374 1064 z "},"ῌ":{"ha":994,"x_min":105,"x_max":889,"o":"m 105 0 l 105 1010 l 229 1010 l 229 572 l 766 572 l 766 1010 l 889 1010 l 889 0 l 766 0 l 766 463 l 229 463 l 229 0 l 105 0 m 566 -335 q 476 -300 510 -335 q 441 -209 441 -266 l 441 -80 l 551 -80 l 551 -199 q 560 -236 551 -225 q 590 -248 569 -248 q 607 -248 599 -248 q 624 -247 615 -248 l 624 -333 q 595 -335 610 -334 q 566 -335 581 -335 z "},"I":{"ha":334,"x_min":105,"x_max":229,"o":"m 229 1010 l 229 0 l 105 0 l 105 1010 l 229 1010 z "},"":{"ha":668,"x_min":105,"x_max":563,"o":"m 229 1010 l 229 0 l 105 0 l 105 1010 l 229 1010 m 562 1010 l 562 0 l 439 0 l 439 1010 l 562 1010 z "},"Ï":{"ha":334,"x_min":-54,"x_max":388,"o":"m 229 1010 l 229 0 l 105 0 l 105 1010 l 229 1010 m 309 1147 q 253 1170 276 1147 q 230 1225 230 1193 q 253 1282 230 1259 q 309 1305 276 1305 q 365 1282 342 1305 q 388 1225 388 1259 q 365 1170 388 1193 q 309 1147 342 1147 m 25 1147 q -31 1170 -7 1147 q -54 1225 -54 1193 q -31 1282 -54 1259 q 25 1305 -7 1305 q 81 1282 58 1305 q 104 1225 104 1259 q 81 1170 104 1193 q 25 1147 58 1147 z "},"Ḯ":{"ha":334,"x_min":-58,"x_max":385,"o":"m 229 1010 l 229 0 l 105 0 l 105 1010 l 229 1010 m 306 1116 q 250 1139 273 1116 q 227 1195 227 1162 q 250 1251 227 1227 q 306 1274 273 1274 q 361 1251 338 1274 q 385 1195 385 1228 q 361 1139 385 1162 q 306 1116 338 1116 m 22 1116 q -34 1139 -11 1116 q -58 1195 -58 1162 q -34 1251 -58 1227 q 22 1274 -11 1274 q 77 1251 54 1274 q 100 1195 100 1228 q 77 1139 100 1162 q 22 1116 54 1116 m 117 1330 l 212 1516 l 344 1516 l 214 1330 l 117 1330 z "},"Ɨ":{"ha":439,"x_min":11,"x_max":429,"o":"m 281 1010 l 281 0 l 158 0 l 158 1010 l 281 1010 m 11 472 l 11 570 l 429 570 l 429 472 l 11 472 z "},"Ḭ":{"ha":334,"x_min":-27,"x_max":362,"o":"m 229 1010 l 229 0 l 105 0 l 105 1010 l 229 1010 m 256 -286 q 208 -277 231 -286 q 162 -258 184 -269 q 122 -239 140 -247 q 92 -231 104 -231 q 66 -248 75 -231 q 57 -283 58 -264 l -27 -283 q 1 -184 -25 -223 q 81 -144 27 -144 q 129 -153 106 -144 q 171 -173 151 -161 q 209 -193 191 -184 q 243 -201 227 -201 q 269 -189 260 -201 q 281 -147 277 -176 l 362 -147 q 333 -248 360 -210 q 256 -286 305 -286 z "},"Ì":{"ha":334,"x_min":-10,"x_max":229,"o":"m 229 1010 l 229 0 l 105 0 l 105 1010 l 229 1010 m 121 1104 l -9 1305 l 123 1305 l 218 1104 l 121 1104 z "},"Í":{"ha":334,"x_min":105,"x_max":343,"o":"m 229 1010 l 229 0 l 105 0 l 105 1010 l 229 1010 m 116 1104 l 211 1305 l 343 1305 l 213 1104 l 116 1104 z "},"Î":{"ha":334,"x_min":-47,"x_max":381,"o":"m 229 1010 l 229 0 l 105 0 l 105 1010 l 229 1010 m 69 1120 l -47 1120 l -47 1121 l 110 1305 l 223 1305 l 381 1121 l 381 1120 l 263 1120 l 167 1238 l 69 1120 z "},"Ĩ":{"ha":334,"x_min":-27,"x_max":362,"o":"m 229 1010 l 229 0 l 105 0 l 105 1010 l 229 1010 m 256 1147 q 208 1155 231 1147 q 162 1174 184 1163 q 122 1194 140 1185 q 92 1202 104 1202 q 66 1185 75 1202 q 57 1149 58 1168 l -27 1149 q 1 1249 -25 1209 q 81 1288 27 1288 q 129 1279 106 1288 q 171 1259 151 1271 q 209 1239 191 1248 q 243 1231 227 1231 q 269 1244 260 1231 q 281 1285 277 1257 l 362 1285 q 333 1185 360 1223 q 256 1147 305 1147 z "},"Ī":{"ha":334,"x_min":-20,"x_max":354,"o":"m 229 1010 l 229 0 l 105 0 l 105 1010 l 229 1010 m 354 1257 l 354 1161 l -20 1161 l -20 1257 l 354 1257 z "},"Ĭ":{"ha":334,"x_min":-27,"x_max":361,"o":"m 229 1010 l 229 0 l 105 0 l 105 1010 l 229 1010 m 167 1115 q 69 1140 113 1115 q -1 1209 25 1166 q -27 1305 -27 1253 l 60 1305 q 91 1229 60 1259 q 168 1200 121 1200 q 244 1229 214 1200 q 274 1305 274 1259 l 361 1305 q 336 1210 361 1253 q 266 1141 310 1166 q 167 1115 222 1115 z "},"Į":{"ha":334,"x_min":8,"x_max":239,"o":"m 229 1010 l 229 0 l 105 0 l 105 1010 l 229 1010 m 150 -286 q 47 -254 86 -286 q 9 -158 9 -221 q 42 -58 9 -103 q 151 33 75 -12 l 229 0 q 150 -78 174 -48 q 125 -138 125 -108 q 139 -174 125 -161 q 184 -186 153 -186 q 208 -185 195 -186 q 230 -182 220 -184 l 239 -279 q 197 -284 219 -281 q 150 -286 174 -286 z "},"İ":{"ha":334,"x_min":87,"x_max":247,"o":"m 229 1010 l 229 0 l 105 0 l 105 1010 l 229 1010 m 167 1147 q 110 1170 134 1147 q 87 1225 87 1193 q 110 1282 87 1259 q 166 1305 134 1305 q 223 1282 200 1305 q 247 1225 247 1259 q 223 1170 247 1193 q 167 1147 200 1147 z "},"Ǐ":{"ha":334,"x_min":-47,"x_max":381,"o":"m 229 1010 l 229 0 l 105 0 l 105 1010 l 229 1010 m 69 1305 l 167 1186 l 263 1305 l 381 1305 l 381 1303 l 223 1120 l 110 1120 l -47 1303 l -47 1305 l 69 1305 z "},"Ȉ":{"ha":334,"x_min":-130,"x_max":317,"o":"m 229 1010 l 229 0 l 105 0 l 105 1010 l 229 1010 m 220 1104 l 104 1305 l 236 1305 l 317 1104 l 220 1104 m 18 1104 l -130 1305 l 3 1305 l 117 1104 l 18 1104 z "},"Ȋ":{"ha":334,"x_min":-29,"x_max":363,"o":"m 229 1010 l 229 0 l 105 0 l 105 1010 l 229 1010 m 167 1308 q 269 1283 225 1308 q 338 1215 313 1258 q 363 1120 363 1173 l 276 1120 q 245 1194 276 1165 q 167 1223 214 1223 q 89 1194 120 1223 q 58 1120 58 1165 l -29 1120 q -4 1215 -29 1173 q 65 1283 21 1258 q 167 1308 110 1308 z "},"Ỉ":{"ha":334,"x_min":59,"x_max":271,"o":"m 229 1010 l 229 0 l 105 0 l 105 1010 l 229 1010 m 209 1104 l 119 1104 l 168 1200 q 171 1220 175 1213 q 153 1227 168 1227 l 59 1227 l 59 1305 l 153 1305 q 219 1295 193 1305 q 258 1265 246 1284 q 268 1220 271 1246 q 247 1166 265 1195 l 209 1104 z "},"Ị":{"ha":334,"x_min":87,"x_max":248,"o":"m 229 1010 l 229 0 l 105 0 l 105 1010 l 229 1010 m 168 -294 q 111 -271 134 -294 q 87 -216 87 -248 q 111 -159 87 -182 q 167 -136 134 -136 q 224 -159 201 -136 q 248 -216 248 -182 q 224 -271 248 -248 q 168 -294 201 -294 z "},"Ɩ":{"ha":333,"x_min":90,"x_max":316,"o":"m 271 -1 q 132 38 174 -1 q 90 163 90 77 l 90 1010 l 207 1010 l 207 179 q 221 116 207 132 q 278 100 235 100 q 296 100 287 100 q 311 101 304 100 l 316 1 q 294 -1 306 0 q 271 -1 282 -1 z "},"Ι":{"ha":334,"x_min":105,"x_max":229,"o":"m 229 1010 l 229 0 l 105 0 l 105 1010 l 229 1010 z "},"Ί":{"ha":491,"x_min":41,"x_max":386,"o":"m 386 1010 l 386 0 l 262 0 l 262 1010 l 386 1010 m 41 809 l 67 1010 l 186 1010 l 123 809 l 41 809 z "},"Ϊ":{"ha":334,"x_min":-54,"x_max":388,"o":"m 229 1010 l 229 0 l 105 0 l 105 1010 l 229 1010 m 309 1147 q 253 1170 276 1147 q 230 1225 230 1193 q 253 1282 230 1259 q 309 1305 276 1305 q 365 1282 342 1305 q 388 1225 388 1259 q 365 1170 388 1193 q 309 1147 342 1147 m 25 1147 q -31 1170 -7 1147 q -54 1225 -54 1193 q -31 1282 -54 1259 q 25 1305 -7 1305 q 81 1282 58 1305 q 104 1225 104 1259 q 81 1170 104 1193 q 25 1147 58 1147 z "},"Ἰ":{"ha":530,"x_min":41,"x_max":425,"o":"m 425 1010 l 425 0 l 301 0 l 301 1010 l 425 1010 m 62 810 l 55 810 l 55 863 l 62 863 q 114 874 96 863 q 132 907 132 886 q 114 936 132 926 q 62 945 96 945 l 41 945 l 41 1022 l 62 1022 q 181 995 138 1022 q 223 918 223 967 q 181 840 223 869 q 62 810 138 810 z "},"Ἱ":{"ha":544,"x_min":41,"x_max":439,"o":"m 439 1010 l 439 0 l 315 0 l 315 1010 l 439 1010 m 202 801 q 84 831 127 801 q 41 909 41 861 q 84 986 41 958 q 202 1013 127 1013 l 223 1013 l 223 937 l 202 937 q 151 927 169 937 q 133 899 133 917 q 151 865 133 877 q 202 854 169 854 l 210 854 l 210 801 l 202 801 z "},"Ἲ":{"ha":715,"x_min":41,"x_max":609,"o":"m 609 1010 l 609 0 l 486 0 l 486 1010 l 609 1010 m 62 801 l 55 801 l 55 854 l 62 854 q 114 865 96 854 q 132 899 132 877 q 114 927 132 917 q 62 937 96 937 l 41 937 l 41 1013 l 62 1013 q 181 986 138 1013 q 223 909 223 958 q 181 831 223 861 q 62 801 138 801 m 387 803 l 306 803 l 245 1010 l 361 1010 l 387 803 z "},"Ἳ":{"ha":722,"x_min":41,"x_max":616,"o":"m 616 1010 l 616 0 l 493 0 l 493 1010 l 616 1010 m 202 801 q 84 831 127 801 q 41 909 41 861 q 84 986 41 958 q 202 1013 127 1013 l 223 1013 l 223 937 l 202 937 q 151 927 169 937 q 133 899 133 917 q 151 865 133 877 q 202 854 169 854 l 210 854 l 210 801 l 202 801 m 406 803 l 326 803 l 264 1010 l 380 1010 l 406 803 z "},"Ἴ":{"ha":723,"x_min":41,"x_max":618,"o":"m 618 1010 l 618 0 l 494 0 l 494 1010 l 618 1010 m 62 801 l 55 801 l 55 854 l 62 854 q 114 865 96 854 q 132 899 132 877 q 114 927 132 917 q 62 937 96 937 l 41 937 l 41 1013 l 62 1013 q 181 986 138 1013 q 223 909 223 958 q 181 831 223 861 q 62 801 138 801 m 285 803 l 311 1010 l 427 1010 l 366 803 l 285 803 z "},"Ἵ":{"ha":728,"x_min":41,"x_max":623,"o":"m 623 1010 l 623 0 l 500 0 l 500 1010 l 623 1010 m 202 801 q 84 831 127 801 q 41 909 41 861 q 84 986 41 958 q 202 1013 127 1013 l 223 1013 l 223 937 l 202 937 q 151 927 169 937 q 133 899 133 917 q 151 865 133 877 q 202 854 169 854 l 210 854 l 210 801 l 202 801 m 284 803 l 309 1010 l 425 1010 l 365 803 l 284 803 z "},"Ἶ":{"ha":641,"x_min":41,"x_max":536,"o":"m 535 1010 l 535 0 l 412 0 l 412 1010 l 535 1010 m 166 806 l 159 806 l 159 859 l 166 859 q 217 871 199 859 q 235 903 235 882 q 217 932 235 922 q 166 942 199 942 l 145 942 l 145 1019 l 166 1019 q 284 991 242 1019 q 327 915 327 964 q 284 836 327 866 q 166 806 242 806 m 324 1071 q 276 1079 300 1071 q 231 1098 252 1087 q 191 1118 209 1109 q 161 1126 173 1126 q 135 1109 143 1126 q 125 1073 127 1092 l 41 1073 q 70 1173 43 1133 q 149 1212 96 1212 q 197 1203 175 1212 q 239 1183 220 1195 q 277 1163 259 1172 q 312 1155 295 1155 q 337 1167 329 1155 q 349 1209 346 1180 l 431 1209 q 401 1109 429 1147 q 324 1071 374 1071 z "},"Ἷ":{"ha":649,"x_min":41,"x_max":544,"o":"m 544 1010 l 544 0 l 420 0 l 420 1010 l 544 1010 m 306 800 q 188 829 231 800 q 145 908 145 859 q 188 984 145 957 q 306 1012 231 1012 l 327 1012 l 327 935 l 306 935 q 255 925 273 935 q 237 897 237 916 q 255 864 237 876 q 306 852 273 852 l 313 852 l 313 800 l 306 800 m 324 1064 q 276 1072 300 1064 q 231 1092 252 1080 q 191 1111 209 1103 q 161 1119 173 1119 q 135 1102 143 1119 q 125 1066 127 1085 l 41 1066 q 70 1166 43 1126 q 149 1205 96 1205 q 197 1197 175 1205 q 239 1177 220 1188 q 277 1157 259 1165 q 312 1148 295 1148 q 337 1161 329 1148 q 349 1202 346 1173 l 431 1202 q 401 1102 429 1140 q 324 1064 374 1064 z "},"Ῐ":{"ha":334,"x_min":-27,"x_max":361,"o":"m 229 1010 l 229 0 l 105 0 l 105 1010 l 229 1010 m 167 1115 q 69 1140 113 1115 q -1 1209 25 1166 q -27 1305 -27 1253 l 60 1305 q 91 1229 60 1259 q 168 1200 121 1200 q 244 1229 214 1200 q 274 1305 274 1259 l 361 1305 q 336 1210 361 1253 q 266 1141 310 1166 q 167 1115 222 1115 z "},"Ῑ":{"ha":334,"x_min":-20,"x_max":354,"o":"m 229 1010 l 229 0 l 105 0 l 105 1010 l 229 1010 m 354 1257 l 354 1161 l -20 1161 l -20 1257 l 354 1257 z "},"Ὶ":{"ha":530,"x_min":-27,"x_max":425,"o":"m 425 1010 l 425 0 l 301 0 l 301 1010 l 425 1010 m 117 819 l 35 819 l -27 1021 l 92 1021 l 117 819 z "},"Ί":{"ha":491,"x_min":41,"x_max":386,"o":"m 386 1010 l 386 0 l 262 0 l 262 1010 l 386 1010 m 41 809 l 67 1010 l 186 1010 l 123 809 l 41 809 z "},"І":{"ha":334,"x_min":105,"x_max":229,"o":"m 229 1010 l 229 0 l 105 0 l 105 1010 l 229 1010 z "},"Ї":{"ha":334,"x_min":-54,"x_max":388,"o":"m 229 1010 l 229 0 l 105 0 l 105 1010 l 229 1010 m 309 1147 q 253 1170 276 1147 q 230 1225 230 1193 q 253 1282 230 1259 q 309 1305 276 1305 q 365 1282 342 1305 q 388 1225 388 1259 q 365 1170 388 1193 q 309 1147 342 1147 m 25 1147 q -31 1170 -7 1147 q -54 1225 -54 1193 q -31 1282 -54 1259 q 25 1305 -7 1305 q 81 1282 58 1305 q 104 1225 104 1259 q 81 1170 104 1193 q 25 1147 58 1147 z "},"":{"ha":502,"x_min":56,"x_max":446,"o":"m 56 0 l 56 110 l 189 110 l 189 901 l 56 901 l 56 1010 l 446 1010 l 446 901 l 313 901 l 313 110 l 446 110 l 446 0 l 56 0 z "},"":{"ha":502,"x_min":30,"x_max":472,"o":"m 56 0 l 56 110 l 189 110 l 189 901 l 56 901 l 56 1010 l 446 1010 l 446 901 l 313 901 l 313 110 l 446 110 l 446 0 l 56 0 m 393 1147 q 337 1170 360 1147 q 314 1225 314 1193 q 337 1282 314 1259 q 393 1305 360 1305 q 449 1282 426 1305 q 472 1225 472 1259 q 449 1170 472 1193 q 393 1147 426 1147 m 109 1147 q 53 1170 77 1147 q 30 1225 30 1193 q 53 1282 30 1259 q 109 1305 77 1305 q 165 1282 142 1305 q 188 1225 188 1259 q 165 1170 188 1193 q 109 1147 142 1147 z "},"":{"ha":502,"x_min":26,"x_max":469,"o":"m 56 0 l 56 110 l 189 110 l 189 901 l 56 901 l 56 1010 l 446 1010 l 446 901 l 313 901 l 313 110 l 446 110 l 446 0 l 56 0 m 390 1116 q 334 1139 357 1116 q 311 1195 311 1162 q 334 1251 311 1227 q 390 1274 357 1274 q 446 1251 422 1274 q 469 1195 469 1228 q 446 1139 469 1162 q 390 1116 422 1116 m 106 1116 q 50 1139 73 1116 q 26 1195 26 1162 q 50 1251 26 1227 q 106 1274 73 1274 q 161 1251 138 1274 q 184 1195 184 1228 q 161 1139 184 1162 q 106 1116 138 1116 m 201 1330 l 296 1516 l 428 1516 l 298 1330 l 201 1330 z "},"":{"ha":502,"x_min":42,"x_max":460,"o":"m 56 0 l 56 110 l 189 110 l 189 901 l 56 901 l 56 1010 l 446 1010 l 446 901 l 313 901 l 313 110 l 446 110 l 446 0 l 56 0 m 42 472 l 42 570 l 460 570 l 460 472 l 42 472 z "},"":{"ha":502,"x_min":56,"x_max":447,"o":"m 56 0 l 56 110 l 189 110 l 189 901 l 56 901 l 56 1010 l 446 1010 l 446 901 l 313 901 l 313 110 l 446 110 l 446 0 l 56 0 m 340 -286 q 292 -277 315 -286 q 246 -258 268 -269 q 207 -239 224 -247 q 176 -231 189 -231 q 151 -248 159 -231 q 141 -283 142 -264 l 57 -283 q 85 -184 59 -223 q 165 -144 111 -144 q 213 -153 191 -144 q 255 -173 235 -161 q 293 -193 275 -184 q 328 -201 311 -201 q 353 -189 345 -201 q 365 -147 361 -176 l 446 -147 q 417 -248 444 -210 q 340 -286 389 -286 z "},"":{"ha":502,"x_min":56,"x_max":446,"o":"m 56 0 l 56 110 l 189 110 l 189 901 l 56 901 l 56 1010 l 446 1010 l 446 901 l 313 901 l 313 110 l 446 110 l 446 0 l 56 0 m 205 1104 l 75 1305 l 207 1305 l 302 1104 l 205 1104 z "},"":{"ha":502,"x_min":56,"x_max":446,"o":"m 56 0 l 56 110 l 189 110 l 189 901 l 56 901 l 56 1010 l 446 1010 l 446 901 l 313 901 l 313 110 l 446 110 l 446 0 l 56 0 m 200 1104 l 295 1305 l 427 1305 l 297 1104 l 200 1104 z "},"":{"ha":502,"x_min":37,"x_max":465,"o":"m 56 0 l 56 110 l 189 110 l 189 901 l 56 901 l 56 1010 l 446 1010 l 446 901 l 313 901 l 313 110 l 446 110 l 446 0 l 56 0 m 153 1120 l 37 1120 l 37 1121 l 194 1305 l 307 1305 l 465 1121 l 465 1120 l 347 1120 l 251 1238 l 153 1120 z "},"":{"ha":502,"x_min":56,"x_max":446,"o":"m 56 0 l 56 110 l 189 110 l 189 901 l 56 901 l 56 1010 l 446 1010 l 446 901 l 313 901 l 313 110 l 446 110 l 446 0 l 56 0 m 340 1147 q 292 1155 315 1147 q 246 1174 268 1163 q 207 1194 224 1185 q 176 1202 189 1202 q 151 1185 159 1202 q 141 1149 142 1168 l 57 1149 q 85 1249 59 1209 q 165 1288 111 1288 q 213 1279 191 1288 q 255 1259 235 1271 q 293 1239 275 1248 q 328 1231 311 1231 q 353 1244 345 1231 q 365 1285 361 1257 l 446 1285 q 417 1185 444 1223 q 340 1147 389 1147 z "},"":{"ha":502,"x_min":56,"x_max":446,"o":"m 56 0 l 56 110 l 189 110 l 189 901 l 56 901 l 56 1010 l 446 1010 l 446 901 l 313 901 l 313 110 l 446 110 l 446 0 l 56 0 m 438 1257 l 438 1161 l 64 1161 l 64 1257 l 438 1257 z "},"":{"ha":502,"x_min":56,"x_max":446,"o":"m 56 0 l 56 110 l 189 110 l 189 901 l 56 901 l 56 1010 l 446 1010 l 446 901 l 313 901 l 313 110 l 446 110 l 446 0 l 56 0 m 251 1115 q 153 1140 197 1115 q 83 1209 109 1166 q 57 1305 57 1253 l 144 1305 q 175 1229 144 1259 q 252 1200 205 1200 q 328 1229 298 1200 q 358 1305 358 1259 l 446 1305 q 420 1210 446 1253 q 350 1141 394 1166 q 251 1115 306 1115 z "},"":{"ha":502,"x_min":56,"x_max":456,"o":"m 56 0 l 56 110 l 189 110 l 189 901 l 56 901 l 56 1010 l 446 1010 l 446 901 l 313 901 l 313 110 l 446 110 l 446 0 l 56 0 m 367 -286 q 264 -254 303 -286 q 226 -158 226 -221 q 259 -58 226 -103 q 368 33 292 -12 l 446 0 q 367 -78 391 -48 q 342 -138 342 -108 q 356 -174 342 -161 q 401 -186 370 -186 q 425 -185 412 -186 q 447 -182 437 -184 l 456 -279 q 414 -284 436 -281 q 367 -286 391 -286 z "},"":{"ha":502,"x_min":56,"x_max":446,"o":"m 56 0 l 56 110 l 189 110 l 189 901 l 56 901 l 56 1010 l 446 1010 l 446 901 l 313 901 l 313 110 l 446 110 l 446 0 l 56 0 m 252 1147 q 195 1170 218 1147 q 172 1225 172 1193 q 195 1282 172 1259 q 251 1305 218 1305 q 308 1282 285 1305 q 332 1225 332 1259 q 308 1170 332 1193 q 252 1147 285 1147 z "},"":{"ha":502,"x_min":37,"x_max":465,"o":"m 56 0 l 56 110 l 189 110 l 189 901 l 56 901 l 56 1010 l 446 1010 l 446 901 l 313 901 l 313 110 l 446 110 l 446 0 l 56 0 m 153 1305 l 251 1186 l 347 1305 l 465 1305 l 465 1303 l 307 1120 l 194 1120 l 37 1303 l 37 1305 l 153 1305 z "},"":{"ha":502,"x_min":-45,"x_max":446,"o":"m 56 0 l 56 110 l 189 110 l 189 901 l 56 901 l 56 1010 l 446 1010 l 446 901 l 313 901 l 313 110 l 446 110 l 446 0 l 56 0 m 304 1104 l 189 1305 l 321 1305 l 401 1104 l 304 1104 m 102 1104 l -45 1305 l 87 1305 l 201 1104 l 102 1104 z "},"":{"ha":502,"x_min":55,"x_max":448,"o":"m 56 0 l 56 110 l 189 110 l 189 901 l 56 901 l 56 1010 l 446 1010 l 446 901 l 313 901 l 313 110 l 446 110 l 446 0 l 56 0 m 251 1308 q 353 1283 309 1308 q 422 1215 397 1258 q 448 1120 448 1173 l 360 1120 q 329 1194 360 1165 q 251 1223 298 1223 q 173 1194 204 1223 q 142 1120 142 1165 l 55 1120 q 80 1215 55 1173 q 150 1283 105 1258 q 251 1308 194 1308 z "},"":{"ha":502,"x_min":56,"x_max":446,"o":"m 56 0 l 56 110 l 189 110 l 189 901 l 56 901 l 56 1010 l 446 1010 l 446 901 l 313 901 l 313 110 l 446 110 l 446 0 l 56 0 m 293 1104 l 203 1104 l 252 1200 q 255 1220 259 1213 q 237 1227 252 1227 l 143 1227 l 143 1305 l 237 1305 q 303 1295 277 1305 q 342 1265 330 1284 q 352 1220 355 1246 q 331 1166 349 1195 l 293 1104 z "},"":{"ha":502,"x_min":56,"x_max":446,"o":"m 56 0 l 56 110 l 189 110 l 189 901 l 56 901 l 56 1010 l 446 1010 l 446 901 l 313 901 l 313 110 l 446 110 l 446 0 l 56 0 m 252 -294 q 195 -271 218 -294 q 172 -216 172 -248 q 195 -159 172 -182 q 251 -136 218 -136 q 308 -159 285 -136 q 332 -216 332 -182 q 308 -271 332 -248 q 252 -294 285 -294 z "},"":{"ha":736,"x_min":41,"x_max":680,"o":"m 291 0 l 291 110 l 424 110 l 424 901 l 291 901 l 291 1010 l 681 1010 l 681 901 l 547 901 l 547 110 l 681 110 l 681 0 l 291 0 m 62 810 l 55 810 l 55 863 l 62 863 q 114 874 96 863 q 132 907 132 886 q 114 936 132 926 q 62 945 96 945 l 41 945 l 41 1022 l 62 1022 q 181 995 138 1022 q 223 918 223 967 q 181 840 223 869 q 62 810 138 810 z "},"":{"ha":751,"x_min":41,"x_max":694,"o":"m 304 0 l 304 110 l 437 110 l 437 901 l 304 901 l 304 1010 l 694 1010 l 694 901 l 561 901 l 561 110 l 694 110 l 694 0 l 304 0 m 202 801 q 84 831 127 801 q 41 909 41 861 q 84 986 41 958 q 202 1013 127 1013 l 223 1013 l 223 937 l 202 937 q 151 927 169 937 q 133 899 133 917 q 151 865 133 877 q 202 854 169 854 l 210 854 l 210 801 l 202 801 z "},"":{"ha":963,"x_min":41,"x_max":865,"o":"m 475 0 l 475 110 l 608 110 l 608 901 l 475 901 l 475 1010 l 865 1010 l 865 901 l 732 901 l 732 110 l 865 110 l 865 0 l 475 0 m 62 801 l 55 801 l 55 854 l 62 854 q 114 865 96 854 q 132 899 132 877 q 114 927 132 917 q 62 937 96 937 l 41 937 l 41 1013 l 62 1013 q 181 986 138 1013 q 223 909 223 958 q 181 831 223 861 q 62 801 138 801 m 387 803 l 306 803 l 245 1010 l 361 1010 l 387 803 z "},"":{"ha":928,"x_min":41,"x_max":872,"o":"m 482 0 l 482 110 l 615 110 l 615 901 l 482 901 l 482 1010 l 872 1010 l 872 901 l 739 901 l 739 110 l 872 110 l 872 0 l 482 0 m 202 801 q 84 831 127 801 q 41 909 41 861 q 84 986 41 958 q 202 1013 127 1013 l 223 1013 l 223 937 l 202 937 q 151 927 169 937 q 133 899 133 917 q 151 865 133 877 q 202 854 169 854 l 210 854 l 210 801 l 202 801 m 406 803 l 326 803 l 264 1010 l 380 1010 l 406 803 z "},"":{"ha":930,"x_min":41,"x_max":873,"o":"m 484 0 l 484 110 l 616 110 l 616 901 l 484 901 l 484 1010 l 873 1010 l 873 901 l 740 901 l 740 110 l 873 110 l 873 0 l 484 0 m 62 801 l 55 801 l 55 854 l 62 854 q 114 865 96 854 q 132 899 132 877 q 114 927 132 917 q 62 937 96 937 l 41 937 l 41 1013 l 62 1013 q 181 986 138 1013 q 223 909 223 958 q 181 831 223 861 q 62 801 138 801 m 285 803 l 311 1010 l 427 1010 l 366 803 l 285 803 z "},"":{"ha":935,"x_min":41,"x_max":879,"o":"m 489 0 l 489 110 l 622 110 l 622 901 l 489 901 l 489 1010 l 879 1010 l 879 901 l 745 901 l 745 110 l 879 110 l 879 0 l 489 0 m 202 801 q 84 831 127 801 q 41 909 41 861 q 84 986 41 958 q 202 1013 127 1013 l 223 1013 l 223 937 l 202 937 q 151 927 169 937 q 133 899 133 917 q 151 865 133 877 q 202 854 169 854 l 210 854 l 210 801 l 202 801 m 284 803 l 309 1010 l 425 1010 l 365 803 l 284 803 z "},"":{"ha":847,"x_min":41,"x_max":791,"o":"m 401 0 l 401 110 l 534 110 l 534 901 l 401 901 l 401 1010 l 791 1010 l 791 901 l 658 901 l 658 110 l 791 110 l 791 0 l 401 0 m 166 806 l 159 806 l 159 859 l 166 859 q 217 871 199 859 q 235 903 235 882 q 217 932 235 922 q 166 942 199 942 l 145 942 l 145 1019 l 166 1019 q 284 991 242 1019 q 327 915 327 964 q 284 836 327 866 q 166 806 242 806 m 324 1071 q 276 1079 300 1071 q 231 1098 252 1087 q 191 1118 209 1109 q 161 1126 173 1126 q 135 1109 143 1126 q 125 1073 127 1092 l 41 1073 q 70 1173 43 1133 q 149 1212 96 1212 q 197 1203 175 1212 q 239 1183 220 1195 q 277 1163 259 1172 q 312 1155 295 1155 q 337 1167 329 1155 q 349 1209 346 1180 l 431 1209 q 401 1109 429 1147 q 324 1071 374 1071 z "},"":{"ha":856,"x_min":41,"x_max":800,"o":"m 410 0 l 410 110 l 543 110 l 543 901 l 410 901 l 410 1010 l 800 1010 l 800 901 l 666 901 l 666 110 l 800 110 l 800 0 l 410 0 m 306 800 q 188 829 231 800 q 145 908 145 859 q 188 984 145 957 q 306 1012 231 1012 l 327 1012 l 327 935 l 306 935 q 255 925 273 935 q 237 897 237 916 q 255 864 237 876 q 306 852 273 852 l 313 852 l 313 800 l 306 800 m 324 1064 q 276 1072 300 1064 q 231 1092 252 1080 q 191 1111 209 1103 q 161 1119 173 1119 q 135 1102 143 1119 q 125 1066 127 1085 l 41 1066 q 70 1166 43 1126 q 149 1205 96 1205 q 197 1197 175 1205 q 239 1177 220 1188 q 277 1157 259 1165 q 312 1148 295 1148 q 337 1161 329 1148 q 349 1202 346 1173 l 431 1202 q 401 1102 429 1140 q 324 1064 374 1064 z "},"":{"ha":502,"x_min":56,"x_max":446,"o":"m 56 0 l 56 110 l 189 110 l 189 901 l 56 901 l 56 1010 l 446 1010 l 446 901 l 313 901 l 313 110 l 446 110 l 446 0 l 56 0 m 251 1115 q 153 1140 197 1115 q 83 1209 109 1166 q 57 1305 57 1253 l 144 1305 q 175 1229 144 1259 q 252 1200 205 1200 q 328 1229 298 1200 q 358 1305 358 1259 l 446 1305 q 420 1210 446 1253 q 350 1141 394 1166 q 251 1115 306 1115 z "},"":{"ha":502,"x_min":56,"x_max":446,"o":"m 56 0 l 56 110 l 189 110 l 189 901 l 56 901 l 56 1010 l 446 1010 l 446 901 l 313 901 l 313 110 l 446 110 l 446 0 l 56 0 m 438 1257 l 438 1161 l 64 1161 l 64 1257 l 438 1257 z "},"":{"ha":698,"x_min":-65,"x_max":642,"o":"m 252 0 l 252 110 l 385 110 l 385 901 l 252 901 l 252 1010 l 642 1010 l 642 901 l 509 901 l 509 110 l 642 110 l 642 0 l 252 0 m 79 819 l -3 819 l -65 1021 l 54 1021 l 79 819 z "},"":{"ha":698,"x_min":41,"x_max":642,"o":"m 252 0 l 252 110 l 385 110 l 385 901 l 252 901 l 252 1010 l 642 1010 l 642 901 l 508 901 l 508 110 l 642 110 l 642 0 l 252 0 m 41 809 l 67 1010 l 186 1010 l 123 809 l 41 809 z "},"":{"ha":502,"x_min":56,"x_max":446,"o":"m 56 0 l 56 110 l 189 110 l 189 901 l 56 901 l 56 1010 l 446 1010 l 446 901 l 313 901 l 313 110 l 446 110 l 446 0 l 56 0 z "},"":{"ha":502,"x_min":30,"x_max":472,"o":"m 56 0 l 56 110 l 189 110 l 189 901 l 56 901 l 56 1010 l 446 1010 l 446 901 l 313 901 l 313 110 l 446 110 l 446 0 l 56 0 m 393 1147 q 337 1170 360 1147 q 314 1225 314 1193 q 337 1282 314 1259 q 393 1305 360 1305 q 449 1282 426 1305 q 472 1225 472 1259 q 449 1170 472 1193 q 393 1147 426 1147 m 109 1147 q 53 1170 77 1147 q 30 1225 30 1193 q 53 1282 30 1259 q 109 1305 77 1305 q 165 1282 142 1305 q 188 1225 188 1259 q 165 1170 188 1193 q 109 1147 142 1147 z "},"J":{"ha":753,"x_min":55,"x_max":653,"o":"m 354 -14 q 138 64 222 -14 q 55 288 55 142 l 55 342 l 178 342 l 178 288 q 227 145 178 194 q 354 96 275 96 q 481 145 433 96 q 529 288 529 194 l 529 1010 l 653 1010 l 653 288 q 569 64 653 142 q 354 -14 486 -14 z "},"Ĵ":{"ha":753,"x_min":55,"x_max":805,"o":"m 354 -14 q 138 64 222 -14 q 55 288 55 142 l 55 342 l 178 342 l 178 288 q 227 145 178 194 q 354 96 275 96 q 481 145 433 96 q 529 288 529 194 l 529 1010 l 653 1010 l 653 288 q 569 64 653 142 q 354 -14 486 -14 m 493 1120 l 377 1120 l 377 1121 l 534 1305 l 647 1305 l 805 1121 l 805 1120 l 687 1120 l 591 1238 l 493 1120 z "},"Ɉ":{"ha":806,"x_min":55,"x_max":800,"o":"m 354 -14 q 138 64 222 -14 q 55 288 55 142 l 55 342 l 178 342 l 178 288 q 227 145 178 194 q 354 96 275 96 q 481 145 433 96 q 529 288 529 194 l 529 1010 l 653 1010 l 653 288 q 569 64 653 142 q 354 -14 486 -14 m 382 551 l 382 648 l 800 648 l 800 551 l 382 551 z "},"Ϳ":{"ha":753,"x_min":55,"x_max":653,"o":"m 354 -14 q 138 64 222 -14 q 55 288 55 142 l 55 342 l 178 342 l 178 288 q 227 145 178 194 q 354 96 275 96 q 481 145 433 96 q 529 288 529 194 l 529 1010 l 653 1010 l 653 288 q 569 64 653 142 q 354 -14 486 -14 z "},"Ј":{"ha":753,"x_min":55,"x_max":653,"o":"m 354 -14 q 138 64 222 -14 q 55 288 55 142 l 55 342 l 178 342 l 178 288 q 227 145 178 194 q 354 96 275 96 q 481 145 433 96 q 529 288 529 194 l 529 1010 l 653 1010 l 653 288 q 569 64 653 142 q 354 -14 486 -14 z "},"K":{"ha":892,"x_min":105,"x_max":871,"o":"m 189 289 l 189 444 q 259 525 224 485 q 330 603 294 564 q 402 682 366 642 l 707 1010 l 871 1010 l 439 550 l 433 550 l 189 289 m 105 0 l 105 1010 l 229 1010 l 229 660 l 229 445 l 229 385 l 229 0 l 105 0 m 724 0 l 355 517 l 431 615 l 871 0 l 724 0 z "},"Ķ":{"ha":892,"x_min":105,"x_max":871,"o":"m 189 289 l 189 444 q 259 525 224 485 q 330 603 294 564 q 402 682 366 642 l 707 1010 l 871 1010 l 439 550 l 433 550 l 189 289 m 105 0 l 105 1010 l 229 1010 l 229 660 l 229 445 l 229 385 l 229 0 l 105 0 m 724 0 l 355 517 l 431 615 l 871 0 l 724 0 m 340 -335 l 395 -80 l 515 -80 l 431 -335 l 340 -335 z "},"Ǩ":{"ha":892,"x_min":105,"x_max":871,"o":"m 189 289 l 189 444 q 259 525 224 485 q 330 603 294 564 q 402 682 366 642 l 707 1010 l 871 1010 l 439 550 l 433 550 l 189 289 m 105 0 l 105 1010 l 229 1010 l 229 660 l 229 445 l 229 385 l 229 0 l 105 0 m 724 0 l 355 517 l 431 615 l 871 0 l 724 0 m 359 1305 l 456 1186 l 553 1305 l 671 1305 l 671 1303 l 513 1120 l 399 1120 l 243 1303 l 243 1305 l 359 1305 z "},"Ḱ":{"ha":892,"x_min":105,"x_max":871,"o":"m 189 289 l 189 444 q 259 525 224 485 q 330 603 294 564 q 402 682 366 642 l 707 1010 l 871 1010 l 439 550 l 433 550 l 189 289 m 105 0 l 105 1010 l 229 1010 l 229 660 l 229 445 l 229 385 l 229 0 l 105 0 m 724 0 l 355 517 l 431 615 l 871 0 l 724 0 m 405 1104 l 500 1305 l 632 1305 l 502 1104 l 405 1104 z "},"Ḳ":{"ha":892,"x_min":105,"x_max":871,"o":"m 189 289 l 189 444 q 259 525 224 485 q 330 603 294 564 q 402 682 366 642 l 707 1010 l 871 1010 l 439 550 l 433 550 l 189 289 m 105 0 l 105 1010 l 229 1010 l 229 660 l 229 445 l 229 385 l 229 0 l 105 0 m 724 0 l 355 517 l 431 615 l 871 0 l 724 0 m 457 -294 q 400 -271 424 -294 q 377 -216 377 -248 q 400 -159 377 -182 q 456 -136 424 -136 q 514 -159 490 -136 q 537 -216 537 -182 q 514 -271 537 -248 q 457 -294 490 -294 z "},"Ḵ":{"ha":892,"x_min":105,"x_max":871,"o":"m 189 289 l 189 444 q 259 525 224 485 q 330 603 294 564 q 402 682 366 642 l 707 1010 l 871 1010 l 439 550 l 433 550 l 189 289 m 105 0 l 105 1010 l 229 1010 l 229 660 l 229 445 l 229 385 l 229 0 l 105 0 m 724 0 l 355 517 l 431 615 l 871 0 l 724 0 m 644 -151 l 644 -246 l 269 -246 l 269 -151 l 644 -151 z "},"Ҡ":{"ha":1120,"x_min":41,"x_max":1099,"o":"m 394 1010 l 394 902 l 41 902 l 41 1010 l 394 1010 m 333 0 l 333 1010 l 456 1010 l 456 570 l 598 570 l 932 1010 l 1082 1010 l 705 521 l 1099 0 l 949 0 l 604 458 l 456 458 l 456 0 l 333 0 z "},"Қ":{"ha":951,"x_min":105,"x_max":924,"o":"m 105 0 l 105 1010 l 229 1010 l 229 570 l 370 570 l 705 1010 l 854 1010 l 477 521 l 871 0 l 722 0 l 376 458 l 229 458 l 229 0 l 105 0 m 808 -217 l 808 0 l 758 0 l 758 109 l 925 109 l 924 -217 l 808 -217 z "},"Ƙ":{"ha":901,"x_min":105,"x_max":906,"o":"m 105 0 l 105 1010 l 229 1010 l 229 510 l 241 510 l 640 950 q 726 1011 680 994 q 819 1020 772 1027 q 906 985 865 1013 l 857 892 q 790 909 824 914 q 719 863 756 903 l 432 555 l 855 0 l 705 0 l 355 468 l 229 326 l 229 0 l 105 0 z "},"Κ":{"ha":892,"x_min":105,"x_max":871,"o":"m 189 289 l 189 444 q 259 525 224 485 q 330 603 294 564 q 402 682 366 642 l 707 1010 l 871 1010 l 439 550 l 433 550 l 189 289 m 105 0 l 105 1010 l 229 1010 l 229 660 l 229 445 l 229 385 l 229 0 l 105 0 m 724 0 l 355 517 l 431 615 l 871 0 l 724 0 z "},"L":{"ha":753,"x_min":105,"x_max":711,"o":"m 105 0 l 105 1010 l 229 1010 l 229 110 l 711 110 l 711 0 l 105 0 z "},"Ĺ":{"ha":753,"x_min":105,"x_max":711,"o":"m 105 0 l 105 1010 l 229 1010 l 229 110 l 711 110 l 711 0 l 105 0 m 116 1104 l 211 1305 l 343 1305 l 213 1104 l 116 1104 z "},"Ļ":{"ha":753,"x_min":105,"x_max":711,"o":"m 105 0 l 105 1010 l 229 1010 l 229 110 l 711 110 l 711 0 l 105 0 m 286 -335 l 340 -80 l 460 -80 l 376 -335 l 286 -335 z "},"Ľ":{"ha":753,"x_min":105,"x_max":711,"o":"m 105 0 l 105 1010 l 229 1010 l 229 110 l 711 110 l 711 0 l 105 0 m 401 802 l 401 1058 l 521 1058 l 486 802 l 401 802 z "},"Ḷ":{"ha":753,"x_min":105,"x_max":711,"o":"m 105 0 l 105 1010 l 229 1010 l 229 110 l 711 110 l 711 0 l 105 0 m 402 -294 q 346 -271 369 -294 q 322 -216 322 -248 q 346 -159 322 -182 q 401 -136 369 -136 q 459 -159 435 -136 q 482 -216 482 -182 q 459 -271 482 -248 q 402 -294 435 -294 z "},"Ḹ":{"ha":753,"x_min":-20,"x_max":711,"o":"m 105 0 l 105 1010 l 229 1010 l 229 110 l 711 110 l 711 0 l 105 0 m 402 -294 q 346 -271 369 -294 q 322 -216 322 -248 q 346 -159 322 -182 q 401 -136 369 -136 q 459 -159 435 -136 q 482 -216 482 -182 q 459 -271 482 -248 q 402 -294 435 -294 m 354 1257 l 354 1161 l -20 1161 l -20 1257 l 354 1257 z "},"Ḻ":{"ha":753,"x_min":105,"x_max":711,"o":"m 105 0 l 105 1010 l 229 1010 l 229 110 l 711 110 l 711 0 l 105 0 m 589 -151 l 589 -246 l 214 -246 l 214 -151 l 589 -151 z "},"Ḽ":{"ha":753,"x_min":105,"x_max":711,"o":"m 105 0 l 105 1010 l 229 1010 l 229 110 l 711 110 l 711 0 l 105 0 m 304 -309 l 189 -309 l 189 -307 l 345 -123 l 458 -123 l 616 -307 l 616 -309 l 498 -309 l 402 -190 l 304 -309 z "},"Ł":{"ha":793,"x_min":21,"x_max":752,"o":"m 146 0 l 146 1010 l 269 1010 l 269 110 l 752 110 l 752 0 l 146 0 m 21 322 l 21 448 l 522 736 l 522 612 l 21 322 z "},"Ƚ":{"ha":793,"x_min":15,"x_max":752,"o":"m 146 0 l 146 1010 l 269 1010 l 269 110 l 752 110 l 752 0 l 146 0 m 15 452 l 15 559 l 532 559 l 532 452 l 15 452 z "},"ǈ":{"ha":1050,"x_min":105,"x_max":981,"o":"m 105 0 l 105 1010 l 229 1010 l 229 110 l 711 110 l 711 0 l 105 0 m 843 726 l 960 726 l 960 -90 q 938 -190 960 -146 q 871 -259 915 -234 q 764 -283 827 -283 l 720 -283 l 720 -179 l 755 -179 q 822 -154 801 -179 q 843 -77 843 -129 l 843 726 m 901 862 q 845 885 868 862 q 821 941 821 908 q 845 997 821 974 q 901 1020 868 1020 q 958 997 935 1020 q 981 941 981 974 q 958 885 981 908 q 901 862 935 862 z "},"M":{"ha":1205,"x_min":105,"x_max":1100,"o":"m 105 0 l 105 1010 l 275 1010 l 530 361 q 551 308 538 340 q 575 239 563 275 q 600 171 588 203 q 618 116 611 138 l 591 116 q 609 170 598 138 q 633 239 621 203 q 658 307 646 275 q 678 361 670 339 l 929 1010 l 1100 1010 l 1100 0 l 979 0 l 979 584 q 979 654 979 616 q 980 732 979 692 q 982 814 981 773 q 984 895 983 855 l 1000 895 q 967 801 983 847 q 936 715 951 755 q 908 641 921 675 q 886 584 896 608 l 654 0 l 551 0 l 317 584 q 294 641 307 608 q 267 714 281 674 q 235 801 252 755 q 200 895 218 846 l 221 895 q 223 815 222 857 q 225 734 224 774 q 226 655 226 693 q 227 584 227 616 l 227 0 l 105 0 z "},"Ḿ":{"ha":1205,"x_min":105,"x_max":1100,"o":"m 105 0 l 105 1010 l 275 1010 l 530 361 q 551 308 538 340 q 575 239 563 275 q 600 171 588 203 q 618 116 611 138 l 591 116 q 609 170 598 138 q 633 239 621 203 q 658 307 646 275 q 678 361 670 339 l 929 1010 l 1100 1010 l 1100 0 l 979 0 l 979 584 q 979 654 979 616 q 980 732 979 692 q 982 814 981 773 q 984 895 983 855 l 1000 895 q 967 801 983 847 q 936 715 951 755 q 908 641 921 675 q 886 584 896 608 l 654 0 l 551 0 l 317 584 q 294 641 307 608 q 267 714 281 674 q 235 801 252 755 q 200 895 218 846 l 221 895 q 223 815 222 857 q 225 734 224 774 q 226 655 226 693 q 227 584 227 616 l 227 0 l 105 0 m 551 1104 l 646 1305 l 778 1305 l 648 1104 l 551 1104 z "},"Ṁ":{"ha":1205,"x_min":105,"x_max":1100,"o":"m 105 0 l 105 1010 l 275 1010 l 530 361 q 551 308 538 340 q 575 239 563 275 q 600 171 588 203 q 618 116 611 138 l 591 116 q 609 170 598 138 q 633 239 621 203 q 658 307 646 275 q 678 361 670 339 l 929 1010 l 1100 1010 l 1100 0 l 979 0 l 979 584 q 979 654 979 616 q 980 732 979 692 q 982 814 981 773 q 984 895 983 855 l 1000 895 q 967 801 983 847 q 936 715 951 755 q 908 641 921 675 q 886 584 896 608 l 654 0 l 551 0 l 317 584 q 294 641 307 608 q 267 714 281 674 q 235 801 252 755 q 200 895 218 846 l 221 895 q 223 815 222 857 q 225 734 224 774 q 226 655 226 693 q 227 584 227 616 l 227 0 l 105 0 m 602 1147 q 546 1170 569 1147 q 522 1225 522 1193 q 546 1282 522 1259 q 602 1305 569 1305 q 659 1282 635 1305 q 682 1225 682 1259 q 659 1170 682 1193 q 602 1147 635 1147 z "},"Ṃ":{"ha":1205,"x_min":105,"x_max":1100,"o":"m 105 0 l 105 1010 l 275 1010 l 530 361 q 551 308 538 340 q 575 239 563 275 q 600 171 588 203 q 618 116 611 138 l 591 116 q 609 170 598 138 q 633 239 621 203 q 658 307 646 275 q 678 361 670 339 l 929 1010 l 1100 1010 l 1100 0 l 979 0 l 979 584 q 979 654 979 616 q 980 732 979 692 q 982 814 981 773 q 984 895 983 855 l 1000 895 q 967 801 983 847 q 936 715 951 755 q 908 641 921 675 q 886 584 896 608 l 654 0 l 551 0 l 317 584 q 294 641 307 608 q 267 714 281 674 q 235 801 252 755 q 200 895 218 846 l 221 895 q 223 815 222 857 q 225 734 224 774 q 226 655 226 693 q 227 584 227 616 l 227 0 l 105 0 m 602 -294 q 546 -271 569 -294 q 522 -216 522 -248 q 546 -159 522 -182 q 602 -136 569 -136 q 659 -159 635 -136 q 682 -216 682 -182 q 659 -271 682 -248 q 602 -294 635 -294 z "},"Ӎ":{"ha":1205,"x_min":105,"x_max":1229,"o":"m 105 0 l 105 1010 l 275 1010 l 530 361 q 551 308 538 340 q 575 239 563 275 q 600 171 588 203 q 618 116 611 138 l 591 116 q 609 170 598 138 q 633 239 621 203 q 658 307 646 275 q 678 361 670 339 l 929 1010 l 1100 1010 l 1100 0 l 979 0 l 979 584 q 979 654 979 616 q 980 732 979 692 q 982 814 981 773 q 984 895 983 855 l 1000 895 q 967 801 983 847 q 936 715 951 755 q 908 641 921 675 q 886 584 896 608 l 654 0 l 551 0 l 317 584 q 294 641 307 608 q 267 714 281 674 q 235 801 252 755 q 200 895 218 846 l 221 895 q 223 815 222 857 q 225 734 224 774 q 226 655 226 693 q 227 584 227 616 l 227 0 l 105 0 m 1015 -217 l 1079 0 l 1036 0 l 1036 109 l 1228 109 l 1131 -217 l 1015 -217 z "},"Μ":{"ha":1205,"x_min":105,"x_max":1100,"o":"m 105 0 l 105 1010 l 275 1010 l 530 361 q 551 308 538 340 q 575 239 563 275 q 600 171 588 203 q 618 116 611 138 l 591 116 q 609 170 598 138 q 633 239 621 203 q 658 307 646 275 q 678 361 670 339 l 929 1010 l 1100 1010 l 1100 0 l 979 0 l 979 584 q 979 654 979 616 q 980 732 979 692 q 982 814 981 773 q 984 895 983 855 l 1000 895 q 967 801 983 847 q 936 715 951 755 q 908 641 921 675 q 886 584 896 608 l 654 0 l 551 0 l 317 584 q 294 641 307 608 q 267 714 281 674 q 235 801 252 755 q 200 895 218 846 l 221 895 q 223 815 222 857 q 225 734 224 774 q 226 655 226 693 q 227 584 227 616 l 227 0 l 105 0 z "},"Ϻ":{"ha":1205,"x_min":105,"x_max":1100,"o":"m 105 0 l 105 1010 l 275 1010 l 530 361 q 551 308 538 340 q 575 239 563 275 q 600 171 588 203 q 618 116 611 138 l 591 116 q 609 170 598 138 q 633 239 621 203 q 658 307 646 275 q 678 361 670 339 l 929 1010 l 1100 1010 l 1100 0 l 979 0 l 979 584 q 979 654 979 616 q 980 732 979 692 q 982 814 981 773 q 984 895 983 855 l 1000 895 q 967 801 983 847 q 936 715 951 755 q 908 641 921 675 q 886 584 896 608 l 654 0 l 551 0 l 317 584 q 294 641 307 608 q 267 714 281 674 q 235 801 252 755 q 200 895 218 846 l 221 895 q 223 815 222 857 q 225 734 224 774 q 226 655 226 693 q 227 584 227 616 l 227 0 l 105 0 z "},"М":{"ha":1205,"x_min":105,"x_max":1100,"o":"m 105 0 l 105 1010 l 275 1010 l 530 361 q 551 308 538 340 q 575 239 563 275 q 600 171 588 203 q 618 116 611 138 l 591 116 q 609 170 598 138 q 633 239 621 203 q 658 307 646 275 q 678 361 670 339 l 929 1010 l 1100 1010 l 1100 0 l 979 0 l 979 584 q 979 654 979 616 q 980 732 979 692 q 982 814 981 773 q 984 895 983 855 l 1000 895 q 967 801 983 847 q 936 715 951 755 q 908 641 921 675 q 886 584 896 608 l 654 0 l 551 0 l 317 584 q 294 641 307 608 q 267 714 281 674 q 235 801 252 755 q 200 895 218 846 l 221 895 q 223 815 222 857 q 225 734 224 774 q 226 655 226 693 q 227 584 227 616 l 227 0 l 105 0 z "},"N":{"ha":1000,"x_min":105,"x_max":895,"o":"m 105 0 l 105 1010 l 248 1010 l 663 355 q 699 297 677 333 q 745 219 720 262 q 791 134 769 177 l 779 115 q 774 205 776 156 q 771 298 772 254 q 770 366 770 342 l 770 1010 l 895 1010 l 895 0 l 750 0 l 380 583 q 338 651 363 610 q 279 750 313 693 q 203 878 245 806 l 220 903 q 225 762 223 825 q 228 655 227 700 q 229 584 229 610 l 229 0 l 105 0 z "},"Ñ":{"ha":1000,"x_min":105,"x_max":895,"o":"m 105 0 l 105 1010 l 248 1010 l 663 355 q 699 297 677 333 q 745 219 720 262 q 791 134 769 177 l 779 115 q 774 205 776 156 q 771 298 772 254 q 770 366 770 342 l 770 1010 l 895 1010 l 895 0 l 750 0 l 380 583 q 338 651 363 610 q 279 750 313 693 q 203 878 245 806 l 220 903 q 225 762 223 825 q 228 655 227 700 q 229 584 229 610 l 229 0 l 105 0 m 589 1147 q 541 1155 564 1147 q 495 1174 517 1163 q 455 1194 473 1185 q 425 1202 437 1202 q 399 1185 408 1202 q 390 1149 391 1168 l 306 1149 q 334 1249 308 1209 q 414 1288 360 1288 q 462 1279 439 1288 q 504 1259 484 1271 q 542 1239 524 1248 q 576 1231 559 1231 q 602 1244 593 1231 q 614 1285 610 1257 l 695 1285 q 666 1185 693 1223 q 589 1147 638 1147 z "},"Ń":{"ha":1000,"x_min":105,"x_max":895,"o":"m 105 0 l 105 1010 l 248 1010 l 663 355 q 699 297 677 333 q 745 219 720 262 q 791 134 769 177 l 779 115 q 774 205 776 156 q 771 298 772 254 q 770 366 770 342 l 770 1010 l 895 1010 l 895 0 l 750 0 l 380 583 q 338 651 363 610 q 279 750 313 693 q 203 878 245 806 l 220 903 q 225 762 223 825 q 228 655 227 700 q 229 584 229 610 l 229 0 l 105 0 m 449 1104 l 544 1305 l 676 1305 l 546 1104 l 449 1104 z "},"Ņ":{"ha":1000,"x_min":105,"x_max":895,"o":"m 105 0 l 105 1010 l 248 1010 l 663 355 q 699 297 677 333 q 745 219 720 262 q 791 134 769 177 l 779 115 q 774 205 776 156 q 771 298 772 254 q 770 366 770 342 l 770 1010 l 895 1010 l 895 0 l 750 0 l 380 583 q 338 651 363 610 q 279 750 313 693 q 203 878 245 806 l 220 903 q 225 762 223 825 q 228 655 227 700 q 229 584 229 610 l 229 0 l 105 0 m 384 -335 l 438 -80 l 559 -80 l 474 -335 l 384 -335 z "},"Ň":{"ha":1000,"x_min":105,"x_max":895,"o":"m 105 0 l 105 1010 l 248 1010 l 663 355 q 699 297 677 333 q 745 219 720 262 q 791 134 769 177 l 779 115 q 774 205 776 156 q 771 298 772 254 q 770 366 770 342 l 770 1010 l 895 1010 l 895 0 l 750 0 l 380 583 q 338 651 363 610 q 279 750 313 693 q 203 878 245 806 l 220 903 q 225 762 223 825 q 228 655 227 700 q 229 584 229 610 l 229 0 l 105 0 m 402 1305 l 500 1186 l 596 1305 l 714 1305 l 714 1303 l 556 1120 l 443 1120 l 286 1303 l 286 1305 l 402 1305 z "},"Ǹ":{"ha":1000,"x_min":105,"x_max":895,"o":"m 105 0 l 105 1010 l 248 1010 l 663 355 q 699 297 677 333 q 745 219 720 262 q 791 134 769 177 l 779 115 q 774 205 776 156 q 771 298 772 254 q 770 366 770 342 l 770 1010 l 895 1010 l 895 0 l 750 0 l 380 583 q 338 651 363 610 q 279 750 313 693 q 203 878 245 806 l 220 903 q 225 762 223 825 q 228 655 227 700 q 229 584 229 610 l 229 0 l 105 0 m 453 1104 l 323 1305 l 455 1305 l 550 1104 l 453 1104 z "},"Ṅ":{"ha":1000,"x_min":105,"x_max":895,"o":"m 105 0 l 105 1010 l 248 1010 l 663 355 q 699 297 677 333 q 745 219 720 262 q 791 134 769 177 l 779 115 q 774 205 776 156 q 771 298 772 254 q 770 366 770 342 l 770 1010 l 895 1010 l 895 0 l 750 0 l 380 583 q 338 651 363 610 q 279 750 313 693 q 203 878 245 806 l 220 903 q 225 762 223 825 q 228 655 227 700 q 229 584 229 610 l 229 0 l 105 0 m 500 1147 q 443 1170 467 1147 q 420 1225 420 1193 q 443 1282 420 1259 q 499 1305 467 1305 q 556 1282 533 1305 q 580 1225 580 1259 q 556 1170 580 1193 q 500 1147 533 1147 z "},"Ṇ":{"ha":1000,"x_min":105,"x_max":895,"o":"m 105 0 l 105 1010 l 248 1010 l 663 355 q 699 297 677 333 q 745 219 720 262 q 791 134 769 177 l 779 115 q 774 205 776 156 q 771 298 772 254 q 770 366 770 342 l 770 1010 l 895 1010 l 895 0 l 750 0 l 380 583 q 338 651 363 610 q 279 750 313 693 q 203 878 245 806 l 220 903 q 225 762 223 825 q 228 655 227 700 q 229 584 229 610 l 229 0 l 105 0 m 500 -294 q 444 -271 467 -294 q 420 -216 420 -248 q 444 -159 420 -182 q 500 -136 467 -136 q 557 -159 534 -136 q 581 -216 581 -182 q 557 -271 581 -248 q 500 -294 534 -294 z "},"Ṉ":{"ha":1000,"x_min":105,"x_max":895,"o":"m 105 0 l 105 1010 l 248 1010 l 663 355 q 699 297 677 333 q 745 219 720 262 q 791 134 769 177 l 779 115 q 774 205 776 156 q 771 298 772 254 q 770 366 770 342 l 770 1010 l 895 1010 l 895 0 l 750 0 l 380 583 q 338 651 363 610 q 279 750 313 693 q 203 878 245 806 l 220 903 q 225 762 223 825 q 228 655 227 700 q 229 584 229 610 l 229 0 l 105 0 m 687 -151 l 687 -246 l 313 -246 l 313 -151 l 687 -151 z "},"Ṋ":{"ha":1000,"x_min":105,"x_max":895,"o":"m 105 0 l 105 1010 l 248 1010 l 663 355 q 699 297 677 333 q 745 219 720 262 q 791 134 769 177 l 779 115 q 774 205 776 156 q 771 298 772 254 q 770 366 770 342 l 770 1010 l 895 1010 l 895 0 l 750 0 l 380 583 q 338 651 363 610 q 279 750 313 693 q 203 878 245 806 l 220 903 q 225 762 223 825 q 228 655 227 700 q 229 584 229 610 l 229 0 l 105 0 m 403 -309 l 287 -309 l 287 -307 l 444 -123 l 557 -123 l 715 -307 l 715 -309 l 597 -309 l 500 -190 l 403 -309 z "},"Ɲ":{"ha":1000,"x_min":-39,"x_max":895,"o":"m -39 -283 l -39 -177 q -7 -178 -28 -178 q 23 -178 14 -178 q 87 -162 69 -178 q 105 -110 105 -146 l 105 87 l 229 87 l 229 -115 q 179 -241 229 -198 q 35 -285 130 -285 q -6 -284 12 -285 q -39 -283 -25 -284 m 105 0 l 105 1010 l 248 1010 l 663 355 q 699 297 677 333 q 745 219 720 262 q 791 134 769 177 l 779 115 q 774 205 776 156 q 771 298 772 254 q 770 366 770 342 l 770 1010 l 895 1010 l 895 0 l 750 0 l 380 583 q 338 651 363 610 q 279 750 313 693 q 203 878 245 806 l 220 903 q 225 762 223 825 q 228 655 227 700 q 229 584 229 610 l 229 0 l 105 0 z "},"Ŋ":{"ha":1000,"x_min":105,"x_max":896,"o":"m 629 -283 l 629 -177 q 660 -178 640 -178 q 690 -178 681 -178 q 754 -162 736 -178 q 772 -110 772 -146 l 772 87 l 896 87 l 896 -115 q 846 -241 896 -198 q 703 -285 797 -285 q 661 -284 680 -285 q 629 -283 642 -284 m 105 0 l 105 1010 l 248 1010 l 663 355 q 699 297 677 333 q 745 219 720 262 q 791 134 769 177 l 779 115 q 774 205 776 156 q 771 298 772 254 q 770 366 770 342 l 770 1010 l 895 1010 l 895 0 l 750 0 l 380 583 q 338 651 363 610 q 279 750 313 693 q 203 878 245 806 l 220 903 q 225 762 223 825 q 228 655 227 700 q 229 584 229 610 l 229 0 l 105 0 z "},"И":{"ha":1000,"x_min":105,"x_max":895,"o":"m 895 0 l 770 0 l 770 584 q 771 655 770 610 q 775 762 772 700 q 780 903 777 825 l 796 878 q 721 750 754 806 q 662 651 687 693 q 619 583 636 610 l 250 0 l 105 0 l 105 1010 l 229 1010 l 229 366 q 228 298 229 342 q 225 205 227 254 q 221 115 224 156 l 208 134 q 255 219 231 177 q 301 297 279 262 q 336 355 323 333 l 751 1010 l 895 1010 l 895 0 z "},"Ѝ":{"ha":1000,"x_min":105,"x_max":895,"o":"m 895 0 l 770 0 l 770 584 q 771 655 770 610 q 775 762 772 700 q 780 903 777 825 l 796 878 q 721 750 754 806 q 662 651 687 693 q 619 583 636 610 l 250 0 l 105 0 l 105 1010 l 229 1010 l 229 366 q 228 298 229 342 q 225 205 227 254 q 221 115 224 156 l 208 134 q 255 219 231 177 q 301 297 279 262 q 336 355 323 333 l 751 1010 l 895 1010 l 895 0 m 458 1104 l 328 1305 l 460 1305 l 555 1104 l 458 1104 z "},"Й":{"ha":1000,"x_min":105,"x_max":895,"o":"m 895 0 l 770 0 l 770 584 q 771 655 770 610 q 775 762 772 700 q 780 903 777 825 l 796 878 q 721 750 754 806 q 662 651 687 693 q 619 583 636 610 l 250 0 l 105 0 l 105 1010 l 229 1010 l 229 366 q 228 298 229 342 q 225 205 227 254 q 221 115 224 156 l 208 134 q 255 219 231 177 q 301 297 279 262 q 336 355 323 333 l 751 1010 l 895 1010 l 895 0 m 504 1115 q 406 1140 450 1115 q 336 1209 362 1166 q 310 1305 310 1253 l 397 1305 q 428 1229 397 1259 q 505 1200 458 1200 q 581 1229 551 1200 q 611 1305 611 1259 l 699 1305 q 673 1210 699 1253 q 603 1141 647 1166 q 504 1115 559 1115 z "},"Ӣ":{"ha":1000,"x_min":105,"x_max":895,"o":"m 895 0 l 770 0 l 770 584 q 771 655 770 610 q 775 762 772 700 q 780 903 777 825 l 796 878 q 721 750 754 806 q 662 651 687 693 q 619 583 636 610 l 250 0 l 105 0 l 105 1010 l 229 1010 l 229 366 q 228 298 229 342 q 225 205 227 254 q 221 115 224 156 l 208 134 q 255 219 231 177 q 301 297 279 262 q 336 355 323 333 l 751 1010 l 895 1010 l 895 0 m 692 1257 l 692 1161 l 317 1161 l 317 1257 l 692 1257 z "},"Ӥ":{"ha":1000,"x_min":105,"x_max":895,"o":"m 895 0 l 770 0 l 770 584 q 771 655 770 610 q 775 762 772 700 q 780 903 777 825 l 796 878 q 721 750 754 806 q 662 651 687 693 q 619 583 636 610 l 250 0 l 105 0 l 105 1010 l 229 1010 l 229 366 q 228 298 229 342 q 225 205 227 254 q 221 115 224 156 l 208 134 q 255 219 231 177 q 301 297 279 262 q 336 355 323 333 l 751 1010 l 895 1010 l 895 0 m 647 1147 q 591 1170 614 1147 q 568 1225 568 1193 q 591 1282 568 1259 q 647 1305 614 1305 q 703 1282 680 1305 q 726 1225 726 1259 q 703 1170 726 1193 q 647 1147 680 1147 m 363 1147 q 307 1170 330 1147 q 283 1225 283 1193 q 307 1282 283 1259 q 363 1305 330 1305 q 418 1282 395 1305 q 441 1225 441 1259 q 418 1170 441 1193 q 363 1147 395 1147 z "},"Ҋ":{"ha":1000,"x_min":105,"x_max":1036,"o":"m 895 0 l 770 0 l 770 584 q 771 655 770 610 q 775 762 772 700 q 780 903 777 825 l 796 878 q 721 750 754 806 q 662 651 687 693 q 619 583 636 610 l 250 0 l 105 0 l 105 1010 l 229 1010 l 229 366 q 228 298 229 342 q 225 205 227 254 q 221 115 224 156 l 208 134 q 255 219 231 177 q 301 297 279 262 q 336 355 323 333 l 751 1010 l 895 1010 l 895 0 m 504 1115 q 406 1140 450 1115 q 336 1209 362 1166 q 310 1305 310 1253 l 397 1305 q 428 1229 397 1259 q 505 1200 458 1200 q 581 1229 551 1200 q 611 1305 611 1259 l 699 1305 q 673 1210 699 1253 q 603 1141 647 1166 q 504 1115 559 1115 m 821 -217 l 886 0 l 842 0 l 842 109 l 1035 109 l 938 -217 l 821 -217 z "},"Ͷ":{"ha":1000,"x_min":105,"x_max":895,"o":"m 895 0 l 770 0 l 770 584 q 771 655 770 610 q 775 762 772 700 q 780 903 777 825 l 796 878 q 721 750 754 806 q 662 651 687 693 q 619 583 636 610 l 250 0 l 105 0 l 105 1010 l 229 1010 l 229 366 q 228 298 229 342 q 225 205 227 254 q 221 115 224 156 l 208 134 q 255 219 231 177 q 301 297 279 262 q 336 355 323 333 l 751 1010 l 895 1010 l 895 0 z "},"Ν":{"ha":1000,"x_min":105,"x_max":895,"o":"m 105 0 l 105 1010 l 248 1010 l 663 355 q 699 297 677 333 q 745 219 720 262 q 791 134 769 177 l 779 115 q 774 205 776 156 q 771 298 772 254 q 770 366 770 342 l 770 1010 l 895 1010 l 895 0 l 750 0 l 380 583 q 338 651 363 610 q 279 750 313 693 q 203 878 245 806 l 220 903 q 225 762 223 825 q 228 655 227 700 q 229 584 229 610 l 229 0 l 105 0 z "},"ǋ":{"ha":1297,"x_min":105,"x_max":1228,"o":"m 105 0 l 105 1010 l 248 1010 l 663 355 q 699 297 677 333 q 745 219 720 262 q 791 134 769 177 l 779 115 q 774 205 776 156 q 771 298 772 254 q 770 366 770 342 l 770 1010 l 895 1010 l 895 0 l 750 0 l 380 583 q 338 651 363 610 q 279 750 313 693 q 203 878 245 806 l 220 903 q 225 762 223 825 q 228 655 227 700 q 229 584 229 610 l 229 0 l 105 0 m 1090 726 l 1206 726 l 1206 -90 q 1184 -190 1207 -146 q 1118 -259 1162 -234 q 1010 -283 1074 -283 l 966 -283 l 966 -179 l 1002 -179 q 1069 -154 1048 -179 q 1090 -77 1090 -129 l 1090 726 m 1148 862 q 1092 885 1115 862 q 1068 941 1068 908 q 1092 997 1068 974 q 1147 1020 1115 1020 q 1205 997 1181 1020 q 1228 941 1228 974 q 1205 885 1228 908 q 1148 862 1181 862 z "},"O":{"ha":1045,"x_min":66,"x_max":979,"o":"m 523 -16 q 287 51 390 -16 q 125 234 184 117 q 66 505 66 351 q 125 777 66 659 q 287 960 184 894 q 523 1026 390 1026 q 759 960 656 1026 q 921 777 862 894 q 979 505 979 659 q 921 234 979 351 q 759 51 862 117 q 523 -16 656 -16 m 523 100 q 690 146 614 100 q 811 284 766 193 q 857 505 857 374 q 811 727 857 636 q 690 864 766 817 q 523 911 614 911 q 355 864 431 911 q 234 726 279 817 q 189 505 189 635 q 234 284 189 374 q 355 146 279 193 q 523 100 431 100 z "},"Ö":{"ha":1045,"x_min":66,"x_max":979,"o":"m 523 -16 q 287 51 390 -16 q 125 234 184 117 q 66 505 66 351 q 125 777 66 659 q 287 960 184 894 q 523 1026 390 1026 q 759 960 656 1026 q 921 777 862 894 q 979 505 979 659 q 921 234 979 351 q 759 51 862 117 q 523 -16 656 -16 m 523 100 q 690 146 614 100 q 811 284 766 193 q 857 505 857 374 q 811 727 857 636 q 690 864 766 817 q 523 911 614 911 q 355 864 431 911 q 234 726 279 817 q 189 505 189 635 q 234 284 189 374 q 355 146 279 193 q 523 100 431 100 m 665 1147 q 609 1170 632 1147 q 586 1225 586 1193 q 609 1282 586 1259 q 665 1305 632 1305 q 721 1282 698 1305 q 744 1225 744 1259 q 721 1170 744 1193 q 665 1147 698 1147 m 381 1147 q 325 1170 349 1147 q 302 1225 302 1193 q 325 1282 302 1259 q 381 1305 349 1305 q 437 1282 414 1305 q 460 1225 460 1259 q 437 1170 460 1193 q 381 1147 414 1147 z "},"Õ":{"ha":1045,"x_min":66,"x_max":979,"o":"m 523 -16 q 287 51 390 -16 q 125 234 184 117 q 66 505 66 351 q 125 777 66 659 q 287 960 184 894 q 523 1026 390 1026 q 759 960 656 1026 q 921 777 862 894 q 979 505 979 659 q 921 234 979 351 q 759 51 862 117 q 523 -16 656 -16 m 523 100 q 690 146 614 100 q 811 284 766 193 q 857 505 857 374 q 811 727 857 636 q 690 864 766 817 q 523 911 614 911 q 355 864 431 911 q 234 726 279 817 q 189 505 189 635 q 234 284 189 374 q 355 146 279 193 q 523 100 431 100 m 612 1147 q 564 1155 587 1147 q 518 1174 540 1163 q 478 1194 496 1185 q 448 1202 460 1202 q 422 1185 431 1202 q 413 1149 414 1168 l 329 1149 q 357 1249 331 1209 q 437 1288 383 1288 q 485 1279 463 1288 q 527 1259 507 1271 q 565 1239 547 1248 q 600 1231 583 1231 q 625 1244 616 1231 q 637 1285 633 1257 l 718 1285 q 689 1185 716 1223 q 612 1147 661 1147 z "},"Ø":{"ha":1045,"x_min":66,"x_max":979,"o":"m 523 -16 q 287 51 390 -16 q 125 234 184 117 q 66 505 66 351 q 125 777 66 659 q 287 960 184 894 q 523 1026 390 1026 q 759 960 656 1026 q 921 777 862 894 q 979 505 979 659 q 921 234 979 351 q 759 51 862 117 q 523 -16 656 -16 m 523 100 q 690 146 614 100 q 811 284 766 193 q 857 505 857 374 q 811 727 857 636 q 690 864 766 817 q 523 911 614 911 q 355 864 431 911 q 234 726 279 817 q 189 505 189 635 q 234 284 189 374 q 355 146 279 193 q 523 100 431 100 m 159 -36 l 71 36 l 886 1046 l 974 975 l 159 -36 z "},"Ơ":{"ha":1044,"x_min":66,"x_max":979,"o":"m 522 929 l 522 1026 q 591 1024 563 1026 q 649 1018 619 1021 q 726 1013 680 1015 q 851 1010 772 1010 q 863 1023 863 1010 l 863 1168 l 979 1168 l 979 1030 q 950 944 979 972 q 863 915 922 915 q 811 917 835 915 q 754 922 787 920 q 667 927 722 925 q 522 929 613 929 m 523 -16 q 287 51 390 -16 q 125 234 184 117 q 66 505 66 351 q 125 777 66 659 q 287 960 184 894 q 523 1026 390 1026 q 759 960 656 1026 q 921 777 862 894 q 979 505 979 659 q 921 234 979 351 q 759 51 862 117 q 523 -16 656 -16 m 523 100 q 690 146 614 100 q 811 284 766 193 q 857 505 857 374 q 811 727 857 636 q 690 864 766 817 q 523 911 614 911 q 355 864 431 911 q 234 726 279 817 q 189 505 189 635 q 234 284 189 374 q 355 146 279 193 q 523 100 431 100 z "},"Ò":{"ha":1045,"x_min":66,"x_max":979,"o":"m 523 -16 q 287 51 390 -16 q 125 234 184 117 q 66 505 66 351 q 125 777 66 659 q 287 960 184 894 q 523 1026 390 1026 q 759 960 656 1026 q 921 777 862 894 q 979 505 979 659 q 921 234 979 351 q 759 51 862 117 q 523 -16 656 -16 m 523 100 q 690 146 614 100 q 811 284 766 193 q 857 505 857 374 q 811 727 857 636 q 690 864 766 817 q 523 911 614 911 q 355 864 431 911 q 234 726 279 817 q 189 505 189 635 q 234 284 189 374 q 355 146 279 193 q 523 100 431 100 m 476 1104 l 346 1305 l 478 1305 l 573 1104 l 476 1104 z "},"Ó":{"ha":1045,"x_min":66,"x_max":979,"o":"m 523 -16 q 287 51 390 -16 q 125 234 184 117 q 66 505 66 351 q 125 777 66 659 q 287 960 184 894 q 523 1026 390 1026 q 759 960 656 1026 q 921 777 862 894 q 979 505 979 659 q 921 234 979 351 q 759 51 862 117 q 523 -16 656 -16 m 523 100 q 690 146 614 100 q 811 284 766 193 q 857 505 857 374 q 811 727 857 636 q 690 864 766 817 q 523 911 614 911 q 355 864 431 911 q 234 726 279 817 q 189 505 189 635 q 234 284 189 374 q 355 146 279 193 q 523 100 431 100 m 471 1104 l 566 1305 l 699 1305 l 568 1104 l 471 1104 z "},"Ô":{"ha":1045,"x_min":66,"x_max":979,"o":"m 523 -16 q 287 51 390 -16 q 125 234 184 117 q 66 505 66 351 q 125 777 66 659 q 287 960 184 894 q 523 1026 390 1026 q 759 960 656 1026 q 921 777 862 894 q 979 505 979 659 q 921 234 979 351 q 759 51 862 117 q 523 -16 656 -16 m 523 100 q 690 146 614 100 q 811 284 766 193 q 857 505 857 374 q 811 727 857 636 q 690 864 766 817 q 523 911 614 911 q 355 864 431 911 q 234 726 279 817 q 189 505 189 635 q 234 284 189 374 q 355 146 279 193 q 523 100 431 100 m 425 1120 l 309 1120 l 309 1121 l 466 1305 l 579 1305 l 737 1121 l 737 1120 l 619 1120 l 523 1238 l 425 1120 z "},"Ō":{"ha":1045,"x_min":66,"x_max":979,"o":"m 523 -16 q 287 51 390 -16 q 125 234 184 117 q 66 505 66 351 q 125 777 66 659 q 287 960 184 894 q 523 1026 390 1026 q 759 960 656 1026 q 921 777 862 894 q 979 505 979 659 q 921 234 979 351 q 759 51 862 117 q 523 -16 656 -16 m 523 100 q 690 146 614 100 q 811 284 766 193 q 857 505 857 374 q 811 727 857 636 q 690 864 766 817 q 523 911 614 911 q 355 864 431 911 q 234 726 279 817 q 189 505 189 635 q 234 284 189 374 q 355 146 279 193 q 523 100 431 100 m 710 1257 l 710 1161 l 336 1161 l 336 1257 l 710 1257 z "},"Ŏ":{"ha":1045,"x_min":66,"x_max":979,"o":"m 523 -16 q 287 51 390 -16 q 125 234 184 117 q 66 505 66 351 q 125 777 66 659 q 287 960 184 894 q 523 1026 390 1026 q 759 960 656 1026 q 921 777 862 894 q 979 505 979 659 q 921 234 979 351 q 759 51 862 117 q 523 -16 656 -16 m 523 100 q 690 146 614 100 q 811 284 766 193 q 857 505 857 374 q 811 727 857 636 q 690 864 766 817 q 523 911 614 911 q 355 864 431 911 q 234 726 279 817 q 189 505 189 635 q 234 284 189 374 q 355 146 279 193 q 523 100 431 100 m 522 1115 q 424 1140 468 1115 q 354 1209 380 1166 q 328 1305 328 1253 l 416 1305 q 446 1229 416 1259 q 523 1200 476 1200 q 599 1229 569 1200 q 629 1305 629 1259 l 717 1305 q 691 1210 717 1253 q 621 1141 665 1166 q 522 1115 577 1115 z "},"Ő":{"ha":1045,"x_min":66,"x_max":979,"o":"m 523 -16 q 287 51 390 -16 q 125 234 184 117 q 66 505 66 351 q 125 777 66 659 q 287 960 184 894 q 523 1026 390 1026 q 759 960 656 1026 q 921 777 862 894 q 979 505 979 659 q 921 234 979 351 q 759 51 862 117 q 523 -16 656 -16 m 523 100 q 690 146 614 100 q 811 284 766 193 q 857 505 857 374 q 811 727 857 636 q 690 864 766 817 q 523 911 614 911 q 355 864 431 911 q 234 726 279 817 q 189 505 189 635 q 234 284 189 374 q 355 146 279 193 q 523 100 431 100 m 427 1104 l 330 1104 l 410 1305 l 543 1305 l 427 1104 m 629 1104 l 530 1104 l 644 1305 l 776 1305 l 629 1104 z "},"Ǒ":{"ha":1045,"x_min":66,"x_max":979,"o":"m 523 -16 q 287 51 390 -16 q 125 234 184 117 q 66 505 66 351 q 125 777 66 659 q 287 960 184 894 q 523 1026 390 1026 q 759 960 656 1026 q 921 777 862 894 q 979 505 979 659 q 921 234 979 351 q 759 51 862 117 q 523 -16 656 -16 m 523 100 q 690 146 614 100 q 811 284 766 193 q 857 505 857 374 q 811 727 857 636 q 690 864 766 817 q 523 911 614 911 q 355 864 431 911 q 234 726 279 817 q 189 505 189 635 q 234 284 189 374 q 355 146 279 193 q 523 100 431 100 m 425 1305 l 523 1186 l 619 1305 l 737 1305 l 737 1303 l 579 1120 l 466 1120 l 309 1303 l 309 1305 l 425 1305 z "},"Ǫ":{"ha":1045,"x_min":66,"x_max":979,"o":"m 523 -16 q 287 51 390 -16 q 125 234 184 117 q 66 505 66 351 q 125 777 66 659 q 287 960 184 894 q 523 1026 390 1026 q 759 960 656 1026 q 921 777 862 894 q 979 505 979 659 q 921 234 979 351 q 759 51 862 117 q 523 -16 656 -16 m 523 100 q 690 146 614 100 q 811 284 766 193 q 857 505 857 374 q 811 727 857 636 q 690 864 766 817 q 523 911 614 911 q 355 864 431 911 q 234 726 279 817 q 189 505 189 635 q 234 284 189 374 q 355 146 279 193 q 523 100 431 100 m 556 -286 q 452 -254 493 -286 q 411 -158 411 -221 q 439 -69 411 -104 q 513 -6 467 -33 q 615 48 559 21 q 725 110 670 75 q 827 195 781 144 q 901 321 873 246 q 928 505 928 396 l 979 505 q 955 316 979 396 q 891 180 930 237 q 803 83 851 123 q 708 15 755 43 q 620 -37 660 -14 q 556 -84 581 -60 q 532 -138 532 -107 q 546 -174 532 -161 q 590 -186 559 -186 q 614 -185 602 -186 q 637 -182 627 -184 l 646 -279 q 603 -284 626 -281 q 556 -286 581 -286 z "},"Ǭ":{"ha":1045,"x_min":66,"x_max":979,"o":"m 523 -16 q 287 51 390 -16 q 125 234 184 117 q 66 505 66 351 q 125 777 66 659 q 287 960 184 894 q 523 1026 390 1026 q 759 960 656 1026 q 921 777 862 894 q 979 505 979 659 q 921 234 979 351 q 759 51 862 117 q 523 -16 656 -16 m 523 100 q 690 146 614 100 q 811 284 766 193 q 857 505 857 374 q 811 727 857 636 q 690 864 766 817 q 523 911 614 911 q 355 864 431 911 q 234 726 279 817 q 189 505 189 635 q 234 284 189 374 q 355 146 279 193 q 523 100 431 100 m 556 -286 q 452 -254 493 -286 q 411 -158 411 -221 q 439 -69 411 -104 q 513 -6 467 -33 q 615 48 559 21 q 725 110 670 75 q 827 195 781 144 q 901 321 873 246 q 928 505 928 396 l 979 505 q 955 316 979 396 q 891 180 930 237 q 803 83 851 123 q 708 15 755 43 q 620 -37 660 -14 q 556 -84 581 -60 q 532 -138 532 -107 q 546 -174 532 -161 q 590 -186 559 -186 q 614 -185 602 -186 q 637 -182 627 -184 l 646 -279 q 603 -284 626 -281 q 556 -286 581 -286 m 710 1257 l 710 1161 l 336 1161 l 336 1257 l 710 1257 z "},"Ȍ":{"ha":1045,"x_min":66,"x_max":979,"o":"m 523 -16 q 287 51 390 -16 q 125 234 184 117 q 66 505 66 351 q 125 777 66 659 q 287 960 184 894 q 523 1026 390 1026 q 759 960 656 1026 q 921 777 862 894 q 979 505 979 659 q 921 234 979 351 q 759 51 862 117 q 523 -16 656 -16 m 523 100 q 690 146 614 100 q 811 284 766 193 q 857 505 857 374 q 811 727 857 636 q 690 864 766 817 q 523 911 614 911 q 355 864 431 911 q 234 726 279 817 q 189 505 189 635 q 234 284 189 374 q 355 146 279 193 q 523 100 431 100 m 576 1104 l 460 1305 l 592 1305 l 673 1104 l 576 1104 m 374 1104 l 227 1305 l 359 1305 l 473 1104 l 374 1104 z "},"Ȏ":{"ha":1045,"x_min":66,"x_max":979,"o":"m 523 -16 q 287 51 390 -16 q 125 234 184 117 q 66 505 66 351 q 125 777 66 659 q 287 960 184 894 q 523 1026 390 1026 q 759 960 656 1026 q 921 777 862 894 q 979 505 979 659 q 921 234 979 351 q 759 51 862 117 q 523 -16 656 -16 m 523 100 q 690 146 614 100 q 811 284 766 193 q 857 505 857 374 q 811 727 857 636 q 690 864 766 817 q 523 911 614 911 q 355 864 431 911 q 234 726 279 817 q 189 505 189 635 q 234 284 189 374 q 355 146 279 193 q 523 100 431 100 m 522 1308 q 625 1283 581 1308 q 694 1215 669 1258 q 719 1120 719 1173 l 631 1120 q 600 1194 631 1165 q 522 1223 569 1223 q 445 1194 475 1223 q 414 1120 414 1165 l 326 1120 q 351 1215 326 1173 q 421 1283 376 1258 q 522 1308 465 1308 z "},"Ȫ":{"ha":1045,"x_min":66,"x_max":979,"o":"m 523 -16 q 287 51 390 -16 q 125 234 184 117 q 66 505 66 351 q 125 777 66 659 q 287 960 184 894 q 523 1026 390 1026 q 759 960 656 1026 q 921 777 862 894 q 979 505 979 659 q 921 234 979 351 q 759 51 862 117 q 523 -16 656 -16 m 523 100 q 690 146 614 100 q 811 284 766 193 q 857 505 857 374 q 811 727 857 636 q 690 864 766 817 q 523 911 614 911 q 355 864 431 911 q 234 726 279 817 q 189 505 189 635 q 234 284 189 374 q 355 146 279 193 q 523 100 431 100 m 662 1116 q 606 1139 629 1116 q 583 1195 583 1162 q 606 1251 583 1227 q 662 1274 629 1274 q 718 1251 694 1274 q 741 1195 741 1228 q 718 1139 741 1162 q 662 1116 694 1116 m 378 1116 q 322 1139 345 1116 q 298 1195 298 1162 q 322 1251 298 1227 q 378 1274 345 1274 q 433 1251 410 1274 q 456 1195 456 1228 q 433 1139 456 1162 q 378 1116 410 1116 m 711 1443 l 711 1357 l 336 1357 l 336 1443 l 711 1443 z "},"Ȭ":{"ha":1045,"x_min":66,"x_max":979,"o":"m 523 -16 q 287 51 390 -16 q 125 234 184 117 q 66 505 66 351 q 125 777 66 659 q 287 960 184 894 q 523 1026 390 1026 q 759 960 656 1026 q 921 777 862 894 q 979 505 979 659 q 921 234 979 351 q 759 51 862 117 q 523 -16 656 -16 m 523 100 q 690 146 614 100 q 811 284 766 193 q 857 505 857 374 q 811 727 857 636 q 690 864 766 817 q 523 911 614 911 q 355 864 431 911 q 234 726 279 817 q 189 505 189 635 q 234 284 189 374 q 355 146 279 193 q 523 100 431 100 m 612 1117 q 564 1125 587 1117 q 518 1144 540 1133 q 478 1164 496 1156 q 448 1172 460 1172 q 422 1155 431 1172 q 413 1119 414 1138 l 329 1119 q 357 1219 331 1179 q 437 1258 383 1258 q 485 1250 463 1258 q 527 1230 507 1241 q 565 1210 547 1218 q 600 1201 583 1201 q 625 1214 616 1201 q 637 1255 633 1226 l 718 1255 q 689 1155 716 1193 q 612 1117 661 1117 m 710 1443 l 710 1357 l 335 1357 l 335 1443 l 710 1443 z "},"Ȯ":{"ha":1045,"x_min":66,"x_max":979,"o":"m 523 -16 q 287 51 390 -16 q 125 234 184 117 q 66 505 66 351 q 125 777 66 659 q 287 960 184 894 q 523 1026 390 1026 q 759 960 656 1026 q 921 777 862 894 q 979 505 979 659 q 921 234 979 351 q 759 51 862 117 q 523 -16 656 -16 m 523 100 q 690 146 614 100 q 811 284 766 193 q 857 505 857 374 q 811 727 857 636 q 690 864 766 817 q 523 911 614 911 q 355 864 431 911 q 234 726 279 817 q 189 505 189 635 q 234 284 189 374 q 355 146 279 193 q 523 100 431 100 m 523 1147 q 466 1170 490 1147 q 443 1225 443 1193 q 466 1282 443 1259 q 522 1305 490 1305 q 579 1282 556 1305 q 603 1225 603 1259 q 579 1170 603 1193 q 523 1147 556 1147 z "},"Ȱ":{"ha":1045,"x_min":66,"x_max":979,"o":"m 523 -16 q 287 51 390 -16 q 125 234 184 117 q 66 505 66 351 q 125 777 66 659 q 287 960 184 894 q 523 1026 390 1026 q 759 960 656 1026 q 921 777 862 894 q 979 505 979 659 q 921 234 979 351 q 759 51 862 117 q 523 -16 656 -16 m 523 100 q 690 146 614 100 q 811 284 766 193 q 857 505 857 374 q 811 727 857 636 q 690 864 766 817 q 523 911 614 911 q 355 864 431 911 q 234 726 279 817 q 189 505 189 635 q 234 284 189 374 q 355 146 279 193 q 523 100 431 100 m 524 1116 q 467 1139 490 1116 q 444 1195 444 1162 q 467 1251 444 1228 q 523 1274 490 1274 q 580 1251 557 1274 q 604 1195 604 1228 q 580 1139 604 1162 q 524 1116 557 1116 m 711 1443 l 711 1357 l 336 1357 l 336 1443 l 711 1443 z "},"Ṍ":{"ha":1045,"x_min":66,"x_max":979,"o":"m 523 -16 q 287 51 390 -16 q 125 234 184 117 q 66 505 66 351 q 125 777 66 659 q 287 960 184 894 q 523 1026 390 1026 q 759 960 656 1026 q 921 777 862 894 q 979 505 979 659 q 921 234 979 351 q 759 51 862 117 q 523 -16 656 -16 m 523 100 q 690 146 614 100 q 811 284 766 193 q 857 505 857 374 q 811 727 857 636 q 690 864 766 817 q 523 911 614 911 q 355 864 431 911 q 234 726 279 817 q 189 505 189 635 q 234 284 189 374 q 355 146 279 193 q 523 100 431 100 m 612 1117 q 564 1125 587 1117 q 518 1144 540 1133 q 478 1164 496 1156 q 448 1172 460 1172 q 422 1155 431 1172 q 413 1119 414 1138 l 329 1119 q 357 1219 331 1179 q 437 1258 383 1258 q 485 1250 463 1258 q 527 1230 507 1241 q 565 1210 547 1218 q 600 1201 583 1201 q 625 1214 616 1201 q 637 1255 633 1226 l 718 1255 q 689 1155 716 1193 q 612 1117 661 1117 m 467 1330 l 562 1516 l 695 1516 l 564 1330 l 467 1330 z "},"Ṏ":{"ha":1045,"x_min":66,"x_max":979,"o":"m 523 -16 q 287 51 390 -16 q 125 234 184 117 q 66 505 66 351 q 125 777 66 659 q 287 960 184 894 q 523 1026 390 1026 q 759 960 656 1026 q 921 777 862 894 q 979 505 979 659 q 921 234 979 351 q 759 51 862 117 q 523 -16 656 -16 m 523 100 q 690 146 614 100 q 811 284 766 193 q 857 505 857 374 q 811 727 857 636 q 690 864 766 817 q 523 911 614 911 q 355 864 431 911 q 234 726 279 817 q 189 505 189 635 q 234 284 189 374 q 355 146 279 193 q 523 100 431 100 m 612 1117 q 564 1125 587 1117 q 518 1144 540 1133 q 478 1164 496 1156 q 448 1172 460 1172 q 422 1155 431 1172 q 413 1119 414 1138 l 329 1119 q 357 1219 331 1179 q 437 1258 383 1258 q 485 1250 463 1258 q 527 1230 507 1241 q 565 1210 547 1218 q 600 1201 583 1201 q 625 1214 616 1201 q 637 1255 633 1226 l 718 1255 q 689 1155 716 1193 q 612 1117 661 1117 m 661 1334 q 605 1357 628 1334 q 582 1413 582 1380 q 605 1469 582 1446 q 661 1492 628 1492 q 717 1469 694 1492 q 740 1413 740 1446 q 717 1357 740 1380 q 661 1334 694 1334 m 377 1334 q 321 1357 345 1334 q 298 1413 298 1380 q 321 1469 298 1446 q 377 1492 345 1492 q 433 1469 410 1492 q 456 1413 456 1446 q 433 1357 456 1380 q 377 1334 410 1334 z "},"Ṑ":{"ha":1045,"x_min":66,"x_max":979,"o":"m 523 -16 q 287 51 390 -16 q 125 234 184 117 q 66 505 66 351 q 125 777 66 659 q 287 960 184 894 q 523 1026 390 1026 q 759 960 656 1026 q 921 777 862 894 q 979 505 979 659 q 921 234 979 351 q 759 51 862 117 q 523 -16 656 -16 m 523 100 q 690 146 614 100 q 811 284 766 193 q 857 505 857 374 q 811 727 857 636 q 690 864 766 817 q 523 911 614 911 q 355 864 431 911 q 234 726 279 817 q 189 505 189 635 q 234 284 189 374 q 355 146 279 193 q 523 100 431 100 m 710 1242 l 710 1147 l 336 1147 l 336 1242 l 710 1242 m 477 1330 l 347 1516 l 479 1516 l 574 1330 l 477 1330 z "},"Ṓ":{"ha":1045,"x_min":66,"x_max":979,"o":"m 523 -16 q 287 51 390 -16 q 125 234 184 117 q 66 505 66 351 q 125 777 66 659 q 287 960 184 894 q 523 1026 390 1026 q 759 960 656 1026 q 921 777 862 894 q 979 505 979 659 q 921 234 979 351 q 759 51 862 117 q 523 -16 656 -16 m 523 100 q 690 146 614 100 q 811 284 766 193 q 857 505 857 374 q 811 727 857 636 q 690 864 766 817 q 523 911 614 911 q 355 864 431 911 q 234 726 279 817 q 189 505 189 635 q 234 284 189 374 q 355 146 279 193 q 523 100 431 100 m 710 1242 l 710 1147 l 336 1147 l 336 1242 l 710 1242 m 474 1330 l 569 1516 l 701 1516 l 571 1330 l 474 1330 z "},"Ọ":{"ha":1045,"x_min":66,"x_max":979,"o":"m 523 -16 q 287 51 390 -16 q 125 234 184 117 q 66 505 66 351 q 125 777 66 659 q 287 960 184 894 q 523 1026 390 1026 q 759 960 656 1026 q 921 777 862 894 q 979 505 979 659 q 921 234 979 351 q 759 51 862 117 q 523 -16 656 -16 m 523 100 q 690 146 614 100 q 811 284 766 193 q 857 505 857 374 q 811 727 857 636 q 690 864 766 817 q 523 911 614 911 q 355 864 431 911 q 234 726 279 817 q 189 505 189 635 q 234 284 189 374 q 355 146 279 193 q 523 100 431 100 m 524 -294 q 467 -271 490 -294 q 444 -216 444 -248 q 467 -159 444 -182 q 523 -136 490 -136 q 580 -159 557 -136 q 604 -216 604 -182 q 580 -271 604 -248 q 524 -294 557 -294 z "},"Ỏ":{"ha":1045,"x_min":66,"x_max":979,"o":"m 523 -16 q 287 51 390 -16 q 125 234 184 117 q 66 505 66 351 q 125 777 66 659 q 287 960 184 894 q 523 1026 390 1026 q 759 960 656 1026 q 921 777 862 894 q 979 505 979 659 q 921 234 979 351 q 759 51 862 117 q 523 -16 656 -16 m 523 100 q 690 146 614 100 q 811 284 766 193 q 857 505 857 374 q 811 727 857 636 q 690 864 766 817 q 523 911 614 911 q 355 864 431 911 q 234 726 279 817 q 189 505 189 635 q 234 284 189 374 q 355 146 279 193 q 523 100 431 100 m 564 1104 l 474 1104 l 523 1200 q 527 1220 530 1213 q 508 1227 523 1227 l 414 1227 l 414 1305 l 508 1305 q 575 1295 548 1305 q 614 1265 602 1284 q 623 1220 626 1246 q 602 1166 621 1195 l 564 1104 z "},"Ố":{"ha":1045,"x_min":66,"x_max":979,"o":"m 523 -16 q 287 51 390 -16 q 125 234 184 117 q 66 505 66 351 q 125 777 66 659 q 287 960 184 894 q 523 1026 390 1026 q 759 960 656 1026 q 921 777 862 894 q 979 505 979 659 q 921 234 979 351 q 759 51 862 117 q 523 -16 656 -16 m 523 100 q 690 146 614 100 q 811 284 766 193 q 857 505 857 374 q 811 727 857 636 q 690 864 766 817 q 523 911 614 911 q 355 864 431 911 q 234 726 279 817 q 189 505 189 635 q 234 284 189 374 q 355 146 279 193 q 523 100 431 100 m 426 1101 l 310 1101 l 310 1103 l 467 1288 l 580 1288 l 738 1103 l 738 1101 l 620 1101 l 524 1221 l 426 1101 m 612 1314 l 707 1500 l 839 1500 l 709 1314 l 612 1314 z "},"Ồ":{"ha":1045,"x_min":66,"x_max":979,"o":"m 523 -16 q 287 51 390 -16 q 125 234 184 117 q 66 505 66 351 q 125 777 66 659 q 287 960 184 894 q 523 1026 390 1026 q 759 960 656 1026 q 921 777 862 894 q 979 505 979 659 q 921 234 979 351 q 759 51 862 117 q 523 -16 656 -16 m 523 100 q 690 146 614 100 q 811 284 766 193 q 857 505 857 374 q 811 727 857 636 q 690 864 766 817 q 523 911 614 911 q 355 864 431 911 q 234 726 279 817 q 189 505 189 635 q 234 284 189 374 q 355 146 279 193 q 523 100 431 100 m 426 1101 l 310 1101 l 310 1103 l 467 1288 l 580 1288 l 738 1103 l 738 1101 l 620 1101 l 524 1221 l 426 1101 m 651 1314 l 521 1500 l 653 1500 l 748 1314 l 651 1314 z "},"Ổ":{"ha":1045,"x_min":66,"x_max":979,"o":"m 523 -16 q 287 51 390 -16 q 125 234 184 117 q 66 505 66 351 q 125 777 66 659 q 287 960 184 894 q 523 1026 390 1026 q 759 960 656 1026 q 921 777 862 894 q 979 505 979 659 q 921 234 979 351 q 759 51 862 117 q 523 -16 656 -16 m 523 100 q 690 146 614 100 q 811 284 766 193 q 857 505 857 374 q 811 727 857 636 q 690 864 766 817 q 523 911 614 911 q 355 864 431 911 q 234 726 279 817 q 189 505 189 635 q 234 284 189 374 q 355 146 279 193 q 523 100 431 100 m 426 1101 l 310 1101 l 310 1103 l 467 1288 l 580 1288 l 738 1103 l 738 1101 l 620 1101 l 524 1221 l 426 1101 m 701 1314 l 611 1314 l 654 1394 q 657 1415 661 1408 q 638 1422 653 1422 l 545 1422 l 545 1500 l 638 1500 q 722 1481 692 1500 q 755 1431 752 1463 q 732 1360 759 1399 l 701 1314 z "},"Ỗ":{"ha":1045,"x_min":66,"x_max":979,"o":"m 523 -16 q 287 51 390 -16 q 125 234 184 117 q 66 505 66 351 q 125 777 66 659 q 287 960 184 894 q 523 1026 390 1026 q 759 960 656 1026 q 921 777 862 894 q 979 505 979 659 q 921 234 979 351 q 759 51 862 117 q 523 -16 656 -16 m 523 100 q 690 146 614 100 q 811 284 766 193 q 857 505 857 374 q 811 727 857 636 q 690 864 766 817 q 523 911 614 911 q 355 864 431 911 q 234 726 279 817 q 189 505 189 635 q 234 284 189 374 q 355 146 279 193 q 523 100 431 100 m 426 1101 l 310 1101 l 310 1103 l 467 1288 l 580 1288 l 738 1103 l 738 1101 l 620 1101 l 524 1221 l 426 1101 m 612 1339 q 563 1348 587 1339 q 518 1367 539 1356 q 478 1387 496 1378 q 448 1395 460 1395 q 422 1378 431 1395 q 412 1341 414 1361 l 329 1341 q 356 1441 330 1402 q 436 1480 382 1480 q 485 1472 463 1480 q 527 1452 507 1463 q 565 1432 547 1440 q 600 1423 583 1423 q 625 1436 616 1423 q 637 1478 633 1449 l 718 1478 q 688 1377 716 1415 q 612 1339 661 1339 z "},"Ộ":{"ha":1045,"x_min":66,"x_max":979,"o":"m 523 -16 q 287 51 390 -16 q 125 234 184 117 q 66 505 66 351 q 125 777 66 659 q 287 960 184 894 q 523 1026 390 1026 q 759 960 656 1026 q 921 777 862 894 q 979 505 979 659 q 921 234 979 351 q 759 51 862 117 q 523 -16 656 -16 m 523 100 q 690 146 614 100 q 811 284 766 193 q 857 505 857 374 q 811 727 857 636 q 690 864 766 817 q 523 911 614 911 q 355 864 431 911 q 234 726 279 817 q 189 505 189 635 q 234 284 189 374 q 355 146 279 193 q 523 100 431 100 m 425 1120 l 309 1120 l 309 1121 l 466 1305 l 579 1305 l 737 1121 l 737 1120 l 619 1120 l 523 1238 l 425 1120 m 524 -294 q 467 -271 490 -294 q 444 -216 444 -248 q 467 -159 444 -182 q 523 -136 490 -136 q 580 -159 557 -136 q 604 -216 604 -182 q 580 -271 604 -248 q 524 -294 557 -294 z "},"Ớ":{"ha":1044,"x_min":66,"x_max":979,"o":"m 522 929 l 522 1026 q 591 1024 563 1026 q 649 1018 619 1021 q 726 1013 680 1015 q 851 1010 772 1010 q 863 1023 863 1010 l 863 1168 l 979 1168 l 979 1030 q 950 944 979 972 q 863 915 922 915 q 811 917 835 915 q 754 922 787 920 q 667 927 722 925 q 522 929 613 929 m 523 -16 q 287 51 390 -16 q 125 234 184 117 q 66 505 66 351 q 125 777 66 659 q 287 960 184 894 q 523 1026 390 1026 q 759 960 656 1026 q 921 777 862 894 q 979 505 979 659 q 921 234 979 351 q 759 51 862 117 q 523 -16 656 -16 m 523 100 q 690 146 614 100 q 811 284 766 193 q 857 505 857 374 q 811 727 857 636 q 690 864 766 817 q 523 911 614 911 q 355 864 431 911 q 234 726 279 817 q 189 505 189 635 q 234 284 189 374 q 355 146 279 193 q 523 100 431 100 m 471 1104 l 566 1305 l 699 1305 l 568 1104 l 471 1104 z "},"Ờ":{"ha":1044,"x_min":66,"x_max":979,"o":"m 522 929 l 522 1026 q 591 1024 563 1026 q 649 1018 619 1021 q 726 1013 680 1015 q 851 1010 772 1010 q 863 1023 863 1010 l 863 1168 l 979 1168 l 979 1030 q 950 944 979 972 q 863 915 922 915 q 811 917 835 915 q 754 922 787 920 q 667 927 722 925 q 522 929 613 929 m 523 -16 q 287 51 390 -16 q 125 234 184 117 q 66 505 66 351 q 125 777 66 659 q 287 960 184 894 q 523 1026 390 1026 q 759 960 656 1026 q 921 777 862 894 q 979 505 979 659 q 921 234 979 351 q 759 51 862 117 q 523 -16 656 -16 m 523 100 q 690 146 614 100 q 811 284 766 193 q 857 505 857 374 q 811 727 857 636 q 690 864 766 817 q 523 911 614 911 q 355 864 431 911 q 234 726 279 817 q 189 505 189 635 q 234 284 189 374 q 355 146 279 193 q 523 100 431 100 m 476 1104 l 346 1305 l 478 1305 l 573 1104 l 476 1104 z "},"Ở":{"ha":1044,"x_min":66,"x_max":979,"o":"m 522 929 l 522 1026 q 591 1024 563 1026 q 649 1018 619 1021 q 726 1013 680 1015 q 851 1010 772 1010 q 863 1023 863 1010 l 863 1168 l 979 1168 l 979 1030 q 950 944 979 972 q 863 915 922 915 q 811 917 835 915 q 754 922 787 920 q 667 927 722 925 q 522 929 613 929 m 523 -16 q 287 51 390 -16 q 125 234 184 117 q 66 505 66 351 q 125 777 66 659 q 287 960 184 894 q 523 1026 390 1026 q 759 960 656 1026 q 921 777 862 894 q 979 505 979 659 q 921 234 979 351 q 759 51 862 117 q 523 -16 656 -16 m 523 100 q 690 146 614 100 q 811 284 766 193 q 857 505 857 374 q 811 727 857 636 q 690 864 766 817 q 523 911 614 911 q 355 864 431 911 q 234 726 279 817 q 189 505 189 635 q 234 284 189 374 q 355 146 279 193 q 523 100 431 100 m 564 1104 l 474 1104 l 523 1200 q 527 1220 530 1213 q 508 1227 523 1227 l 414 1227 l 414 1305 l 508 1305 q 575 1295 548 1305 q 614 1265 602 1284 q 623 1220 626 1246 q 602 1166 621 1195 l 564 1104 z "},"Ỡ":{"ha":1044,"x_min":66,"x_max":979,"o":"m 522 929 l 522 1026 q 591 1024 563 1026 q 649 1018 619 1021 q 726 1013 680 1015 q 851 1010 772 1010 q 863 1023 863 1010 l 863 1168 l 979 1168 l 979 1030 q 950 944 979 972 q 863 915 922 915 q 811 917 835 915 q 754 922 787 920 q 667 927 722 925 q 522 929 613 929 m 523 -16 q 287 51 390 -16 q 125 234 184 117 q 66 505 66 351 q 125 777 66 659 q 287 960 184 894 q 523 1026 390 1026 q 759 960 656 1026 q 921 777 862 894 q 979 505 979 659 q 921 234 979 351 q 759 51 862 117 q 523 -16 656 -16 m 523 100 q 690 146 614 100 q 811 284 766 193 q 857 505 857 374 q 811 727 857 636 q 690 864 766 817 q 523 911 614 911 q 355 864 431 911 q 234 726 279 817 q 189 505 189 635 q 234 284 189 374 q 355 146 279 193 q 523 100 431 100 m 612 1147 q 564 1155 587 1147 q 518 1174 540 1163 q 478 1194 496 1185 q 448 1202 460 1202 q 422 1185 431 1202 q 413 1149 414 1168 l 329 1149 q 357 1249 331 1209 q 437 1288 383 1288 q 485 1279 463 1288 q 527 1259 507 1271 q 565 1239 547 1248 q 600 1231 583 1231 q 625 1244 616 1231 q 637 1285 633 1257 l 718 1285 q 689 1185 716 1223 q 612 1147 661 1147 z "},"Ợ":{"ha":1044,"x_min":66,"x_max":979,"o":"m 522 929 l 522 1026 q 591 1024 563 1026 q 649 1018 619 1021 q 726 1013 680 1015 q 851 1010 772 1010 q 863 1023 863 1010 l 863 1168 l 979 1168 l 979 1030 q 950 944 979 972 q 863 915 922 915 q 811 917 835 915 q 754 922 787 920 q 667 927 722 925 q 522 929 613 929 m 523 -16 q 287 51 390 -16 q 125 234 184 117 q 66 505 66 351 q 125 777 66 659 q 287 960 184 894 q 523 1026 390 1026 q 759 960 656 1026 q 921 777 862 894 q 979 505 979 659 q 921 234 979 351 q 759 51 862 117 q 523 -16 656 -16 m 523 100 q 690 146 614 100 q 811 284 766 193 q 857 505 857 374 q 811 727 857 636 q 690 864 766 817 q 523 911 614 911 q 355 864 431 911 q 234 726 279 817 q 189 505 189 635 q 234 284 189 374 q 355 146 279 193 q 523 100 431 100 m 524 -294 q 467 -271 490 -294 q 444 -216 444 -248 q 467 -159 444 -182 q 523 -136 490 -136 q 580 -159 557 -136 q 604 -216 604 -182 q 580 -271 604 -248 q 524 -294 557 -294 z "},"Ǿ":{"ha":1045,"x_min":66,"x_max":979,"o":"m 523 -16 q 287 51 390 -16 q 125 234 184 117 q 66 505 66 351 q 125 777 66 659 q 287 960 184 894 q 523 1026 390 1026 q 759 960 656 1026 q 921 777 862 894 q 979 505 979 659 q 921 234 979 351 q 759 51 862 117 q 523 -16 656 -16 m 523 100 q 690 146 614 100 q 811 284 766 193 q 857 505 857 374 q 811 727 857 636 q 690 864 766 817 q 523 911 614 911 q 355 864 431 911 q 234 726 279 817 q 189 505 189 635 q 234 284 189 374 q 355 146 279 193 q 523 100 431 100 m 159 -36 l 71 36 l 886 1046 l 974 975 l 159 -36 m 471 1104 l 566 1305 l 699 1305 l 568 1104 l 471 1104 z "},"Ο":{"ha":1045,"x_min":66,"x_max":979,"o":"m 523 -16 q 287 51 390 -16 q 125 234 184 117 q 66 505 66 351 q 125 777 66 659 q 287 960 184 894 q 523 1026 390 1026 q 759 960 656 1026 q 921 777 862 894 q 979 505 979 659 q 921 234 979 351 q 759 51 862 117 q 523 -16 656 -16 m 523 100 q 690 146 614 100 q 811 284 766 193 q 857 505 857 374 q 811 727 857 636 q 690 864 766 817 q 523 911 614 911 q 355 864 431 911 q 234 726 279 817 q 189 505 189 635 q 234 284 189 374 q 355 146 279 193 q 523 100 431 100 z "},"Ό":{"ha":1133,"x_min":41,"x_max":1067,"o":"m 610 -16 q 374 51 477 -16 q 212 234 271 117 q 153 505 153 351 q 212 777 153 659 q 374 960 271 894 q 610 1026 477 1026 q 846 960 743 1026 q 1008 777 949 894 q 1067 505 1067 659 q 1008 234 1067 351 q 846 51 949 117 q 610 -16 743 -16 m 610 100 q 777 146 701 100 q 899 284 853 193 q 944 505 944 374 q 899 727 944 636 q 777 864 853 817 q 610 911 701 911 q 443 864 519 911 q 321 726 367 817 q 276 505 276 635 q 321 284 276 374 q 443 146 367 193 q 610 100 519 100 m 41 809 l 67 1010 l 186 1010 l 123 809 l 41 809 z "},"Ὀ":{"ha":1171,"x_min":41,"x_max":1105,"o":"m 649 -16 q 413 51 516 -16 q 251 234 310 117 q 192 505 192 351 q 251 777 192 659 q 413 960 310 894 q 649 1026 516 1026 q 885 960 782 1026 q 1047 777 988 894 q 1105 505 1105 659 q 1047 234 1105 351 q 885 51 988 117 q 649 -16 782 -16 m 649 100 q 816 146 740 100 q 937 284 892 193 q 983 505 983 374 q 937 727 983 636 q 816 864 892 817 q 649 911 740 911 q 481 864 557 911 q 360 726 406 817 q 315 505 315 635 q 360 284 315 374 q 481 146 406 193 q 649 100 557 100 m 62 810 l 55 810 l 55 863 l 62 863 q 114 874 96 863 q 132 907 132 886 q 114 936 132 926 q 62 945 96 945 l 41 945 l 41 1022 l 62 1022 q 181 995 138 1022 q 223 918 223 967 q 181 840 223 869 q 62 810 138 810 z "},"Ὁ":{"ha":1185,"x_min":41,"x_max":1120,"o":"m 663 -16 q 427 51 530 -16 q 265 234 324 117 q 206 505 206 351 q 265 777 206 659 q 427 960 324 894 q 663 1026 530 1026 q 899 960 796 1026 q 1061 777 1002 894 q 1120 505 1120 659 q 1061 234 1120 351 q 899 51 1002 117 q 663 -16 796 -16 m 663 100 q 830 146 754 100 q 951 284 906 193 q 997 505 997 374 q 951 727 997 636 q 830 864 906 817 q 663 911 754 911 q 496 864 572 911 q 374 726 420 817 q 329 505 329 635 q 374 284 329 374 q 496 146 420 193 q 663 100 572 100 m 202 801 q 84 831 127 801 q 41 909 41 861 q 84 986 41 958 q 202 1013 127 1013 l 223 1013 l 223 937 l 202 937 q 151 927 169 937 q 133 899 133 917 q 151 865 133 877 q 202 854 169 854 l 210 854 l 210 801 l 202 801 z "},"Ὂ":{"ha":1356,"x_min":41,"x_max":1290,"o":"m 833 -16 q 597 51 701 -16 q 435 234 494 117 q 376 505 376 351 q 435 777 376 659 q 597 960 494 894 q 833 1026 701 1026 q 1069 960 966 1026 q 1231 777 1173 894 q 1290 505 1290 659 q 1231 234 1290 351 q 1069 51 1173 117 q 833 -16 966 -16 m 833 100 q 1000 146 924 100 q 1122 284 1076 193 q 1167 505 1167 374 q 1122 727 1167 636 q 1000 864 1076 817 q 833 911 924 911 q 666 864 742 911 q 545 726 590 817 q 499 505 499 635 q 545 284 499 374 q 666 146 590 193 q 833 100 742 100 m 62 801 l 55 801 l 55 854 l 62 854 q 114 865 96 854 q 132 899 132 877 q 114 927 132 917 q 62 937 96 937 l 41 937 l 41 1013 l 62 1013 q 181 986 138 1013 q 223 909 223 958 q 181 831 223 861 q 62 801 138 801 m 387 803 l 306 803 l 245 1010 l 361 1010 l 387 803 z "},"Ὃ":{"ha":1363,"x_min":41,"x_max":1297,"o":"m 841 -16 q 605 51 708 -16 q 443 234 502 117 q 384 505 384 351 q 443 777 384 659 q 605 960 502 894 q 841 1026 708 1026 q 1077 960 974 1026 q 1239 777 1180 894 q 1297 505 1297 659 q 1239 234 1297 351 q 1077 51 1180 117 q 841 -16 974 -16 m 841 100 q 1008 146 932 100 q 1129 284 1084 193 q 1175 505 1175 374 q 1129 727 1175 636 q 1008 864 1084 817 q 841 911 932 911 q 673 864 749 911 q 552 726 597 817 q 507 505 507 635 q 552 284 507 374 q 673 146 597 193 q 841 100 749 100 m 202 801 q 84 831 127 801 q 41 909 41 861 q 84 986 41 958 q 202 1013 127 1013 l 223 1013 l 223 937 l 202 937 q 151 927 169 937 q 133 899 133 917 q 151 865 133 877 q 202 854 169 854 l 210 854 l 210 801 l 202 801 m 406 803 l 326 803 l 264 1010 l 380 1010 l 406 803 z "},"Ὄ":{"ha":1364,"x_min":41,"x_max":1299,"o":"m 842 -16 q 606 51 709 -16 q 444 234 503 117 q 385 505 385 351 q 444 777 385 659 q 606 960 503 894 q 842 1026 709 1026 q 1078 960 975 1026 q 1240 777 1181 894 q 1299 505 1299 659 q 1240 234 1299 351 q 1078 51 1181 117 q 842 -16 975 -16 m 842 100 q 1009 146 933 100 q 1131 284 1085 193 q 1176 505 1176 374 q 1131 727 1176 636 q 1009 864 1085 817 q 842 911 933 911 q 675 864 751 911 q 553 726 599 817 q 508 505 508 635 q 553 284 508 374 q 675 146 599 193 q 842 100 751 100 m 62 801 l 55 801 l 55 854 l 62 854 q 114 865 96 854 q 132 899 132 877 q 114 927 132 917 q 62 937 96 937 l 41 937 l 41 1013 l 62 1013 q 181 986 138 1013 q 223 909 223 958 q 181 831 223 861 q 62 801 138 801 m 285 803 l 311 1010 l 427 1010 l 366 803 l 285 803 z "},"Ὅ":{"ha":1370,"x_min":41,"x_max":1304,"o":"m 848 -16 q 612 51 715 -16 q 450 234 509 117 q 391 505 391 351 q 450 777 391 659 q 612 960 509 894 q 848 1026 715 1026 q 1084 960 981 1026 q 1245 777 1187 894 q 1304 505 1304 659 q 1245 234 1304 351 q 1084 51 1187 117 q 848 -16 981 -16 m 848 100 q 1015 146 939 100 q 1136 284 1090 193 q 1181 505 1181 374 q 1136 727 1181 636 q 1015 864 1090 817 q 848 911 939 911 q 680 864 756 911 q 559 726 604 817 q 513 505 513 635 q 559 284 513 374 q 680 146 604 193 q 848 100 756 100 m 202 801 q 84 831 127 801 q 41 909 41 861 q 84 986 41 958 q 202 1013 127 1013 l 223 1013 l 223 937 l 202 937 q 151 927 169 937 q 133 899 133 917 q 151 865 133 877 q 202 854 169 854 l 210 854 l 210 801 l 202 801 m 284 803 l 309 1010 l 425 1010 l 365 803 l 284 803 z "},"Ὸ":{"ha":1045,"x_min":-153,"x_max":979,"o":"m 523 -16 q 287 51 390 -16 q 125 234 184 117 q 66 505 66 351 q 125 777 66 659 q 287 960 184 894 q 523 1026 390 1026 q 759 960 656 1026 q 921 777 862 894 q 979 505 979 659 q 921 234 979 351 q 759 51 862 117 q 523 -16 656 -16 m 523 100 q 690 146 614 100 q 811 284 766 193 q 857 505 857 374 q 811 727 857 636 q 690 864 766 817 q 523 911 614 911 q 355 864 431 911 q 234 726 279 817 q 189 505 189 635 q 234 284 189 374 q 355 146 279 193 q 523 100 431 100 m -9 819 l -91 819 l -153 1021 l -35 1021 l -9 819 z "},"ϴ":{"ha":1045,"x_min":66,"x_max":979,"o":"m 859 559 l 859 450 l 165 450 l 165 559 l 859 559 m 523 -16 q 287 51 390 -16 q 125 234 184 117 q 66 505 66 351 q 125 777 66 659 q 287 960 184 894 q 523 1026 390 1026 q 759 960 656 1026 q 921 777 862 894 q 979 505 979 659 q 921 234 979 351 q 759 51 862 117 q 523 -16 656 -16 m 523 100 q 690 146 614 100 q 811 284 766 193 q 857 505 857 374 q 811 727 857 636 q 690 864 766 817 q 523 911 614 911 q 355 864 431 911 q 234 726 279 817 q 189 505 189 635 q 234 284 189 374 q 355 146 279 193 q 523 100 431 100 z "},"Ό":{"ha":1133,"x_min":41,"x_max":1067,"o":"m 610 -16 q 374 51 477 -16 q 212 234 271 117 q 153 505 153 351 q 212 777 153 659 q 374 960 271 894 q 610 1026 477 1026 q 846 960 743 1026 q 1008 777 949 894 q 1067 505 1067 659 q 1008 234 1067 351 q 846 51 949 117 q 610 -16 743 -16 m 610 100 q 777 146 701 100 q 899 284 853 193 q 944 505 944 374 q 899 727 944 636 q 777 864 853 817 q 610 911 701 911 q 443 864 519 911 q 321 726 367 817 q 276 505 276 635 q 321 284 276 374 q 443 146 367 193 q 610 100 519 100 m 41 809 l 67 1010 l 186 1010 l 123 809 l 41 809 z "},"О":{"ha":1045,"x_min":66,"x_max":979,"o":"m 523 -16 q 287 51 390 -16 q 125 234 184 117 q 66 505 66 351 q 125 777 66 659 q 287 960 184 894 q 523 1026 390 1026 q 759 960 656 1026 q 921 777 862 894 q 979 505 979 659 q 921 234 979 351 q 759 51 862 117 q 523 -16 656 -16 m 523 100 q 690 146 614 100 q 811 284 766 193 q 857 505 857 374 q 811 727 857 636 q 690 864 766 817 q 523 911 614 911 q 355 864 431 911 q 234 726 279 817 q 189 505 189 635 q 234 284 189 374 q 355 146 279 193 q 523 100 431 100 z "},"Ӧ":{"ha":1045,"x_min":66,"x_max":979,"o":"m 523 -16 q 287 51 390 -16 q 125 234 184 117 q 66 505 66 351 q 125 777 66 659 q 287 960 184 894 q 523 1026 390 1026 q 759 960 656 1026 q 921 777 862 894 q 979 505 979 659 q 921 234 979 351 q 759 51 862 117 q 523 -16 656 -16 m 523 100 q 690 146 614 100 q 811 284 766 193 q 857 505 857 374 q 811 727 857 636 q 690 864 766 817 q 523 911 614 911 q 355 864 431 911 q 234 726 279 817 q 189 505 189 635 q 234 284 189 374 q 355 146 279 193 q 523 100 431 100 m 665 1147 q 609 1170 632 1147 q 586 1225 586 1193 q 609 1282 586 1259 q 665 1305 632 1305 q 721 1282 698 1305 q 744 1225 744 1259 q 721 1170 744 1193 q 665 1147 698 1147 m 381 1147 q 325 1170 349 1147 q 302 1225 302 1193 q 325 1282 302 1259 q 381 1305 349 1305 q 437 1282 414 1305 q 460 1225 460 1259 q 437 1170 460 1193 q 381 1147 414 1147 z "},"Ɵ":{"ha":1045,"x_min":66,"x_max":979,"o":"m 859 559 l 859 450 l 165 450 l 165 559 l 859 559 m 523 -16 q 287 51 390 -16 q 125 234 184 117 q 66 505 66 351 q 125 777 66 659 q 287 960 184 894 q 523 1026 390 1026 q 759 960 656 1026 q 921 777 862 894 q 979 505 979 659 q 921 234 979 351 q 759 51 862 117 q 523 -16 656 -16 m 523 100 q 690 146 614 100 q 811 284 766 193 q 857 505 857 374 q 811 727 857 636 q 690 864 766 817 q 523 911 614 911 q 355 864 431 911 q 234 726 279 817 q 189 505 189 635 q 234 284 189 374 q 355 146 279 193 q 523 100 431 100 z "},"Ө":{"ha":1045,"x_min":66,"x_max":979,"o":"m 859 559 l 859 450 l 165 450 l 165 559 l 859 559 m 523 -16 q 287 51 390 -16 q 125 234 184 117 q 66 505 66 351 q 125 777 66 659 q 287 960 184 894 q 523 1026 390 1026 q 759 960 656 1026 q 921 777 862 894 q 979 505 979 659 q 921 234 979 351 q 759 51 862 117 q 523 -16 656 -16 m 523 100 q 690 146 614 100 q 811 284 766 193 q 857 505 857 374 q 811 727 857 636 q 690 864 766 817 q 523 911 614 911 q 355 864 431 911 q 234 726 279 817 q 189 505 189 635 q 234 284 189 374 q 355 146 279 193 q 523 100 431 100 z "},"Ӫ":{"ha":1045,"x_min":66,"x_max":979,"o":"m 859 559 l 859 450 l 165 450 l 165 559 l 859 559 m 523 -16 q 287 51 390 -16 q 125 234 184 117 q 66 505 66 351 q 125 777 66 659 q 287 960 184 894 q 523 1026 390 1026 q 759 960 656 1026 q 921 777 862 894 q 979 505 979 659 q 921 234 979 351 q 759 51 862 117 q 523 -16 656 -16 m 523 100 q 690 146 614 100 q 811 284 766 193 q 857 505 857 374 q 811 727 857 636 q 690 864 766 817 q 523 911 614 911 q 355 864 431 911 q 234 726 279 817 q 189 505 189 635 q 234 284 189 374 q 355 146 279 193 q 523 100 431 100 m 665 1147 q 609 1170 632 1147 q 586 1225 586 1193 q 609 1282 586 1259 q 665 1305 632 1305 q 721 1282 698 1305 q 744 1225 744 1259 q 721 1170 744 1193 q 665 1147 698 1147 m 381 1147 q 325 1170 349 1147 q 302 1225 302 1193 q 325 1282 302 1259 q 381 1305 349 1305 q 437 1282 414 1305 q 460 1225 460 1259 q 437 1170 460 1193 q 381 1147 414 1147 z "},"Œ":{"ha":1377,"x_min":66,"x_max":1320,"o":"m 541 0 q 286 62 392 0 q 122 237 179 123 q 66 507 66 351 q 122 775 66 663 q 282 949 178 888 q 530 1010 387 1010 l 727 1010 l 727 901 l 537 901 q 345 853 423 901 q 226 716 266 805 q 186 507 186 628 q 227 295 186 385 q 348 158 267 206 q 547 110 428 110 l 723 110 l 723 0 l 541 0 m 671 0 l 671 1010 l 1319 1010 l 1319 901 l 794 901 l 794 570 l 1281 570 l 1281 461 l 794 461 l 794 110 l 1320 110 l 1320 0 l 671 0 z "},"P":{"ha":858,"x_min":105,"x_max":807,"o":"m 105 0 l 105 1010 l 464 1010 q 649 972 572 1010 q 766 864 726 933 q 807 701 807 794 q 765 537 807 607 q 646 429 724 468 q 460 390 568 390 l 175 390 l 175 499 l 459 499 q 582 524 532 499 q 659 595 632 549 q 685 701 685 640 q 659 806 685 762 q 582 876 632 851 q 459 901 532 901 l 229 901 l 229 0 l 105 0 z "},"Ṕ":{"ha":858,"x_min":105,"x_max":807,"o":"m 105 0 l 105 1010 l 464 1010 q 649 972 572 1010 q 766 864 726 933 q 807 701 807 794 q 765 537 807 607 q 646 429 724 468 q 460 390 568 390 l 175 390 l 175 499 l 459 499 q 582 524 532 499 q 659 595 632 549 q 685 701 685 640 q 659 806 685 762 q 582 876 632 851 q 459 901 532 901 l 229 901 l 229 0 l 105 0 m 372 1104 l 467 1305 l 600 1305 l 469 1104 l 372 1104 z "},"Ṗ":{"ha":858,"x_min":105,"x_max":807,"o":"m 105 0 l 105 1010 l 464 1010 q 649 972 572 1010 q 766 864 726 933 q 807 701 807 794 q 765 537 807 607 q 646 429 724 468 q 460 390 568 390 l 175 390 l 175 499 l 459 499 q 582 524 532 499 q 659 595 632 549 q 685 701 685 640 q 659 806 685 762 q 582 876 632 851 q 459 901 532 901 l 229 901 l 229 0 l 105 0 m 423 1147 q 367 1170 390 1147 q 343 1225 343 1193 q 367 1282 343 1259 q 422 1305 390 1305 q 480 1282 456 1305 q 503 1225 503 1259 q 480 1170 503 1193 q 423 1147 456 1147 z "},"Ҏ":{"ha":848,"x_min":105,"x_max":807,"o":"m 543 650 l 748 335 l 657 277 l 452 591 l 543 650 m 105 0 l 105 1010 l 464 1010 q 649 972 572 1010 q 766 864 726 933 q 807 701 807 794 q 765 537 807 607 q 646 429 724 468 q 460 390 568 390 l 175 390 l 175 499 l 459 499 q 582 524 532 499 q 659 595 632 549 q 685 701 685 640 q 659 806 685 762 q 582 876 632 851 q 459 901 532 901 l 229 901 l 229 0 l 105 0 z "},"Ƥ":{"ha":1048,"x_min":33,"x_max":997,"o":"m 33 722 l 33 830 q 81 966 33 921 q 229 1010 130 1010 l 295 1010 l 295 901 l 229 901 q 165 883 184 901 q 146 827 146 866 l 146 722 l 33 722 m 295 0 l 295 1010 l 654 1010 q 839 972 762 1010 q 956 864 916 933 q 997 701 997 794 q 955 537 997 607 q 836 429 913 468 q 650 390 758 390 l 365 390 l 365 499 l 649 499 q 772 524 722 499 q 848 595 822 549 q 875 701 875 640 q 848 806 875 762 q 772 876 822 851 q 649 901 722 901 l 418 901 l 418 0 l 295 0 z "},"Ρ":{"ha":858,"x_min":105,"x_max":807,"o":"m 105 0 l 105 1010 l 464 1010 q 649 972 572 1010 q 766 864 726 933 q 807 701 807 794 q 765 537 807 607 q 646 429 724 468 q 460 390 568 390 l 175 390 l 175 499 l 459 499 q 582 524 532 499 q 659 595 632 549 q 685 701 685 640 q 659 806 685 762 q 582 876 632 851 q 459 901 532 901 l 229 901 l 229 0 l 105 0 z "},"Ῥ":{"ha":1091,"x_min":41,"x_max":1040,"o":"m 338 0 l 338 1010 l 696 1010 q 882 972 805 1010 q 999 864 958 933 q 1040 701 1040 794 q 998 537 1040 607 q 879 429 956 468 q 692 390 801 390 l 408 390 l 408 499 l 692 499 q 814 524 764 499 q 891 595 865 549 q 918 701 918 640 q 891 806 918 762 q 814 876 865 851 q 692 901 764 901 l 461 901 l 461 0 l 338 0 m 202 801 q 84 831 127 801 q 41 909 41 861 q 84 986 41 958 q 202 1013 127 1013 l 223 1013 l 223 937 l 202 937 q 151 927 169 937 q 133 899 133 917 q 151 865 133 877 q 202 854 169 854 l 210 854 l 210 801 l 202 801 z "},"Q":{"ha":1045,"x_min":66,"x_max":979,"o":"m 473 316 l 607 316 l 720 168 l 748 129 l 916 -95 l 782 -95 l 672 53 l 644 91 l 473 316 m 523 -16 q 287 51 390 -16 q 125 234 184 117 q 66 505 66 351 q 125 777 66 659 q 287 960 184 894 q 523 1026 390 1026 q 759 960 656 1026 q 921 777 862 894 q 979 505 979 659 q 921 234 979 351 q 759 51 862 117 q 523 -16 656 -16 m 523 100 q 690 146 614 100 q 811 284 766 193 q 857 505 857 374 q 811 727 857 636 q 690 864 766 817 q 523 911 614 911 q 355 864 431 911 q 234 726 279 817 q 189 505 189 635 q 234 284 189 374 q 355 146 279 193 q 523 100 431 100 z "},"Ɋ":{"ha":1045,"x_min":66,"x_max":1085,"o":"m 940 1010 l 940 0 l 823 0 l 823 160 l 821 160 q 699 31 783 79 q 508 -16 614 -16 q 332 23 412 -16 q 191 132 251 62 q 99 297 132 202 q 66 506 66 393 q 99 713 66 618 q 191 879 132 808 q 331 987 250 949 q 508 1026 412 1026 q 699 979 614 1026 q 821 854 784 932 l 823 854 l 823 1010 l 940 1010 m 509 100 q 679 151 608 100 q 787 294 749 202 q 825 506 825 386 q 787 719 825 627 q 679 861 749 810 q 510 911 608 911 q 343 860 415 911 q 230 716 271 808 q 189 506 189 625 q 229 293 189 385 q 342 151 270 201 q 509 100 414 100 m 1017 -285 q 872 -241 922 -285 q 823 -115 823 -198 l 823 0 l 940 0 l 940 -115 q 959 -167 940 -151 q 1023 -183 977 -183 q 1054 -183 1034 -183 q 1085 -183 1074 -183 l 1085 -283 q 1056 -284 1072 -284 q 1017 -285 1040 -285 z "},"R":{"ha":882,"x_min":105,"x_max":836,"o":"m 105 0 l 105 1010 l 474 1010 q 659 972 583 1010 q 777 865 736 935 q 817 703 817 796 q 774 541 817 610 q 653 433 732 471 q 467 395 574 395 l 174 395 l 174 505 l 471 505 q 593 529 543 505 q 669 598 643 553 q 695 703 695 642 q 669 808 695 764 q 592 877 642 852 q 469 901 542 901 l 229 901 l 229 0 l 105 0 m 692 0 l 448 454 l 587 454 l 836 0 l 692 0 z "},"Ŕ":{"ha":882,"x_min":105,"x_max":836,"o":"m 105 0 l 105 1010 l 474 1010 q 659 972 583 1010 q 777 865 736 935 q 817 703 817 796 q 774 541 817 610 q 653 433 732 471 q 467 395 574 395 l 174 395 l 174 505 l 471 505 q 593 529 543 505 q 669 598 643 553 q 695 703 695 642 q 669 808 695 764 q 592 877 642 852 q 469 901 542 901 l 229 901 l 229 0 l 105 0 m 692 0 l 448 454 l 587 454 l 836 0 l 692 0 m 386 1104 l 481 1305 l 613 1305 l 483 1104 l 386 1104 z "},"Ŗ":{"ha":882,"x_min":105,"x_max":836,"o":"m 105 0 l 105 1010 l 474 1010 q 659 972 583 1010 q 777 865 736 935 q 817 703 817 796 q 774 541 817 610 q 653 433 732 471 q 467 395 574 395 l 174 395 l 174 505 l 471 505 q 593 529 543 505 q 669 598 643 553 q 695 703 695 642 q 669 808 695 764 q 592 877 642 852 q 469 901 542 901 l 229 901 l 229 0 l 105 0 m 692 0 l 448 454 l 587 454 l 836 0 l 692 0 m 330 -335 l 384 -80 l 505 -80 l 420 -335 l 330 -335 z "},"Ř":{"ha":882,"x_min":105,"x_max":836,"o":"m 105 0 l 105 1010 l 474 1010 q 659 972 583 1010 q 777 865 736 935 q 817 703 817 796 q 774 541 817 610 q 653 433 732 471 q 467 395 574 395 l 174 395 l 174 505 l 471 505 q 593 529 543 505 q 669 598 643 553 q 695 703 695 642 q 669 808 695 764 q 592 877 642 852 q 469 901 542 901 l 229 901 l 229 0 l 105 0 m 692 0 l 448 454 l 587 454 l 836 0 l 692 0 m 339 1305 l 437 1186 l 533 1305 l 651 1305 l 651 1303 l 493 1120 l 380 1120 l 223 1303 l 223 1305 l 339 1305 z "},"Ȑ":{"ha":882,"x_min":105,"x_max":836,"o":"m 105 0 l 105 1010 l 474 1010 q 659 972 583 1010 q 777 865 736 935 q 817 703 817 796 q 774 541 817 610 q 653 433 732 471 q 467 395 574 395 l 174 395 l 174 505 l 471 505 q 593 529 543 505 q 669 598 643 553 q 695 703 695 642 q 669 808 695 764 q 592 877 642 852 q 469 901 542 901 l 229 901 l 229 0 l 105 0 m 692 0 l 448 454 l 587 454 l 836 0 l 692 0 m 490 1104 l 374 1305 l 506 1305 l 587 1104 l 490 1104 m 288 1104 l 140 1305 l 273 1305 l 387 1104 l 288 1104 z "},"Ȓ":{"ha":882,"x_min":105,"x_max":836,"o":"m 105 0 l 105 1010 l 474 1010 q 659 972 583 1010 q 777 865 736 935 q 817 703 817 796 q 774 541 817 610 q 653 433 732 471 q 467 395 574 395 l 174 395 l 174 505 l 471 505 q 593 529 543 505 q 669 598 643 553 q 695 703 695 642 q 669 808 695 764 q 592 877 642 852 q 469 901 542 901 l 229 901 l 229 0 l 105 0 m 692 0 l 448 454 l 587 454 l 836 0 l 692 0 m 437 1308 q 539 1283 495 1308 q 608 1215 583 1258 q 633 1120 633 1173 l 546 1120 q 515 1194 546 1165 q 437 1223 484 1223 q 359 1194 390 1223 q 328 1120 328 1165 l 241 1120 q 266 1215 241 1173 q 335 1283 291 1258 q 437 1308 380 1308 z "},"Ṙ":{"ha":882,"x_min":105,"x_max":836,"o":"m 105 0 l 105 1010 l 474 1010 q 659 972 583 1010 q 777 865 736 935 q 817 703 817 796 q 774 541 817 610 q 653 433 732 471 q 467 395 574 395 l 174 395 l 174 505 l 471 505 q 593 529 543 505 q 669 598 643 553 q 695 703 695 642 q 669 808 695 764 q 592 877 642 852 q 469 901 542 901 l 229 901 l 229 0 l 105 0 m 692 0 l 448 454 l 587 454 l 836 0 l 692 0 m 437 1147 q 380 1170 404 1147 q 357 1225 357 1193 q 380 1282 357 1259 q 436 1305 404 1305 q 493 1282 470 1305 q 517 1225 517 1259 q 493 1170 517 1193 q 437 1147 470 1147 z "},"Ṛ":{"ha":882,"x_min":105,"x_max":836,"o":"m 105 0 l 105 1010 l 474 1010 q 659 972 583 1010 q 777 865 736 935 q 817 703 817 796 q 774 541 817 610 q 653 433 732 471 q 467 395 574 395 l 174 395 l 174 505 l 471 505 q 593 529 543 505 q 669 598 643 553 q 695 703 695 642 q 669 808 695 764 q 592 877 642 852 q 469 901 542 901 l 229 901 l 229 0 l 105 0 m 692 0 l 448 454 l 587 454 l 836 0 l 692 0 m 446 -294 q 390 -271 413 -294 q 366 -216 366 -248 q 390 -159 366 -182 q 446 -136 413 -136 q 503 -159 479 -136 q 526 -216 526 -182 q 503 -271 526 -248 q 446 -294 479 -294 z "},"Ṝ":{"ha":882,"x_min":105,"x_max":836,"o":"m 105 0 l 105 1010 l 474 1010 q 659 972 583 1010 q 777 865 736 935 q 817 703 817 796 q 774 541 817 610 q 653 433 732 471 q 467 395 574 395 l 174 395 l 174 505 l 471 505 q 593 529 543 505 q 669 598 643 553 q 695 703 695 642 q 669 808 695 764 q 592 877 642 852 q 469 901 542 901 l 229 901 l 229 0 l 105 0 m 692 0 l 448 454 l 587 454 l 836 0 l 692 0 m 446 -294 q 390 -271 413 -294 q 366 -216 366 -248 q 390 -159 366 -182 q 446 -136 413 -136 q 503 -159 479 -136 q 526 -216 526 -182 q 503 -271 526 -248 q 446 -294 479 -294 m 624 1257 l 624 1161 l 250 1161 l 250 1257 l 624 1257 z "},"Ṟ":{"ha":882,"x_min":105,"x_max":836,"o":"m 105 0 l 105 1010 l 474 1010 q 659 972 583 1010 q 777 865 736 935 q 817 703 817 796 q 774 541 817 610 q 653 433 732 471 q 467 395 574 395 l 174 395 l 174 505 l 471 505 q 593 529 543 505 q 669 598 643 553 q 695 703 695 642 q 669 808 695 764 q 592 877 642 852 q 469 901 542 901 l 229 901 l 229 0 l 105 0 m 692 0 l 448 454 l 587 454 l 836 0 l 692 0 m 633 -151 l 633 -246 l 258 -246 l 258 -151 l 633 -151 z "},"℟":{"ha":854,"x_min":105,"x_max":836,"o":"m 654 1142 l 264 -239 l 186 -222 l 561 1095 l 347 1158 l 374 1232 l 654 1142 m 105 0 l 105 1010 l 474 1010 q 659 972 583 1010 q 777 865 736 935 q 817 703 817 796 q 774 541 817 610 q 653 433 732 471 q 467 395 574 395 l 174 395 l 174 505 l 471 505 q 593 529 543 505 q 669 598 643 553 q 695 703 695 642 q 669 808 695 764 q 592 877 642 852 q 469 901 542 901 l 229 901 l 229 0 l 105 0 m 692 0 l 448 454 l 587 454 l 836 0 l 692 0 z "},"℞":{"ha":918,"x_min":105,"x_max":883,"o":"m 105 1010 l 444 1010 q 639 968 564 1010 q 749 854 714 925 q 783 700 783 784 q 756 562 783 621 q 676 462 728 502 q 549 403 624 422 l 511 392 l 201 392 l 201 505 l 431 505 q 569 531 519 506 q 640 600 619 556 q 661 700 661 644 q 644 793 661 747 q 580 870 627 840 q 444 901 534 901 l 229 901 l 229 0 l 105 0 l 105 1010 m 740 0 l 418 444 l 557 444 l 883 0 l 740 0 m 562 0 l 419 0 l 745 444 l 883 444 l 562 0 z "},"Ɍ":{"ha":865,"x_min":-1,"x_max":848,"o":"m 186 395 l -1 395 l -1 505 l 186 505 l 186 395 m 117 0 l 117 1010 l 486 1010 q 671 972 595 1010 q 789 865 748 935 q 829 703 829 796 q 787 541 829 610 q 665 433 744 471 q 479 395 587 395 l 186 395 l 186 505 l 483 505 q 605 529 555 505 q 681 598 655 553 q 707 703 707 642 q 681 808 707 764 q 604 877 654 852 q 481 901 554 901 l 241 901 l 241 0 l 117 0 m 704 0 l 460 454 l 600 454 l 848 0 l 704 0 z "},"S":{"ha":861,"x_min":58,"x_max":803,"o":"m 437 -16 q 237 24 321 -16 q 106 138 153 64 q 58 312 60 212 l 185 312 q 217 195 186 243 q 304 121 248 146 q 437 96 361 96 q 564 117 509 96 q 649 179 618 139 q 680 274 680 220 q 659 348 680 317 q 593 402 637 379 q 480 441 549 425 l 365 471 q 149 572 218 508 q 81 739 81 636 q 124 890 81 825 q 247 990 168 955 q 429 1026 326 1026 q 610 988 533 1026 q 731 883 688 951 q 778 722 775 814 l 656 722 q 587 863 650 812 q 425 913 525 913 q 310 892 360 913 q 231 832 260 871 q 203 745 203 794 q 226 672 203 702 q 293 621 249 642 q 403 583 338 600 l 515 555 q 634 514 581 538 q 725 456 688 490 q 783 378 763 422 q 803 277 803 334 q 758 125 803 191 q 630 21 713 58 q 437 -16 548 -16 z "},"Ś":{"ha":861,"x_min":58,"x_max":803,"o":"m 437 -16 q 237 24 321 -16 q 106 138 153 64 q 58 312 60 212 l 185 312 q 217 195 186 243 q 304 121 248 146 q 437 96 361 96 q 564 117 509 96 q 649 179 618 139 q 680 274 680 220 q 659 348 680 317 q 593 402 637 379 q 480 441 549 425 l 365 471 q 149 572 218 508 q 81 739 81 636 q 124 890 81 825 q 247 990 168 955 q 429 1026 326 1026 q 610 988 533 1026 q 731 883 688 951 q 778 722 775 814 l 656 722 q 587 863 650 812 q 425 913 525 913 q 310 892 360 913 q 231 832 260 871 q 203 745 203 794 q 226 672 203 702 q 293 621 249 642 q 403 583 338 600 l 515 555 q 634 514 581 538 q 725 456 688 490 q 783 378 763 422 q 803 277 803 334 q 758 125 803 191 q 630 21 713 58 q 437 -16 548 -16 m 377 1104 l 472 1305 l 604 1305 l 474 1104 l 377 1104 z "}}}
